<svg width="262" height="135" viewBox="0 0 262 135" fill="none" xmlns="http://www.w3.org/2000/svg">
<mask id="mask0_15_22" style="mask-type:luminance" maskUnits="userSpaceOnUse" x="0" y="0" width="271" height="135">
<path d="M271 0H0V134.71H271V0Z" fill="white"/>
</mask>
<g mask="url(#mask0_15_22)">
<path d="M178 60.82H173.77V56.75C171.58 59.57 168.24 61.34 164.43 61.34C157.8 61.34 152.01 56.33 152.01 48.29C152.01 40.25 158.12 34.98 164.74 34.98C168.24 34.98 171.47 36.49 173.72 39.1V24.28H178V60.82ZM165.11 38.74C160.15 38.74 156.34 42.34 156.34 48.19C156.34 54.04 160.05 57.64 164.9 57.64C169.75 57.64 173.88 53.62 173.88 48.14C173.88 42.66 170.02 38.74 165.11 38.74Z" fill="white"/>
<path d="M204.14 53.67L206.7 56.02C203.88 59.67 200.12 61.6 195.27 61.6C187.75 61.6 182.32 56.12 182.32 48.29C182.32 40.46 187.96 34.98 195.16 34.98C202.36 34.98 207.58 40.1 207.58 47.98C207.58 48.66 207.47 49.5 207.42 49.76H186.7C187.28 54.87 191.09 58.01 195.63 58.01C198.81 58.01 201.68 56.71 204.14 53.68M186.71 46.46H203.31C202.68 41.55 199.5 38.58 195.22 38.58C190.94 38.58 187.44 41.45 186.71 46.46Z" fill="white"/>
<path d="M213.37 35.61L221.57 55.75L229.71 35.61H234.09L223.39 60.82H219.53L208.72 35.61H213.37Z" fill="white"/>
<path d="M28.43 46.26H21.34V53.35H28.43V46.26Z" fill="#0068B5"/>
<path d="M28.24 57.65H21.52V83.17H28.24V57.65ZM72.8 83.43V77.17C71.81 77.17 70.99 77.11 70.37 77.01C69.68 76.9 69.15 76.67 68.79 76.31C68.44 75.96 68.2 75.44 68.09 74.78C67.98 74.15 67.93 73.32 67.93 72.32V63.39H72.8V57.64H67.93V47.7H61.21V72.37C61.21 74.45 61.39 76.22 61.75 77.63C62.1 79.02 62.7 80.16 63.54 81.01C64.37 81.86 65.48 82.48 66.82 82.85C68.18 83.22 69.9 83.41 71.95 83.41H72.8V83.43ZM111.33 45.74H104.61V83.17H111.33V45.74ZM101.11 70.36C101.11 68.53 100.78 66.79 100.14 65.2C99.5 63.61 98.58 62.19 97.43 60.99C96.28 59.79 94.88 58.84 93.27 58.16C91.66 57.48 89.86 57.14 87.93 57.14C86.1 57.14 84.36 57.49 82.75 58.19C81.14 58.89 79.72 59.84 78.54 61.02C77.35 62.21 76.4 63.62 75.7 65.23C75.01 66.84 74.65 68.58 74.65 70.41C74.65 72.24 74.98 73.99 75.65 75.6C76.31 77.21 77.24 78.63 78.41 79.81C79.58 81 81.01 81.95 82.67 82.64C84.33 83.33 86.17 83.69 88.14 83.69C93.83 83.69 97.38 81.1 99.49 78.68L94.65 74.99C93.63 76.2 91.21 77.84 88.19 77.84C86.29 77.84 84.73 77.4 83.55 76.54C82.37 75.67 81.55 74.48 81.13 73L81.06 72.76H101.11V70.36ZM81.11 68.01C81.11 66.14 83.25 62.88 87.88 62.88C92.5 62.88 94.65 66.14 94.65 68.01H81.11Z" fill="#00C7FD"/>
<path d="M118.99 47.02C118.86 46.72 118.68 46.46 118.46 46.23C118.23 46 117.97 45.83 117.67 45.69C117.37 45.56 117.05 45.49 116.7 45.49C116.35 45.49 116.03 45.56 115.73 45.69C115.43 45.82 115.16 46 114.94 46.23C114.72 46.46 114.54 46.72 114.41 47.02C114.28 47.32 114.21 47.64 114.21 47.99C114.21 48.34 114.28 48.66 114.41 48.96C114.54 49.26 114.72 49.52 114.94 49.75C115.16 49.98 115.43 50.15 115.73 50.29C116.03 50.42 116.35 50.49 116.7 50.49C117.05 50.49 117.37 50.42 117.67 50.29C117.97 50.16 118.23 49.98 118.46 49.75C118.68 49.52 118.86 49.26 118.99 48.96C119.12 48.66 119.19 48.34 119.19 47.99C119.19 47.64 119.12 47.32 118.99 47.02ZM118.59 48.78C118.48 49.03 118.34 49.25 118.15 49.43C117.96 49.62 117.75 49.76 117.5 49.87C117.25 49.98 116.98 50.03 116.7 50.03C116.42 50.03 116.15 49.98 115.9 49.87C115.65 49.76 115.43 49.62 115.25 49.43C115.07 49.25 114.92 49.03 114.81 48.78C114.7 48.53 114.65 48.26 114.65 47.98C114.65 47.7 114.7 47.43 114.81 47.18C114.92 46.93 115.06 46.71 115.25 46.53C115.44 46.35 115.65 46.2 115.9 46.09C116.15 45.98 116.41 45.93 116.7 45.93C116.99 45.93 117.25 45.98 117.5 46.09C117.75 46.2 117.97 46.34 118.15 46.53C118.33 46.72 118.48 46.93 118.59 47.18C118.7 47.43 118.75 47.7 118.75 47.98C118.75 48.26 118.7 48.53 118.59 48.78ZM117.17 48.19C117.36 48.17 117.53 48.09 117.65 47.97C117.78 47.85 117.84 47.66 117.84 47.41C117.84 47.13 117.76 46.92 117.6 46.77C117.44 46.62 117.18 46.55 116.84 46.55H115.74V49.39H116.26V48.23H116.64L117.35 49.39H117.9L117.16 48.19H117.17ZM116.89 47.77C116.81 47.77 116.73 47.78 116.65 47.78H116.27V46.98H116.65C116.73 46.98 116.81 46.98 116.89 46.98C116.97 46.98 117.04 47 117.11 47.03C117.18 47.06 117.23 47.1 117.27 47.15C117.31 47.2 117.33 47.28 117.33 47.37C117.33 47.46 117.31 47.54 117.27 47.59C117.23 47.64 117.18 47.68 117.11 47.71C117.05 47.74 116.97 47.75 116.89 47.76" fill="#00C7FD"/>
<path d="M175.79 109.42H153.71V106.08L169.79 87.76H154.33V84.21H175.11V87.55L159.19 105.88H175.79V109.42Z" fill="white"/>
<path d="M203.88 96.84C203.88 100.63 202.61 103.81 200.07 106.37C197.53 108.93 194.4 110.21 190.67 110.21C186.94 110.21 183.84 108.94 181.35 106.4C178.86 103.86 177.62 100.69 177.62 96.9C177.62 93.11 178.89 89.93 181.43 87.37C183.97 84.81 187.1 83.53 190.83 83.53C194.56 83.53 197.66 84.8 200.15 87.34C202.64 89.88 203.88 93.05 203.88 96.84ZM181.95 96.89C181.95 99.61 182.79 101.89 184.48 103.73C186.17 105.58 188.27 106.5 190.77 106.5C193.27 106.5 195.32 105.58 197.01 103.73C198.7 101.89 199.54 99.59 199.54 96.84C199.54 94.09 198.69 91.89 196.98 90.03C195.27 88.17 193.19 87.24 190.71 87.24C188.23 87.24 186.16 88.16 184.47 90.01C182.78 91.85 181.94 94.15 181.94 96.9" fill="white"/>
<path d="M208.26 84.21H212.44V88.12C213.45 86.66 214.73 85.54 216.28 84.75C217.83 83.97 219.56 83.57 221.47 83.57C224.81 83.57 227.42 84.65 229.3 86.81C231.18 88.97 232.12 91.93 232.12 95.69V109.42H227.89V95.95C227.89 93.3 227.24 91.22 225.93 89.69C224.62 88.16 222.81 87.39 220.47 87.39C218.13 87.39 216.14 88.21 214.67 89.84C213.21 91.48 212.48 93.6 212.48 96.21V109.42H208.25V84.2L208.26 84.21Z" fill="white"/>
<path d="M249.51 106.6C251.18 106.6 252.72 106.24 254.13 105.53C255.54 104.82 256.84 103.73 258.02 102.27L260.58 104.62C259.15 106.5 257.48 107.9 255.57 108.82C253.66 109.74 251.52 110.2 249.15 110.2C245.35 110.2 242.25 108.96 239.83 106.47C237.41 103.98 236.2 100.79 236.2 96.89C236.2 92.99 237.44 89.93 239.91 87.39C242.38 84.85 245.43 83.58 249.05 83.58C252.67 83.58 255.73 84.78 258.03 87.18C260.33 89.58 261.48 92.71 261.48 96.58C261.48 96.86 261.46 97.18 261.43 97.55C261.39 97.91 261.36 98.18 261.33 98.36H240.6C240.88 100.83 241.84 102.82 243.5 104.34C245.15 105.86 247.16 106.61 249.53 106.61M249.09 87.18C246.9 87.18 245.02 87.89 243.45 89.32C241.88 90.75 240.92 92.66 240.58 95.06H257.18C256.87 92.62 255.98 90.7 254.52 89.29C253.06 87.88 251.25 87.18 249.09 87.18Z" fill="white"/>
<path d="M134.71 0H0V134.71H134.71V0Z" fill="white"/>
<path d="M28.43 46.26H21.34V53.35H28.43V46.26Z" fill="#0068B5"/>
<path d="M28.24 57.65H21.52V83.17H28.24V57.65ZM72.8 83.43V77.17C71.81 77.17 70.99 77.11 70.37 77.01C69.68 76.9 69.15 76.67 68.79 76.31C68.44 75.96 68.2 75.44 68.09 74.78C67.98 74.15 67.93 73.32 67.93 72.32V63.39H72.8V57.64H67.93V47.7H61.21V72.37C61.21 74.45 61.39 76.22 61.75 77.63C62.1 79.02 62.7 80.16 63.54 81.01C64.37 81.86 65.48 82.48 66.82 82.85C68.17 83.22 69.9 83.41 71.95 83.41H72.8V83.43ZM111.33 45.74H104.61V83.17H111.33V45.74ZM54.73 60.16C52.87 58.15 50.24 57.13 46.91 57.13C45.31 57.13 43.82 57.46 42.5 58.11C41.18 58.76 40.05 59.68 39.16 60.83L38.79 61.3V60.88V57.65H32.16V83.17H38.84V69.58V70.52C38.84 70.36 38.84 70.21 38.85 70.06C38.92 67.68 39.52 65.9 40.62 64.77C41.8 63.57 43.24 62.96 44.89 62.96C46.83 62.96 48.31 63.55 49.29 64.73C50.25 65.88 50.74 67.52 50.75 69.62V69.67C50.75 69.67 50.75 69.67 50.75 69.68V83.18H57.54V68.69C57.54 65.05 56.59 62.19 54.73 60.17M101.11 70.36C101.11 68.53 100.78 66.79 100.14 65.2C99.5 63.61 98.58 62.19 97.43 60.99C96.28 59.79 94.88 58.84 93.27 58.16C91.66 57.48 89.86 57.14 87.93 57.14C86.1 57.14 84.36 57.49 82.75 58.19C81.14 58.89 79.72 59.84 78.54 61.02C77.35 62.21 76.4 63.62 75.7 65.23C75.01 66.84 74.65 68.58 74.65 70.41C74.65 72.24 74.98 73.99 75.64 75.6C76.3 77.21 77.23 78.63 78.4 79.81C79.57 81 81 81.95 82.66 82.64C84.32 83.33 86.16 83.69 88.13 83.69C93.82 83.69 97.37 81.1 99.48 78.68L94.64 74.99C93.62 76.2 91.2 77.84 88.18 77.84C86.28 77.84 84.72 77.4 83.54 76.54C82.36 75.67 81.54 74.48 81.12 73L81.05 72.76H101.1V70.36H101.11ZM81.11 68.01C81.11 66.14 83.25 62.88 87.88 62.88C92.5 62.88 94.65 66.14 94.65 68.01H81.11Z" fill="#00C7FD"/>
<path d="M118.99 47.02C118.86 46.72 118.68 46.46 118.45 46.23C118.22 46 117.96 45.83 117.66 45.69C117.36 45.56 117.04 45.49 116.69 45.49C116.34 45.49 116.02 45.56 115.72 45.69C115.42 45.82 115.16 46 114.93 46.23C114.7 46.46 114.53 46.72 114.39 47.02C114.26 47.32 114.19 47.64 114.19 47.99C114.19 48.34 114.26 48.66 114.39 48.96C114.52 49.26 114.7 49.52 114.93 49.75C115.15 49.98 115.42 50.15 115.72 50.29C116.02 50.42 116.34 50.49 116.69 50.49C117.04 50.49 117.36 50.42 117.66 50.29C117.96 50.16 118.22 49.98 118.45 49.75C118.68 49.52 118.85 49.26 118.99 48.96C119.12 48.66 119.19 48.34 119.19 47.99C119.19 47.64 119.12 47.32 118.99 47.02ZM118.59 48.78C118.48 49.03 118.34 49.25 118.15 49.43C117.96 49.62 117.75 49.76 117.5 49.87C117.25 49.98 116.98 50.03 116.7 50.03C116.42 50.03 116.15 49.98 115.9 49.87C115.65 49.76 115.43 49.62 115.25 49.43C115.06 49.25 114.92 49.03 114.81 48.78C114.7 48.53 114.65 48.26 114.65 47.98C114.65 47.7 114.7 47.43 114.81 47.18C114.92 46.93 115.06 46.71 115.25 46.53C115.44 46.35 115.65 46.2 115.9 46.09C116.15 45.98 116.41 45.93 116.7 45.93C116.99 45.93 117.25 45.98 117.5 46.09C117.75 46.2 117.97 46.34 118.15 46.53C118.33 46.72 118.48 46.93 118.59 47.18C118.7 47.43 118.75 47.7 118.75 47.98C118.75 48.26 118.7 48.53 118.59 48.78ZM117.17 48.19C117.37 48.17 117.53 48.09 117.65 47.97C117.78 47.85 117.84 47.66 117.84 47.41C117.84 47.13 117.76 46.92 117.6 46.77C117.44 46.62 117.18 46.55 116.84 46.55H115.74V49.39H116.26V48.23H116.64L117.35 49.39H117.9L117.16 48.19H117.17ZM116.89 47.77C116.81 47.77 116.73 47.78 116.65 47.78H116.27V46.98H116.65C116.73 46.98 116.81 46.98 116.89 46.98C116.97 46.98 117.04 47 117.11 47.03C117.18 47.06 117.23 47.1 117.27 47.15C117.31 47.2 117.33 47.28 117.33 47.37C117.33 47.46 117.31 47.54 117.27 47.59C117.23 47.64 117.18 47.68 117.11 47.71C117.05 47.74 116.97 47.75 116.89 47.76" fill="#00C7FD"/>
</g>
</svg>
