<svg xmlns="http://www.w3.org/2000/svg" width="60.149" height="59.999" viewBox="0 0 60.149 59.999"><defs><style>.a{fill:#00c7fe;}.b{fill:#0068b5;}</style></defs><g transform="translate(-2 -2)"><rect class="a" width="6" height="6" transform="translate(7.91 8)"/><path class="b" d="M24.07,27a3,3,0,0,0,3-3V12a3,3,0,0,0-3-3h-12a3,3,0,0,0-3,3V24a3,3,0,0,0,3,3ZM13.57,13.5h9v9h-9Z" transform="translate(14.14 14)"/><path class="b" d="M62.149,29V20h-6V12.2a4.29,4.29,0,0,0-4.2-4.2h-7.8V2h-9V8h-6V2h-9V8H17v6H50V50H14V17H8v3H2v9H8v6H2v9H8v7.74A4.29,4.29,0,0,0,12.47,56h7.68v6h9V56h6v6h9V56h12V44h6V35h-6V29Z" transform="translate(0 0)"/></g></svg>