<svg xmlns="http://www.w3.org/2000/svg" width="59.147" height="59" viewBox="0 0 59.147 59"><defs><style>.a{fill:#00c7fe;}.b{fill:#0068b5;}</style></defs><g transform="translate(-2 -2)"><rect class="a" width="5.841" height="5.841" transform="translate(55.159 2.059)"/><path class="b" d="M61.147,10.85h-5.9V29.2h-4.13a6.933,6.933,0,0,0-13.01,0H33.624V20.644H31.5a2.478,2.478,0,0,1,0-4.927h2.213V7.9H52.386V2H7.9A5.9,5.9,0,0,0,2,7.9V31.5H2V55.1A5.9,5.9,0,0,0,7.9,61H33.506v-.8h0V51.029a6.7,6.7,0,0,0,4.4-5.34,7.7,7.7,0,0,0,0-1.416,5.605,5.605,0,0,0-1.268-3.717,6.549,6.549,0,0,0-3.275-2.478V33.565H42.12V31.382a2.6,2.6,0,0,1,.177-.826,2.478,2.478,0,0,1,2.3-1.387A2.36,2.36,0,0,1,47.076,31.5v2.183H61.148ZM29.258,8.224v3.422a6.667,6.667,0,0,0-4.425,5.4,6.9,6.9,0,0,0,0,1.121,6.785,6.785,0,0,0,4.514,6.49v4.455H20.939v2.183a2.36,2.36,0,0,1-2.478,2.33,2.448,2.448,0,0,1-2.3-1.416,2.153,2.153,0,0,1-.177-.885V29.14H7.9V7.9H29.17Zm4.514,36.315a2.36,2.36,0,0,1-2.3,2.212H29.288V55.1H7.9V33.535h4.071a6.756,6.756,0,0,0,6.49,4.514,6.726,6.726,0,0,0,6.49-4.514h4.307V42.09H31.5a2.36,2.36,0,0,1,2.271,2.449Z" transform="translate(0)"/></g></svg>