<svg width="213" height="278" xmlns="http://www.w3.org/2000/svg" xmlns:xlink="http://www.w3.org/1999/xlink" xml:space="preserve" overflow="hidden"><defs><clipPath id="clip0"><rect x="0" y="0" width="213" height="278"/></clipPath></defs><g clip-path="url(#clip0)"><path d="M11.3924 277.658 11.3924 320.013" stroke="#000000" stroke-width="1.26582" stroke-linecap="round" stroke-linejoin="round" stroke-miterlimit="3" fill="none" fill-rule="evenodd" transform="matrix(1 0 0 1.00122 185.194 -199.716)"/><path d="M8.91139 4.4557 0 0 8.91139-4.4557 8.91139 4.4557" stroke="#000000" stroke-width="1.26582" stroke-linecap="square" stroke-miterlimit="3" fill-rule="evenodd" transform="matrix(-6.12323e-17 -1.00122 1 -6.13072e-17 196.586 129.61)"/><path d="M282.73-22.3835 314.243-22.3835 314.243-12.8738 282.73-12.8738Z" fill="#FFFFFF" fill-rule="evenodd" transform="matrix(6.12323e-17 1.00122 -1 6.13071e-17 185.194 -199.716)"/><text font-family="Calibri,Calibri_MSFontService,sans-serif" font-weight="400" font-size="6" transform="matrix(7.75092e-17 1.26737 -1.26582 7.76039e-17 200.738 83)">J<tspan font-size="4" x="2.36711" y="-1.10741">y</tspan><tspan font-size="6" x="3.94518" y="0.00257965"> </tspan><tspan font-size="6" x="5.52325" y="0.00257965">= -</tspan><tspan font-size="6" x="11.0465" y="0.00257965">0</tspan><tspan font-size="6" x="14.2026" y="0.00257965">.</tspan><tspan font-size="6" x="16.5698" y="0.00257965">375</tspan></text><path d="M11.3924 277.658 11.3924 437.152" stroke="#000000" stroke-width="0.632911" stroke-linecap="round" stroke-linejoin="round" stroke-miterlimit="3" stroke-dasharray="0.632911 1.26582" fill="none" fill-rule="evenodd" transform="matrix(1 0 0 1.00122 59.7715 -226.964)"/><path d="M11.3924 277.658 11.3924 437.152" stroke="#000000" stroke-width="0.632911" stroke-linecap="round" stroke-linejoin="round" stroke-miterlimit="3" stroke-dasharray="0.632911 1.26582" fill="none" fill-rule="evenodd" transform="matrix(1 0 0 1.00122 128.127 -226.964)"/><path d="M11.3924 277.658 11.3924 437.152" stroke="#000000" stroke-width="0.632911" stroke-linecap="round" stroke-linejoin="round" stroke-miterlimit="3" stroke-dasharray="0.632911 1.26582" fill="none" fill-rule="evenodd" transform="matrix(1 0 0 1.00122 25.5943 -226.964)"/><path d="M11.3924 277.658 11.3924 473.025" stroke="#000000" stroke-width="0.632911" stroke-linecap="round" stroke-linejoin="round" stroke-miterlimit="3" stroke-dasharray="0.632911 1.26582" fill="none" fill-rule="evenodd" transform="matrix(1 0 0 1.00122 93.9487 -262.874)"/><path d="M11.3924 277.658 11.3924 437.152" stroke="#000000" stroke-width="0.632911" stroke-linecap="round" stroke-linejoin="round" stroke-miterlimit="3" stroke-dasharray="0.632911 1.26582" fill="none" fill-rule="evenodd" transform="matrix(1 0 0 1.00122 162.304 -226.964)"/><path d="M0 266.266-159.494 266.266" stroke="#000000" stroke-width="0.632911" stroke-linecap="round" stroke-linejoin="round" stroke-miterlimit="3" stroke-dasharray="0.632911 1.26582" fill="none" fill-rule="evenodd" transform="matrix(1 0 0 1.00122 185.089 -171.412)"/><path d="M0 266.266-159.494 266.266" stroke="#000000" stroke-width="0.632911" stroke-linecap="round" stroke-linejoin="round" stroke-miterlimit="3" stroke-dasharray="0.632911 1.26582" fill="none" fill-rule="evenodd" transform="matrix(1 0 0 1.00122 185.089 -102.974)"/><path d="M0 266.266-159.494 266.266" stroke="#000000" stroke-width="0.632911" stroke-linecap="round" stroke-linejoin="round" stroke-miterlimit="3" stroke-dasharray="0.632911 1.26582" fill="none" fill-rule="evenodd" transform="matrix(1 0 0 1.00122 185.089 -205.631)"/><path d="M0 266.266-179.43 266.266" stroke="#000000" stroke-width="0.632911" stroke-linecap="round" stroke-linejoin="round" stroke-miterlimit="3" stroke-dasharray="0.632911 1.26582" fill="none" fill-rule="evenodd" transform="matrix(1 0 0 1.00122 205.024 -137.193)"/><path d="M0 266.266-159.494 266.266" stroke="#000000" stroke-width="0.632911" stroke-linecap="round" stroke-linejoin="round" stroke-miterlimit="3" stroke-dasharray="0.632911 1.26582" fill="none" fill-rule="evenodd" transform="matrix(1 0 0 1.00122 185.089 -68.7548)"/><path d="M0 140.952 136.709 140.952 136.709 277.661 0 277.661Z" stroke="#000000" stroke-width="1.89873" stroke-linecap="square" stroke-miterlimit="3" fill="none" fill-rule="evenodd" transform="matrix(1 0 0 1.00122 36.9867 -80.1611)"/><path d="M0 211.396 66.2639 211.396 66.2639 277.66-8.88486e-07 277.66Z" stroke="#000000" stroke-width="1.89873" stroke-linecap="square" stroke-miterlimit="3" fill="none" fill-rule="evenodd" transform="matrix(1 0 0 1.00122 38.3743 -149.302)"/><path d="M0 211.396 66.2639 211.396 66.2639 277.66-8.88486e-07 277.66Z" stroke="#000000" stroke-width="1.89873" stroke-linecap="square" stroke-miterlimit="3" fill="none" fill-rule="evenodd" transform="matrix(1 0 0 1.00122 106.044 -149.302)"/><path d="M0 211.396 66.2639 211.396 66.2639 277.66-8.88486e-07 277.66Z" stroke="#000000" stroke-width="1.89873" stroke-linecap="square" stroke-miterlimit="3" fill="none" fill-rule="evenodd" transform="matrix(1 0 0 1.00122 38.3743 -81.5504)"/><path d="M0 211.396 66.2639 211.396 66.2639 277.66-8.88486e-07 277.66Z" stroke="#000000" stroke-width="1.89873" stroke-linecap="square" stroke-miterlimit="3" fill="none" fill-rule="evenodd" transform="matrix(1 0 0 1.00122 106.044 -81.5504)"/><path d="M0 269.114C-1.12428e-15 264.395 3.82542 260.57 8.5443 260.57 13.2632 260.57 17.0886 264.395 17.0886 269.114 17.0886 273.833 13.2632 277.658 8.5443 277.658 3.82542 277.658 0 273.833 0 269.114Z" fill="#5B9BD5" fill-rule="evenodd" transform="matrix(1 0 0 1.00122 96.7968 -140.044)"/><path d="M0 272.215C5.47543e-08 269.205 2.43976 266.766 5.44937 266.766 8.45897 266.766 10.8987 269.205 10.8987 272.215 10.8987 275.225 8.45897 277.664 5.44937 277.664 2.43976 277.664 9.45502e-07 275.225 8.90748e-07 272.215Z" fill="#70AD47" fill-rule="evenodd" transform="matrix(1 0 0 1.00122 134.072 -176.96)"/><path d="M0 272.215C5.47543e-08 269.205 2.43976 266.766 5.44937 266.766 8.45897 266.766 10.8987 269.205 10.8987 272.215 10.8987 275.225 8.45897 277.664 5.44937 277.664 2.43976 277.664 9.45502e-07 275.225 8.90748e-07 272.215Z" fill="#70AD47" fill-rule="evenodd" transform="matrix(1 0 0 1.00122 65.9666 -108.718)"/><path d="M0 272.215C5.47543e-08 269.205 2.43976 266.766 5.44937 266.766 8.45897 266.766 10.8987 269.205 10.8987 272.215 10.8987 275.225 8.45897 277.664 5.44937 277.664 2.43976 277.664 9.45502e-07 275.225 8.90748e-07 272.215Z" fill="#70AD47" fill-rule="evenodd" transform="matrix(1 0 0 1.00122 134.072 -108.718)"/><path d="M0 272.215C5.47543e-08 269.205 2.43976 266.766 5.44937 266.766 8.45897 266.766 10.8987 269.205 10.8987 272.215 10.8987 275.225 8.45897 277.664 5.44937 277.664 2.43976 277.664 9.45502e-07 275.225 8.90748e-07 272.215Z" fill="#70AD47" fill-rule="evenodd" transform="matrix(1 0 0 1.00122 65.9666 -176.96)"/><text font-family="Calibri,Calibri_MSFontService,sans-serif" font-weight="400" font-size="8" transform="matrix(1.26582 0 0 1.26737 34.4171 48)">0<tspan font-size="8" x="21.9381" y="0">0</tspan><tspan font-size="8" x="25.9381" y="0">.</tspan><tspan font-size="8" x="27.9381" y="0">25</tspan><tspan font-size="8" x="50.9681" y="0">0</tspan>.<tspan font-size="8" x="56.9681" y="0">5</tspan><tspan font-size="8" x="75.5163" y="0">0</tspan>.75<tspan font-size="8" x="107.576" y="0">1</tspan><tspan font-size="8" x="-16.5875" y="12.6246">0</tspan><tspan font-size="8" x="-21.6575" y="40.2408">0</tspan>.25<tspan font-size="8" x="-19.6275" y="66.279">0</tspan>.5<tspan font-size="8" x="-21.6575" y="93.8953">0</tspan>.75<tspan font-size="8" x="-16.5875" y="119.933">1</tspan></text><path d="M0 269.114C-1.12428e-15 264.395 3.82542 260.57 8.5443 260.57 13.2632 260.57 17.0886 264.395 17.0886 269.114 17.0886 273.833 13.2632 277.658 8.5443 277.658 3.82542 277.658 0 273.833 0 269.114Z" stroke="#ED7D31" stroke-width="0.949367" stroke-linecap="square" stroke-miterlimit="3" fill="none" fill-rule="evenodd" transform="matrix(1 0 0 1.00122 148.063 -191.373)"/><path d="M0 266.266-48.4177 266.266" stroke="#000000" stroke-width="0.632911" stroke-linecap="round" stroke-linejoin="round" stroke-miterlimit="3" stroke-dasharray="0.632911 1.26582" fill="none" fill-rule="evenodd" transform="matrix(1 0 0 1.00122 205.025 -188.521)"/><path d="M11.3924 277.658 11.3924 340.316" stroke="#000000" stroke-width="0.632911" stroke-linecap="round" stroke-linejoin="round" stroke-miterlimit="3" stroke-dasharray="0.632911 1.26582" fill="none" fill-rule="evenodd" transform="matrix(1 0 0 1.00122 145.215 -262.662)"/><path d="M0 266.329-42.3544 266.228" stroke="#000000" stroke-width="1.26582" stroke-linecap="round" stroke-linejoin="round" stroke-miterlimit="3" fill="none" fill-rule="evenodd" transform="matrix(1 0 0 1.00122 156.608 -251.321)"/><path d="M8.91139 4.4557 0 0 8.91139-4.4557 8.91139 4.4557" stroke="#000000" stroke-width="1.26582" stroke-linecap="square" stroke-miterlimit="3" fill-rule="evenodd" transform="matrix(0.999997 0.00239383 -0.00239091 1.00122 105.342 15.2112)"/><path d="M-36.5348 256.08-5.11848 256.08-5.11848 265.589-36.5348 265.589Z" fill="#FFFFFF" fill-rule="evenodd" transform="matrix(1 0 0 1.00122 156.608 -251.321)"/><text font-family="Calibri,Calibri_MSFontService,sans-serif" font-weight="400" font-size="6" transform="matrix(1.26582 0 0 1.26737 120.076 12)">J<tspan font-size="4" x="2" y="-0.789036">x</tspan><tspan font-size="6" x="4" y="0"> </tspan>= -<tspan font-size="6" x="11" y="0">0</tspan><tspan font-size="6" x="14" y="0">.</tspan><tspan font-size="6" x="16" y="0">375</tspan></text><path d="M0 269.114C-1.12428e-15 264.395 3.82542 260.57 8.5443 260.57 13.2632 260.57 17.0886 264.395 17.0886 269.114 17.0886 273.833 13.2632 277.658 8.5443 277.658 3.82542 277.658 0 273.833 0 269.114Z" fill="#5B9BD5" fill-rule="evenodd" transform="matrix(1 0 0 1.00122 47.4298 -42.7737)"/><text font-family="Calibri,Calibri_MSFontService,sans-serif" font-weight="400" font-size="9" transform="matrix(1.26582 0 0 1.26737 71.6099 230)">Input pixel</text><path d="M0 269.114C-1.12428e-15 264.395 3.82542 260.57 8.5443 260.57 13.2632 260.57 17.0886 264.395 17.0886 269.114 17.0886 273.833 13.2632 277.658 8.5443 277.658 3.82542 277.658 0 273.833 0 269.114Z" stroke="#ED7D31" stroke-width="0.949367" stroke-linecap="square" stroke-miterlimit="3" fill="none" fill-rule="evenodd" transform="matrix(1 0 0 1.00122 47.4298 -23.4799)"/><text font-family="Calibri,Calibri_MSFontService,sans-serif" font-weight="400" font-size="9" transform="matrix(1.26582 0 0 1.26737 71.6099 249)">Jittered input pixel</text><path d="M0 272.215C5.47543e-08 269.205 2.43976 266.766 5.44937 266.766 8.45897 266.766 10.8987 269.205 10.8987 272.215 10.8987 275.225 8.45897 277.664 5.44937 277.664 2.43976 277.664 9.45502e-07 275.225 8.90748e-07 272.215Z" fill="#70AD47" fill-rule="evenodd" transform="matrix(1 0 0 1.00122 50.5274 -7.53713)"/><text font-family="Calibri,Calibri_MSFontService,sans-serif" font-weight="400" font-size="9" transform="matrix(1.26582 0 0 1.26737 71.3749 268)">Target pixel</text></g></svg>