<svg width="344" height="59" viewBox="0 0 344 59" fill="none" xmlns="http://www.w3.org/2000/svg">
<path d="M10.96 0.799988H0V11.76H10.96V0.799988Z" fill="#00C7FD"/>
<path d="M10.67 57.82V18.4H0.290039V57.82H10.68H10.67ZM79.51 58.22V48.55C77.98 48.55 76.72 48.46 75.75 48.31C74.68 48.14 73.86 47.78 73.31 47.23C72.76 46.68 72.4 45.89 72.23 44.87C72.07 43.9 71.99 42.62 71.99 41.06V27.27H79.51V18.39H71.99V3.04H61.61V41.15C61.61 44.36 61.89 47.1 62.44 49.28C62.99 51.43 63.92 53.19 65.21 54.51C66.5 55.83 68.21 56.78 70.28 57.35C72.37 57.93 75.04 58.22 78.2 58.22H79.51ZM139.04 57.82V0H128.66V57.82H139.04ZM51.59 22.28C48.71 19.17 44.65 17.6 39.51 17.6C37.03 17.6 34.74 18.11 32.7 19.12C30.66 20.13 28.92 21.54 27.54 23.33L26.97 24.06V23.4V18.4H16.73V57.82H27.05V38.27C27.05 38.03 27.06 37.79 27.07 37.56C27.18 33.88 28.1 31.13 29.81 29.38C31.64 27.52 33.85 26.58 36.4 26.58C39.4 26.58 41.68 27.5 43.2 29.31C44.68 31.08 45.44 33.63 45.46 36.87V36.95C45.46 36.95 45.46 36.96 45.46 36.97V57.82H55.94V35.44C55.94 29.82 54.48 25.39 51.6 22.28H51.59ZM123.24 38.03C123.24 35.2 122.74 32.52 121.74 30.06C120.74 27.6 119.34 25.41 117.56 23.55C115.78 21.69 113.62 20.22 111.14 19.18C108.65 18.13 105.88 17.6 102.89 17.6C100.06 17.6 97.37 18.14 94.88 19.22C92.39 20.29 90.2 21.77 88.37 23.6C86.54 25.43 85.06 27.62 83.99 30.11C82.92 32.59 82.37 35.29 82.37 38.12C82.37 40.95 82.89 43.65 83.91 46.13C84.93 48.62 86.36 50.81 88.17 52.64C89.98 54.47 92.19 55.94 94.76 57.02C97.33 58.09 100.17 58.64 103.21 58.64C112 58.64 117.48 54.64 120.75 50.9L113.28 45.21C111.7 47.08 107.97 49.61 103.3 49.61C100.37 49.61 97.96 48.93 96.13 47.6C94.3 46.26 93.04 44.42 92.38 42.13L92.28 41.76H123.25V38.05L123.24 38.03ZM92.35 34.41C92.35 31.52 95.66 26.49 102.8 26.48C109.94 26.48 113.26 31.51 113.26 34.4H92.34L92.35 34.41Z" fill="white"/>
<path d="M180.04 36.71H196.48V51.56C196.48 51.56 190.98 58.65 179.19 58.65C167.4 58.65 158.21 49.58 158.21 38.24C158.21 26.9 167.28 17.83 179.19 17.83C189.96 17.83 195.06 24.75 195.06 24.75L191.09 28.72C191.09 28.72 187.41 23.5 179.18 23.5C170.95 23.5 164.44 30.02 164.44 38.24C164.44 46.46 170.96 52.98 179.18 52.98C184.45 52.98 188.14 51.11 190.23 49.64V42.38H180.03V36.71H180.04Z" fill="white"/>
<path d="M240.24 32.97V58.08H234.17V51.16C230.43 56.72 225.1 58.98 219.03 58.98C215.8 58.98 213.64 58.58 210.92 57.68C203.95 55.36 199.47 49.57 201.57 42.43C203.67 35.34 210.3 34.44 217.44 34.44H234.28C234.22 26.73 228.04 23.16 219.6 23.16C215.35 23.16 212.34 24.29 209.51 26.9L205.43 22.53C208.66 19.81 212.69 18.16 219.21 17.82C231.29 17.25 240.3 24.17 240.24 32.96V32.97ZM234.29 40H216.94C210.93 40 208.49 41.42 207.76 44.76C206.97 48.39 209.57 53.38 218.98 53.38C226.41 53.38 233.1 48.33 234.29 40Z" fill="white"/>
<path d="M284.42 40.79C284.42 50.71 276.48 58.65 266.11 58.65C255.74 58.65 247.74 50.71 247.74 40.79V18.4H253.98V40.79C253.98 47.54 259.37 52.92 266.11 52.92C272.85 52.92 278.19 47.53 278.19 40.79V18.4H284.43V40.79H284.42Z" fill="white"/>
<path d="M292.9 58.08V18.4H310.59C321.53 18.4 330.43 27.3 330.43 38.24C330.43 49.18 321.53 58.08 310.59 58.08H292.9ZM310.14 52.41C317.96 52.41 324.31 46.06 324.31 38.24C324.31 30.42 317.96 24.07 310.14 24.07H299.14V52.42H310.14V52.41Z" fill="white"/>
<path d="M336.88 18.4H343.12V58.08H336.88V18.4Z" fill="white"/>
</svg>
