<svg width="135" height="123" viewBox="0 0 135 123" fill="none" xmlns="http://www.w3.org/2000/svg">
<mask id="mask0_2_1269" style="mask-type:luminance" maskUnits="userSpaceOnUse" x="0" y="0" width="135" height="123">
<path d="M134.03 0.310059H0.419922V122.26H134.03V0.310059Z" fill="white"/>
</mask>
<g mask="url(#mask0_2_1269)">
<path d="M134.03 62.4398L113.33 35.4199L112.85 35.5699L79.4299 28.0898V36.9199L96.1299 40.7798L66.78 49.9099L37.84 40.8998L55.08 36.9199V28.0898L21.1099 35.6898L0.409912 62.7098L12.89 67.0699V94.0099C12.89 99.0699 16.07 103.67 20.83 105.45L65.9799 122.26L113.54 105.44C118.4 103.72 121.67 99.0898 121.67 93.9298V66.7398L134.01 62.4298L134.03 62.4398ZM82.1899 67.6299L76.0099 59.8098L108.82 49.5999L114.09 56.4799L82.1899 67.6299ZM25.6299 49.8698L58.4399 60.0798L52.2599 67.8998L20.3599 56.7498L25.6299 49.8698ZM25.1099 71.3398L56.45 82.2899L61.2 76.2899V107.47L25.1099 94.0298V71.3499V71.3398ZM109.48 93.9499L73.39 106.71V76.1699L78.0099 82.0099L109.48 71.0198V93.9499Z" fill="#0068B5"/>
<path d="M73.0099 24.7202H60.8099V36.9202H73.0099V24.7202Z" fill="#00C7FE"/>
<path d="M85.23 12.52H73.03V24.72H85.23V12.52Z" fill="#00C7FE"/>
<path d="M60.8 0.310059H48.74V12.5101H60.8V0.310059Z" fill="#00C7FE"/>
</g>
</svg>
