<svg width="118" height="120" viewBox="0 0 118 120" fill="none" xmlns="http://www.w3.org/2000/svg">
<path d="M10.7211 98.3037H0V109.018H10.7211V98.3037Z" fill="#00C7FD"/>
<path d="M77.6745 12.375L41.7052 2.08929L0 1.875V92.9464H10.7211V12.5893H37.5239V50.0893H42.8845V13.6071L75.0479 22.7679V34.0179H80.4084V22.7679L107.211 14.5179V99.75L80.4084 108V87.5893H75.0479V108.054L42.8845 98.8929V71.5179H37.5239V98.5179L16.0817 98.3036V109.018H39.4537L77.8354 120L117.932 107.625V0L77.6745 12.375Z" fill="#0054AE"/>
<path d="M75.852 39.4287L68.2936 46.9823L76.7633 55.4466H21.4423V66.1609H76.7633L68.2936 74.6787L75.852 82.2323L97.2942 60.8037L75.852 39.4287Z" fill="#00C7FD"/>
</svg>
