<svg width="86" height="102" viewBox="0 0 86 102" fill="none" xmlns="http://www.w3.org/2000/svg">
<mask id="mask0_28_19" style="mask-type:luminance" maskUnits="userSpaceOnUse" x="0" y="0" width="86" height="102">
<path d="M85.77 0.930176H0.169922V101.64H85.77V0.930176Z" fill="white"/>
</mask>
<g mask="url(#mask0_28_19)">
<path d="M10.2399 0.930176H0.169922V11.0002H10.2399V0.930176Z" fill="#00C7FE"/>
<path d="M65.6299 26.1104H20.3099V33.6604H65.6299V26.1104Z" fill="#0068B5"/>
<path d="M65.6299 68.9102H20.3099V76.4601H65.6299V68.9102Z" fill="#0068B5"/>
<path d="M65.6299 47.5103H20.3099V55.0602H65.6299V47.5103Z" fill="#0068B5"/>
</g>
<mask id="mask1_28_19" style="mask-type:luminance" maskUnits="userSpaceOnUse" x="0" y="0" width="86" height="102">
<path d="M85.77 0.930176H0.169922V101.64H85.77V0.930176Z" fill="white"/>
</mask>
<g mask="url(#mask1_28_19)">
<path d="M66.3799 101.59L5.16992 101.65C2.39992 101.63 0.159912 99.3802 0.159912 96.6102V15.9602H10.2299V91.6002L62.3599 91.4902L75.6899 78.7702V11.0002H15.2599V0.930176H80.7199C83.4999 0.930176 85.7599 3.18018 85.7599 5.97018V83.0802L66.3699 101.59H66.3799Z" fill="#0068B5"/>
</g>
</svg>
