<svg width="112" height="99" viewBox="0 0 112 99" fill="none" xmlns="http://www.w3.org/2000/svg">
<mask id="mask0_5_3960" style="mask-type:luminance" maskUnits="userSpaceOnUse" x="0" y="0" width="112" height="99">
<path d="M111.27 0H0V98.83H111.27V0Z" fill="white"/>
</mask>
<g mask="url(#mask0_5_3960)">
<path d="M24.7 80.3001H97.9301C101.78 80.3001 105.03 76.8701 105.03 73.0301V30.8901H92.62V67.8901L24.7 67.9501V80.3001Z" fill="#0068B5"/>
<path d="M80.34 6.2002H13.14C9.28001 6.2002 6.15002 9.33019 6.15002 13.1902V61.9402H18.52V18.6202L80.33 18.5602V6.21019L80.34 6.2002Z" fill="#0068B5"/>
<path d="M111.18 86.48H0V98.83H111.18V86.48Z" fill="#0068B5"/>
<path d="M18.53 67.9502H6.18005V80.3002H18.53V67.9502Z" fill="#00C7FE"/>
<path d="M86.47 0V6.18H100.7L61.9301 44.93L51.0699 36.87L35.87 55.58L24.74 55.52L24.7 61.7L38.8099 61.77L52.16 45.37L62.53 53.06L105 10.62V24.71H111.27V6.18V0.150002V0H86.47Z" fill="#0068B5"/>
</g>
</svg>
