<svg width="112" height="118" viewBox="0 0 112 118" fill="none" xmlns="http://www.w3.org/2000/svg">
<mask id="mask0_5_3989" style="mask-type:luminance" maskUnits="userSpaceOnUse" x="0" y="0" width="112" height="118">
<path d="M111.27 0H0V117.42H111.27V0Z" fill="white"/>
</mask>
<g mask="url(#mask0_5_3989)">
<path d="M22.24 36.4399H33.57L33.59 26.0899C33.95 16.8099 40.35 11.9099 45.72 11.1499C51.17 10.3999 58.59 13.3499 61.54 22.2599L61.6 22.4399H72L72.15 21.8499C73.17 17.7799 77.92 15.5499 82.72 16.1299C85.69 16.4799 89.23 17.8699 89.29 22.4299H94.22L100.35 22.3899C100.28 13.0899 93.87 6.31988 84.02 5.14988C77.88 4.40988 72.28 6.11988 67.4 10.0299C61.34 2.38988 52.1 -0.920123 44.16 0.199877C33.93 1.64988 23.35 10.4199 22.55 25.3799H22.16C10.25 25.4999 -0.0200195 34.8599 -0.0200195 46.2499C-0.0200195 57.6399 10.36 66.4899 22.19 67.0999L50.1 67.1699L50.08 56.1099L22.19 56.0499C16.61 56.0499 11.03 51.4499 11.03 46.2399C11.03 41.0299 16.4 36.4699 22.22 36.4199" fill="#0068B5"/>
<path d="M66.96 56.02H55.8V67.18H66.96V56.02Z" fill="#00C7FE"/>
<path d="M111.27 34.6498C111.27 31.1798 108.34 28.0898 104.87 28.0898H66.97H55.8V50.4398H66.97V39.2498L100.25 39.2998V100.66L66.79 100.61V72.7298H55.76V105.26C55.76 108.73 58.7 111.82 62.17 111.82H66.94V117.41H78.1V111.83H89.06V117.41H100.22V111.83H111.26V34.6498H111.27Z" fill="#0068B5"/>
<path d="M94.86 83.9297H83.61V95.0897H94.86V83.9297Z" fill="#0068B5"/>
<path d="M94.84 72.77H72.44V78.35H94.84V72.77Z" fill="#0068B5"/>
<path d="M94.78 61.6597H72.39V67.2397H94.78V61.6597Z" fill="#0068B5"/>
</g>
</svg>
