<svg width="194" height="194" viewBox="0 0 194 194" fill="none" xmlns="http://www.w3.org/2000/svg">
<g clip-path="url(#clip0_16_50)">
<path d="M194 0H0V194H194V0Z" fill="#00377C"/>
<path d="M167.676 122.369V105.9H170.127V122.455C170.127 130.883 164.838 136.688 156.668 136.688C148.498 136.688 143.209 130.883 143.209 122.455V105.9H145.703V122.369C145.703 129.335 150.175 134.366 156.711 134.366C163.333 134.366 167.676 129.335 167.676 122.369Z" fill="white"/>
<path d="M138.951 132.775V136H135.726V132.775H138.951Z" fill="white"/>
<path d="M130.942 105.9V136H128.534V132.13C126.814 134.667 123.89 136.43 120.493 136.43C115.118 136.43 110.345 132.345 110.345 125.809C110.345 119.187 115.333 115.059 120.665 115.059C123.89 115.059 126.814 116.693 128.534 119.101V105.9H130.942ZM128.663 125.68C128.663 120.735 125.137 117.252 120.708 117.252C116.236 117.252 112.796 120.477 112.796 125.723C112.796 131.012 116.15 134.237 120.536 134.237C125.008 134.237 128.663 130.625 128.663 125.68Z" fill="white"/>
<path d="M103.947 136V132.302C102.485 134.796 99.8193 136.473 96.1643 136.473C90.4883 136.473 87.3923 132.259 87.3923 126.411V115.532H89.8003V126.368C89.8003 131.012 92.1223 134.28 96.6373 134.28C101.281 134.28 103.947 130.668 103.947 126.196V115.532H106.355V136H103.947Z" fill="white"/>
<path d="M73.1727 136.645C67.3247 136.645 62.8097 131.958 62.8097 125.852C62.8097 119.746 67.4107 115.016 73.3017 115.016C79.1497 115.016 83.6647 119.703 83.6647 125.809C83.6647 131.915 79.0637 136.645 73.1727 136.645ZM73.2587 134.452C77.7307 134.452 81.2137 130.668 81.2137 125.766C81.2137 121.036 77.7307 117.209 73.2157 117.209C68.7437 117.209 65.2607 120.993 65.2607 125.895C65.2607 130.625 68.7437 134.452 73.2587 134.452Z" fill="white"/>
<path d="M58.3233 105.9V136H55.9153V105.9H58.3233Z" fill="white"/>
<path d="M38.555 134.366C43.242 134.366 46.725 132.345 49.262 127.959L51.24 128.991C48.875 133.549 44.79 136.688 38.512 136.688C29.998 136.688 23.806 130.109 23.806 120.993C23.806 112.092 30.299 105.212 38.899 105.212C44.446 105.212 48.789 108.05 51.068 112.694L49.004 113.898C46.51 109.383 43.113 107.534 38.813 107.534C31.675 107.534 26.343 113.296 26.343 120.907C26.343 128.647 31.589 134.366 38.555 134.366Z" fill="white"/>
<path d="M29.7242 51.9806H24V57.7048H29.7242V51.9806Z" fill="#00C7FD"/>
<path d="M29.5708 61.1764H24.1453V81.7802H29.5708V61.1764ZM65.5467 81.9901V76.936C64.7474 76.936 64.0853 76.8876 63.5848 76.8068C63.0277 76.718 62.5998 76.5323 62.3092 76.2417C62.0266 75.9591 61.8328 75.5393 61.744 75.0064C61.6552 74.4978 61.6148 73.8277 61.6148 73.0203V65.8106H65.5467V61.1683H61.6148V53.1432H56.1894V73.0607C56.1894 74.74 56.3347 76.169 56.6254 77.3074C56.9079 78.4296 57.3923 79.35 58.0705 80.0363C58.7406 80.7225 59.6368 81.2231 60.7187 81.5218C61.8086 81.8205 63.2053 81.9739 64.8604 81.9739H65.5467V81.9901ZM96.6542 51.5607H91.2287V81.7802H96.6542V51.5607ZM50.9577 63.2028C49.456 61.58 47.3327 60.7565 44.6442 60.7565C43.3524 60.7565 42.1494 61.023 41.0837 61.5478C40.018 62.0725 39.1057 62.8153 38.3871 63.7438L38.0884 64.1232V63.7841V61.1764H32.7356V81.7802H38.1288V70.8082V71.5671C38.1288 71.4379 38.1288 71.3168 38.1368 71.1957C38.1934 69.2742 38.6778 67.8371 39.5659 66.9248C40.5186 65.9559 41.6811 65.4634 43.0133 65.4634C44.5796 65.4634 45.7745 65.9398 46.5657 66.8925C47.3407 67.8209 47.7363 69.145 47.7444 70.8404V70.8808C47.7444 70.8808 47.7444 70.8808 47.7444 70.8889V81.7882H53.2264V70.0896C53.2264 67.1508 52.4594 64.8418 50.9577 63.2109M88.403 71.4379C88.403 69.9604 88.1366 68.5556 87.6198 67.2719C87.1031 65.9882 86.3604 64.8418 85.4319 63.8729C84.5034 62.9041 83.3731 62.1371 82.0733 61.5881C80.7734 61.0391 79.3202 60.7646 77.762 60.7646C76.2845 60.7646 74.8797 61.0472 73.5799 61.6123C72.28 62.1775 71.1336 62.9445 70.1809 63.8972C69.2201 64.8579 68.4532 65.9963 67.888 67.2961C67.3309 68.596 67.0403 70.0008 67.0403 71.4783C67.0403 72.9557 67.3067 74.3686 67.8396 75.6684C68.3724 76.9683 69.1233 78.1147 70.0679 79.0674C71.0125 80.0282 72.167 80.7952 73.5072 81.3523C74.8474 81.9093 76.333 82.2 77.9235 82.2C82.5173 82.2 85.3835 80.1089 87.087 78.1551L83.1794 75.176C82.3559 76.1529 80.4021 77.4769 77.9638 77.4769C76.4299 77.4769 75.1704 77.1217 74.2177 76.4274C73.265 75.725 72.603 74.7642 72.2639 73.5693L72.2074 73.3756H88.3949V71.4379H88.403ZM72.2558 69.5406C72.2558 68.0308 73.9836 65.3989 77.7216 65.3989C81.4516 65.3989 83.1875 68.0308 83.1875 69.5406H72.2558Z" fill="white"/>
<path d="M102.839 79.2353C102.734 78.993 102.588 78.7831 102.403 78.5974C102.217 78.4118 102.007 78.2745 101.765 78.1615C101.523 78.0565 101.264 78 100.982 78C100.699 78 100.441 78.0565 100.198 78.1615C99.9562 78.2664 99.7463 78.4118 99.5606 78.5974C99.3749 78.7831 99.2377 78.993 99.1247 79.2353C99.0197 79.4775 98.9632 79.7358 98.9632 80.0184C98.9632 80.301 99.0197 80.5593 99.1247 80.8015C99.2296 81.0437 99.3749 81.2537 99.5606 81.4393C99.7383 81.625 99.9562 81.7623 100.198 81.8753C100.441 81.9803 100.699 82.0368 100.982 82.0368C101.264 82.0368 101.523 81.9803 101.765 81.8753C102.007 81.7704 102.217 81.625 102.403 81.4393C102.588 81.2537 102.725 81.0437 102.839 80.8015C102.943 80.5593 103 80.301 103 80.0184C103 79.7358 102.943 79.4775 102.839 79.2353ZM102.516 80.6562C102.427 80.858 102.314 81.0357 102.16 81.181C102.007 81.3344 101.837 81.4474 101.636 81.5362C101.434 81.625 101.216 81.6654 100.99 81.6654C100.764 81.6654 100.546 81.625 100.344 81.5362C100.142 81.4474 99.9643 81.3344 99.819 81.181C99.6656 81.0357 99.5526 80.858 99.4638 80.6562C99.3749 80.4544 99.3346 80.2364 99.3346 80.0103C99.3346 79.7843 99.3749 79.5663 99.4638 79.3644C99.5526 79.1626 99.6656 78.985 99.819 78.8397C99.9724 78.6943 100.142 78.5732 100.344 78.4844C100.546 78.3956 100.756 78.3552 100.99 78.3552C101.224 78.3552 101.434 78.3956 101.636 78.4844C101.837 78.5732 102.015 78.6863 102.16 78.8397C102.306 78.993 102.427 79.1626 102.516 79.3644C102.604 79.5663 102.645 79.7843 102.645 80.0103C102.645 80.2364 102.604 80.4544 102.516 80.6562ZM101.369 80.1799C101.531 80.1637 101.66 80.0991 101.757 80.0022C101.862 79.9054 101.91 79.752 101.91 79.5501C101.91 79.3241 101.845 79.1545 101.716 79.0334C101.587 78.9123 101.377 78.8558 101.103 78.8558H100.215V81.1487H100.634V80.2122H100.941L101.514 81.1487H101.958L101.361 80.1799H101.369ZM101.143 79.8408C101.078 79.8408 101.014 79.8488 100.949 79.8488H100.642V79.203H100.949C101.014 79.203 101.078 79.203 101.143 79.203C101.208 79.203 101.264 79.2191 101.321 79.2433C101.377 79.2676 101.418 79.2998 101.45 79.3402C101.482 79.3806 101.498 79.4452 101.498 79.5178C101.498 79.5905 101.482 79.6551 101.45 79.6955C101.418 79.7358 101.377 79.7681 101.321 79.7923C101.272 79.8166 101.208 79.8246 101.143 79.8327" fill="white"/>
</g>
<defs>
<clipPath id="clip0_16_50">
<rect width="194" height="194" fill="white"/>
</clipPath>
</defs>
</svg>
