<svg width="103" height="127" viewBox="0 0 103 127" fill="none" xmlns="http://www.w3.org/2000/svg">
<g clip-path="url(#clip0_30_29)">
<path d="M33.7969 72.9025L30.7713 69.8112L26.265 74.3193L33.7969 81.8543L46.6075 69.0384L42.1656 64.5303L33.7969 72.9025Z" fill="#0068B5"/>
<path d="M33.7969 47.2706L30.7713 44.1794L26.265 48.6875L33.7969 56.2225L46.6075 43.4065L42.1656 38.8984L33.7969 47.2706Z" fill="#0068B5"/>
<path d="M77.5719 43.2778H51.8219V49.6536H77.5719V43.2778Z" fill="#0068B5"/>
<path d="M77.5719 69.0386H51.8219V75.4143H77.5719V69.0386Z" fill="#0068B5"/>
<path d="M77.5719 94.8638H51.8219V101.24H77.5719V94.8638Z" fill="#0068B5"/>
<path d="M33.7969 98.6632L30.7713 95.5719L26.265 100.08L33.7969 107.615L46.6075 94.7991L42.1656 90.291L33.7969 98.6632Z" fill="#0068B5"/>
<path d="M103 17.5173C103 13.9753 100.103 11.0772 96.5625 11.0772H64.375C63.1519 3.7998 56.2638 -1.03033 48.9894 0.193305C43.4531 1.15933 39.0756 5.53864 38.11 11.0772H0V120.56C0 124.102 2.89687 127 6.4375 127H83.6875V114.12H12.875V23.9575H32.1875V30.3977H70.8125V23.9575H90.125V107.68H103V17.5173ZM58.4525 11.0772H44.4831C44.0969 7.21308 46.9294 3.7998 50.7919 3.41339C54.6544 3.02698 58.0662 5.86065 58.4525 9.72475C58.4525 10.1756 58.4525 10.6264 58.4525 11.0772Z" fill="#0068B5"/>
<path d="M102.936 114.055H90.2538V126.742H102.936V114.055Z" fill="#00C7FE"/>
</g>
<defs>
<clipPath id="clip0_30_29">
<rect width="103" height="127" fill="white"/>
</clipPath>
</defs>
</svg>
