<?xml version="1.0" encoding="utf-8"?>
<!-- Generator: Adobe Illustrator 24.2.1, SVG Export Plug-In . SVG Version: 6.00 Build 0)  -->
<svg version="1.1" xmlns="http://www.w3.org/2000/svg" xmlns:xlink="http://www.w3.org/1999/xlink" x="0px" y="0px"
	 viewBox="0 0 100 100" style="enable-background:new 0 0 100 100;" xml:space="preserve">
<style type="text/css">
	.st0{fill:#0A69B3;}
	.st1{fill-rule:evenodd;clip-rule:evenodd;fill:#0A69B3;}
	.st2{clip-path:url(#SVGID_2_);}
	.st3{clip-path:url(#SVGID_4_);fill:#0A69B3;}
	.st4{fill:#2EC5F4;}
	.st5{fill-rule:evenodd;clip-rule:evenodd;fill:#0C6AB4;}
</style>
<g id="sheet">
	<g>
		<defs>
			<path id="SVGID_1_" d="M246.8-172.2c0.4-1,1.8-2.2,2.2-2.6C247.7-172.5,246.8-172.1,246.8-172.2z M258-177.1
				c2.6-0.2,3,0.4,2.7,0.6C260.7-176.5,260.3-176.1,258-177.1z M251-176.2c0.7-1.2,1.3-2.7,1.8-4c0.6,1.1,1.4,2,2.2,2.6
				C253.5-177.3,252.2-176.6,251-176.2z M253-183.2c-0.3-1-0.3-3-0.1-3C253.4-186.2,253.3-183.8,253-183.2z M251-174.8
				c1.6-0.5,3.4-1.2,5-1.5c1.4,0.7,3,1.2,4.1,1.2c1.9,0,2.1-2.1,1.3-2.8c-0.9-0.9-3.4-0.6-4.7-0.5c-1.3-0.8-2.1-1.8-2.7-3.4
				c0.3-1.2,0.7-3,0.4-4.1c-0.3-1.9-2.8-1.7-3.1-0.4c-0.3,1.2,0,2.8,0.5,4.9c-0.7,1.8-1.8,4.1-2.6,5.5c-1.5,0.8-3.4,1.9-3.7,3.4
				C245.2-171.4,247.3-168.5,251-174.8z M263.9-192h-5.6v-5.6L263.9-192z M264.2-167.4H243v-30.5h11.7v7.6c0,1,0.8,1.8,1.8,1.8h7.6
				V-167.4z M264.2-163.8c1.9,0,3.5-1.6,3.5-3.5v-24.4c0-0.9-0.4-1.8-1-2.5l-6.2-6.2c-0.7-0.7-1.6-1-2.5-1h-15
				c-1.9,0-3.5,1.6-3.5,3.5v30.5c0,1.9,1.6,3.5,3.5,3.5H264.2z"/>
		</defs>
		<use xlink:href="#SVGID_1_"  style="overflow:visible;fill:#0A69B3;"/>
		<clipPath id="SVGID_2_">
			<use xlink:href="#SVGID_1_"  style="overflow:visible;"/>
		</clipPath>
		<g class="st2">
			<defs>
				<rect id="SVGID_3_" x="-408.8" y="-1746.9" width="2818.5" height="6219.5"/>
			</defs>
			<use xlink:href="#SVGID_3_"  style="overflow:visible;fill:#0A69B3;"/>
			<clipPath id="SVGID_4_">
				<use xlink:href="#SVGID_3_"  style="overflow:visible;"/>
			</clipPath>
		</g>
	</g>
</g>
<g id="icon-download">
</g>
<g id="icon-downloadcomplete">
</g>
<g id="icon-copy">
</g>
<g id="icon-bookmark">
</g>
<g id="icon-bookmarked">
</g>
<g id="icon-pdf">
	<path class="st0" d="M32.4,77.2c1-2.6,4.7-5.6,5.8-6.7C34.6,76.3,32.4,77.3,32.4,77.2z M61.4,64.4c6.7-0.5,7.8,1,7.1,1.5
		C68.5,65.9,67.6,67.1,61.4,64.4z M43.4,66.9c1.9-3.2,3.4-7.1,4.7-10.5c1.6,2.9,3.6,5.2,5.8,6.8C49.9,64,46.4,65.7,43.4,66.9z
		 M48.4,48.5c-0.8-2.7-0.8-7.8-0.3-7.8C49.4,40.7,49.3,46.9,48.4,48.5z M43.2,70.3c4.3-1.4,9-3.2,13.1-3.8c3.6,2,7.8,3.3,10.7,3.3
		c4.9,0,5.4-5.4,3.3-7.4c-2.3-2.3-9-1.7-12.3-1.2c-3.3-2-5.5-4.8-7-8.9c0.7-3.1,1.9-7.8,1-10.7c-0.8-5-7.2-4.5-8.2-1.1
		c-0.8,3.1-0.1,7.4,1.3,12.8c-1.9,4.6-4.8,10.7-6.8,14.2c-3.8,2-9,5-9.8,8.8C28,79.3,33.6,86.8,43.2,70.3z M76.8,25.5H62.2V11
		L76.8,25.5z M77.6,89.8H22.4V10.2h30.6v19.9c0,2.5,2,4.6,4.6,4.6h19.9V89.8z M77.6,99c5.1,0,9.2-4.1,9.2-9.2V26.3
		c0-2.4-1-4.8-2.7-6.5L68,3.7C66.3,2,63.9,1,61.5,1H22.4c-5.1,0-9.2,4.1-9.2,9.2v79.6c0,5.1,4.1,9.2,9.2,9.2H77.6z"/>
</g>
<g id="icon-codesnippet">
</g>
<g id="icon-video">
</g>
<g id="icon-document-cardview">
</g>
<g id="icon-pdf-cardview">
</g>
<g id="icon-code-cardview">
</g>
</svg>
