<svg xmlns="http://www.w3.org/2000/svg" xmlns:xlink="http://www.w3.org/1999/xlink" width="106.814" height="60" viewBox="0 0 106.814 60">
  <defs>
    <clipPath id="clip-Artboard_7">
      <rect width="106.814" height="60"/>
    </clipPath>
  </defs>
  <g id="Artboard_7" data-name="Artboard 7" clip-path="url(#clip-Artboard_7)">
    <g id="White">
      <g id="Group_3" data-name="Group 3">
        <g id="Group_1" data-name="Group 1">
          <rect id="Rectangle_1" data-name="Rectangle 1" width="4.32" height="4.32" transform="translate(3.303 0.315)" fill="#fff"/>
          <path id="Path_1" data-name="Path 1" d="M7.511,22.8V7.253H3.417V22.8Zm27.139.158V19.142a10.2,10.2,0,0,1-1.481-.095,1.7,1.7,0,0,1-.961-.426,1.668,1.668,0,0,1-.426-.929,9.494,9.494,0,0,1-.1-1.5V10.755H34.65v-3.5H31.686V1.2H27.592V16.223a13.323,13.323,0,0,0,.328,3.2,4.438,4.438,0,0,0,1.091,2.062,4.355,4.355,0,0,0,2,1.121,12.01,12.01,0,0,0,3.123.343ZM58.117,22.8V0H54.023V22.8ZM23.644,8.784a6.194,6.194,0,0,0-4.762-1.846,6.031,6.031,0,0,0-2.686.6,5.79,5.79,0,0,0-2.035,1.659l-.223.287V7.253H9.9V22.8h4.069v-8.28l0,.575c0-.1,0-.188,0-.28a4.664,4.664,0,0,1,1.08-3.223,3.529,3.529,0,0,1,2.6-1.1,3.31,3.31,0,0,1,2.68,1.075,4.577,4.577,0,0,1,.89,2.98h0v.039h0V22.8h4.132V13.972A7.381,7.381,0,0,0,23.644,8.784Zm28.245,6.209A8.36,8.36,0,0,0,51.3,11.85a8.057,8.057,0,0,0-1.649-2.566A7.517,7.517,0,0,0,47.117,7.56a8.329,8.329,0,0,0-3.252-.622,7.932,7.932,0,0,0-3.156.637,8.063,8.063,0,0,0-4.293,4.293,7.911,7.911,0,0,0-.637,3.156,8.272,8.272,0,0,0,.606,3.158,7.686,7.686,0,0,0,4.276,4.291,8.589,8.589,0,0,0,3.331.638,8.822,8.822,0,0,0,6.914-3.05l-2.947-2.245a5.407,5.407,0,0,1-3.936,1.737,4.691,4.691,0,0,1-2.826-.8A3.934,3.934,0,0,1,39.72,16.6l-.042-.144H51.889ZM39.712,13.567c0-1.138,1.306-3.124,4.122-3.128s4.125,1.985,4.125,3.123Z" fill="#fff"/>
          <path id="Path_2" data-name="Path 2" d="M63.071,20.626a1.711,1.711,0,0,0-.358-.529,1.728,1.728,0,0,0-.529-.358,1.657,1.657,0,0,0-1.3,0,1.728,1.728,0,0,0-.529.358,1.711,1.711,0,0,0-.358.529,1.657,1.657,0,0,0,0,1.3,1.687,1.687,0,0,0,.887.887,1.645,1.645,0,0,0,1.3,0,1.687,1.687,0,0,0,.887-.887,1.657,1.657,0,0,0,0-1.3ZM62.8,21.807a1.372,1.372,0,0,1-.731.731,1.369,1.369,0,0,1-1.066,0,1.372,1.372,0,0,1-.731-.731,1.369,1.369,0,0,1,0-1.066,1.362,1.362,0,0,1,.294-.437A1.378,1.378,0,0,1,61,20.01a1.369,1.369,0,0,1,1.066,0,1.372,1.372,0,0,1,.731.731,1.369,1.369,0,0,1,0,1.066Zm-.95-.4a.536.536,0,0,0,.324-.147.5.5,0,0,0,.128-.377.546.546,0,0,0-.163-.426.746.746,0,0,0-.509-.148H60.9v1.905h.35v-.78H61.5l.475.78h.368Zm-.188-.275c-.054,0-.108.007-.162.007h-.255v-.534H61.5c.054,0,.108,0,.162,0a.44.44,0,0,1,.145.031.263.263,0,0,1,.1.377.248.248,0,0,1-.1.08A.5.5,0,0,1,61.662,21.133Z" fill="#fff"/>
        </g>
        <path id="Path_3" data-name="Path 3" d="M100.962,31.047v-.4h2.33v.4h-.942v2.579H101.9V31.047Zm3.272-.4,1.091,1.538,1.092-1.538h.4v2.976h-.447V31.443l-1.042,1.439-1.04-1.439v2.183h-.447V30.65Z" fill="#fff"/>
        <g id="Group_2" data-name="Group 2">
          <path id="Path_4" data-name="Path 4" d="M15.446,29.943c7.932,0,11.689,5.093,11.689,5.093l-2.922,2.922s-2.714-3.84-8.767-3.84a10.854,10.854,0,1,0,0,21.707,13.989,13.989,0,0,0,8.14-2.462V48.019H16.072V43.844H28.179V54.782S24.129,60,15.446,60a15.034,15.034,0,1,1,0-30.057Z" fill="#fff"/>
          <path id="Path_5" data-name="Path 5" d="M31.309,44.971A15.063,15.063,0,0,1,46.755,29.943,15.062,15.062,0,0,1,62.2,44.971a11.453,11.453,0,0,1-.167,2.088H36.11a10.807,10.807,0,0,0,10.645,8.85A11.526,11.526,0,0,0,56.4,51.526l3.548,2.713C57.192,57.454,53.226,60,46.755,60A15.063,15.063,0,0,1,31.309,44.971Zm4.8-1.961H57.442A10.667,10.667,0,0,0,46.8,34.118,10.809,10.809,0,0,0,36.11,43.01Z" fill="#fff"/>
          <path id="Path_6" data-name="Path 6" d="M62.2,34.535V30.36H88.125v4.175H77.48V59.583H72.888V34.535Z" fill="#fff"/>
          <path id="Path_7" data-name="Path 7" d="M97.142,35.412H92.3V30.36h4.842Zm-.125,3.924V59.583H92.425V39.336Z" fill="#fff"/>
        </g>
      </g>
    </g>
  </g>
</svg>
