<svg width="2000" height="1200" viewBox="0 0 2000 1200" fill="none" xmlns="http://www.w3.org/2000/svg">
<g clip-path="url(#clip0_41803_22910)">
<path opacity="0.05" d="M890.2 954.431C955.98 975.091 1015.4 1013.75 1075.8 1048.67C1173.21 1104.99 1277.88 1153.17 1388.44 1158.01C1499.01 1162.85 1617.01 1117.46 1681.55 1018.23C1746.09 919.001 1738.45 763.711 1649.45 692.801C1549.06 612.821 1400.45 663.001 1289.44 601.851C1228.21 568.121 1186.32 504.891 1141.68 448.071C1075.09 363.311 995.74 287.351 900.39 246.681C805.04 206.011 691.78 204.621 602.8 261.941C513.82 319.261 457.78 441.501 486.11 549.181C496.16 587.381 515.96 625.791 506.92 664.531C494.91 715.941 439.35 738.391 391.19 743.871C343.02 749.351 290.06 747.901 252.2 781.321C92.41 922.381 370.64 1069.15 471.24 1085.35C542.36 1096.8 588.7 1059.97 642.27 1012.67C717.94 945.861 795.57 924.721 890.19 954.441L890.2 954.431Z" fill="white"/>
<path opacity="0.07" d="M768.13 406.35C731.22 394.84 704.86 379.23 674.7 359.32C644.54 339.41 616.19 315.66 581.89 303.77C518.29 281.73 443.53 307.78 403.32 358.98C363.1 410.18 355.69 481.67 375.93 543.82C396.17 605.97 441.57 659.01 495.96 698.03C550.35 737.05 613.49 763.05 677.67 783.39C837.25 833.96 1008.18 851.35 1173.04 828.1C1337.91 804.85 1496.35 740.43 1623.98 638.71C1665.96 605.25 1706.87 563.47 1712.22 510.82C1716.57 468.05 1695.58 424.83 1663.52 394.29C1631.47 363.76 1589.44 344.67 1546.46 332.25C1395.54 288.65 1235.18 322.09 1082.34 353.02C929.5 383.96 915.53 460.37 768.1 406.33" fill="white"/>
<path opacity="0.2" d="M678.35 1039.85H1495.66C1572.81 1038.84 1664.39 1008.4 1697.78 933.201C1732.48 856.111 1670.15 758.041 1584.63 763.741C1684.2 587.121 1465.93 396.801 1313.03 540.081C1281.04 293.271 934.67 274.051 877.88 517.071C680.51 394.031 387.96 528.061 402.49 777.071C401.62 931.771 563.96 1048.09 678.35 1039.86V1039.85Z" fill="black"/>
<path d="M592.802 285.995C633.666 285.995 666.793 252.869 666.793 212.005C666.793 171.142 633.666 138.015 592.802 138.015C551.939 138.015 518.812 171.142 518.812 212.005C518.812 252.869 551.939 285.995 592.802 285.995Z" fill="#FFE17A"/>
<path d="M555.812 276.075C520.422 255.645 508.302 210.395 528.732 175.005C549.162 139.615 594.412 127.495 629.802 147.925" fill="#FEC91B"/>
<path d="M344.002 323.025H595.412C621.452 321.895 628.292 284.475 612.682 267.505C600.712 253.515 577.372 249.935 561.412 259.655C573.862 213.085 509.162 188.425 483.842 227.375C459.512 149.725 382.122 156.145 385.022 241.325C312.062 200.555 269.522 314.995 343.992 323.025H344.002Z" fill="white"/>
<path d="M1968.57 1156.45C1925.71 1104.42 1856.88 1096.29 1784.02 1087.68C1732.12 1081.55 1678.46 1075.21 1634.57 1051.61C1632.68 1050.59 1630.76 1049.55 1628.84 1048.48C1624.34 1053.27 1619.66 1057.59 1615.18 1061.36C1542.78 1122.33 1433.29 1134.96 1348.91 1092.06C1272.51 1053.22 1223.72 978.651 1176.54 906.541C1168.99 895.001 1161.18 883.071 1153.44 871.571L1155.93 869.891C1163.68 881.411 1171.5 893.351 1179.05 904.891C1226.02 976.681 1274.59 1050.91 1350.27 1089.38C1433.6 1131.74 1541.74 1119.27 1613.25 1059.06C1617.48 1055.5 1621.89 1051.44 1626.15 1046.96C1610.36 1037.95 1594.33 1026.78 1585.23 1010.43C1574.69 991.491 1576.83 962.641 1596.77 951.541C1606.51 946.121 1618.43 946.591 1629.49 952.841C1643.77 960.901 1653.72 976.611 1654.26 991.931C1654.99 1013 1644 1031.63 1630.93 1046.2C1632.63 1047.14 1634.33 1048.06 1636 1048.96C1679.38 1072.3 1732.76 1078.6 1784.38 1084.7C1819.58 1088.86 1855.98 1093.15 1888.11 1102.9C1924.21 1113.84 1951.29 1130.74 1970.9 1154.54L1968.58 1156.45H1968.57ZM1611.39 950.741C1606.78 950.741 1602.33 951.881 1598.22 954.161C1579.83 964.401 1577.99 991.261 1587.84 1008.97C1596.7 1024.89 1612.61 1035.84 1628.23 1044.7C1641.08 1030.53 1651.95 1012.4 1651.24 992.041C1650.74 977.721 1641.4 963.021 1628 955.451C1622.45 952.311 1616.8 950.741 1611.38 950.741H1611.39Z" fill="url(#paint0_linear_41803_22910)"/>
<path d="M1440.53 1086.32L1412.31 1074.51C1408.52 1072.93 1404.09 1078.23 1405.28 1082.92L1412.53 1111.45L1386.03 1127.03C1382.3 1129.22 1381.72 1135.4 1385.11 1136.82L1415.46 1149.52C1418.85 1150.94 1422.83 1146.18 1421.76 1141.98L1414.18 1112.13L1439.51 1097.24C1443.67 1094.79 1444.32 1087.9 1440.53 1086.31V1086.32Z" fill="#FF5662"/>
<path d="M495.54 621.66C481.99 584.2 467.71 560.72 450.59 547.77C435.5 536.35 420.11 534.6 403.82 532.75C379.5 529.99 354.36 527.13 327.03 492.84L329.38 490.97C355.94 524.29 380.46 527.08 404.17 529.77C437.07 533.51 468.14 537.03 498.38 620.64L495.56 621.66H495.54Z" fill="#FF5662"/>
<path d="M124.65 250.87L262.9 262.52L331 495.19L113 389.12L124.65 250.87Z" fill="#FF5662"/>
<path d="M331 495.19L124.65 250.87L113 389.12L262.9 262.52L331 495.19Z" fill="#FF8F51"/>
<path d="M379.28 501.65L360.5 483.89C357.98 481.51 352.89 484.38 352.43 488.44L349.64 513.15L324.05 517.56C320.45 518.18 318.14 522.89 320.4 525.03L340.59 544.13C342.85 546.27 347.41 543.69 347.82 540.05L350.74 514.2L375.2 509.99C379.22 509.3 381.79 504.04 379.27 501.66L379.28 501.65Z" fill="#FF8F51"/>
<path d="M1565.43 394.76H1778.13C1800.16 393.8 1805.95 362.14 1792.74 347.79C1782.61 335.95 1762.87 332.93 1749.36 341.14C1759.89 301.74 1705.16 280.88 1683.73 313.83C1663.15 248.13 1597.67 253.56 1600.13 325.63C1538.4 291.14 1502.41 387.96 1565.42 394.75L1565.43 394.76Z" fill="#00C7FD"/>
<path d="M1492.34 358.591H1625.86C1639.69 357.991 1643.32 338.111 1635.03 329.111C1628.67 321.681 1616.28 319.781 1607.8 324.941C1614.41 300.211 1580.05 287.111 1566.61 307.801C1553.69 266.561 1512.59 269.971 1514.13 315.211C1476.11 293.541 1452.28 353.881 1492.34 358.601V358.591Z" fill="#D2F9FF"/>
<path d="M230.41 1058.77L228.14 1043.84C226.82 1035.14 219.99 1028.32 211.29 1026.99L196.36 1024.72C194.3 1024.41 194.3 1021.44 196.36 1021.12L211.29 1018.85C219.99 1017.53 226.81 1010.7 228.14 1002L230.41 987.07C230.72 985.01 233.69 985.01 234.01 987.07L236.28 1002C237.6 1010.7 244.43 1017.52 253.13 1018.85L268.06 1021.12C270.12 1021.43 270.12 1024.4 268.06 1024.72L253.13 1026.99C244.43 1028.31 237.61 1035.14 236.28 1043.84L234.01 1058.77C233.7 1060.83 230.73 1060.83 230.41 1058.77Z" fill="#005B85"/>
<path d="M336.06 1130.98L332.58 1108.08C330.55 1094.74 320.08 1084.27 306.74 1082.24L283.84 1078.76C280.68 1078.28 280.68 1073.72 283.84 1073.24L306.74 1069.76C320.08 1067.73 330.55 1057.26 332.58 1043.92L336.06 1021.02C336.54 1017.86 341.1 1017.86 341.58 1021.02L345.06 1043.92C347.09 1057.26 357.56 1067.73 370.9 1069.76L393.8 1073.24C396.96 1073.72 396.96 1078.28 393.8 1078.76L370.9 1082.24C357.56 1084.27 347.09 1094.74 345.06 1108.08L341.58 1130.98C341.1 1134.14 336.54 1134.14 336.06 1130.98Z" fill="#6DDCFF"/>
<path d="M1261.63 1136.66C1267.21 1136.66 1271.73 1132.14 1271.73 1126.56C1271.73 1120.98 1267.21 1116.46 1261.63 1116.46C1256.05 1116.46 1251.53 1120.98 1251.53 1126.56C1251.53 1132.14 1256.05 1136.66 1261.63 1136.66Z" fill="#0095CA"/>
<path d="M1703.88 771.761C1709.46 771.761 1713.98 767.239 1713.98 761.661C1713.98 756.082 1709.46 751.561 1703.88 751.561C1698.3 751.561 1693.78 756.082 1693.78 761.661C1693.78 767.239 1698.3 771.761 1703.88 771.761Z" fill="#FF5662"/>
<path d="M495.98 1063.43C501.558 1063.43 506.08 1058.91 506.08 1053.33C506.08 1047.75 501.558 1043.23 495.98 1043.23C490.402 1043.23 485.88 1047.75 485.88 1053.33C485.88 1058.91 490.402 1063.43 495.98 1063.43Z" fill="#FF5662"/>
<path d="M335.97 665.1C341.548 665.1 346.07 660.579 346.07 655C346.07 649.422 341.548 644.9 335.97 644.9C330.392 644.9 325.87 649.422 325.87 655C325.87 660.579 330.392 665.1 335.97 665.1Z" fill="#00C7FD"/>
<path d="M1170.45 1106.86C1181.75 1106.86 1190.91 1097.7 1190.91 1086.4C1190.91 1075.1 1181.75 1065.94 1170.45 1065.94C1159.15 1065.94 1149.99 1075.1 1149.99 1086.4C1149.99 1097.7 1159.15 1106.86 1170.45 1106.86Z" fill="#00C7FD"/>
<path d="M1654.13 708.72C1665.43 708.72 1674.59 699.56 1674.59 688.26C1674.59 676.961 1665.43 667.8 1654.13 667.8C1642.83 667.8 1633.67 676.961 1633.67 688.26C1633.67 699.56 1642.83 708.72 1654.13 708.72Z" fill="#00C7FD"/>
<path d="M668.93 990.76H1443.74C1516.03 989.79 1603.2 962.62 1635.35 892.93C1668.61 820.62 1607.53 732.02 1528.09 737.48C1623.21 571.11 1411.41 402.51 1270.61 532.32C1240.17 305.49 911.47 288.8 858.09 511.21C675.09 399.87 394.6 517.14 407.41 749.7C406.84 894.61 564.38 998.65 668.92 990.75L668.93 990.76Z" fill="#6DDCFF"/>
<path d="M536.85 873.411C500.94 834.431 446.7 825.291 404.04 851.011C382.05 864.271 364.03 885.191 364.03 921.661C364.03 955.121 393.38 977.201 418.81 985.721C472.69 1003.76 589.45 990.761 670.29 990.761L536.84 873.411H536.85Z" fill="#005B85"/>
<mask id="mask0_41803_22910" style="mask-type:luminance" maskUnits="userSpaceOnUse" x="406" y="353" width="1239" height="639">
<path d="M668.93 990.76H1443.74C1516.03 989.79 1603.2 962.62 1635.35 892.93C1668.61 820.62 1607.53 732.02 1528.09 737.48C1623.21 571.11 1411.41 402.51 1270.61 532.32C1240.17 305.49 911.47 288.8 858.09 511.21C675.09 399.87 394.6 517.14 407.41 749.7C406.84 894.61 564.38 998.65 668.92 990.75L668.93 990.76Z" fill="white"/>
</mask>
<g mask="url(#mask0_41803_22910)">
<mask id="mask1_41803_22910" style="mask-type:luminance" maskUnits="userSpaceOnUse" x="333" y="458" width="985" height="688">
<path d="M344.46 890.111C301.28 730.811 391.44 546.431 543.69 482.701C695.94 418.971 890.57 484.141 973.74 626.701C1044.58 583.591 1143.36 593.111 1204.67 648.951C1265.98 704.791 1284.65 802.251 1248.33 876.801C1274.82 865.641 1307.21 886.181 1314.92 913.871C1322.63 941.561 1310.23 971.781 1290.28 992.471C1270.33 1013.16 1243.82 1026.06 1217.62 1037.87C1132.47 1076.26 1044.17 1107.64 953.9 1131.61C888.68 1148.92 808.46 1158.23 763.48 1107.92L344.46 890.111Z" fill="white"/>
</mask>
<g mask="url(#mask1_41803_22910)">
<path d="M667.17 993.43H1447.25C1486.29 993.43 1525 985.33 1560.42 968.92C1595.34 952.74 1625.16 929.78 1640.17 894.94C1655.12 860.22 1650.94 817.931 1629.47 786.821C1608 755.701 1569.95 736.781 1532.18 738.441C1573.8 669.711 1556.22 571.261 1493.38 521.191C1430.54 471.121 1330.65 475.971 1272.95 531.891C1260.49 434.631 1172.1 352.731 1074.17 347.721C976.24 342.711 879.95 415.151 857.62 510.631C762.18 455.011 637.35 453.841 540.88 507.651C444.41 561.471 406.68 640.311 403.87 750.741C402.4 808.701 442.84 893.23 504.22 939.73C576.14 994.22 667.17 993.43 667.17 993.43Z" fill="#00C7FD"/>
</g>
<path opacity="0.16" d="M1518.24 1134.89C1557.6 1112.05 1604.52 1101.33 1649.73 1088.27C1722.64 1067.2 1793.97 1038.45 1843.12 985.251C1892.28 932.051 1916 850.211 1886.66 768.571C1857.33 686.931 1765.81 613.791 1688.13 623.401C1600.52 634.241 1566.68 733.841 1485.31 759.351C1440.43 773.421 1386.89 763.141 1335.85 757.431C1259.71 748.901 1183.21 751.151 1120.06 778.941C1056.92 806.731 1008.59 862.991 1003.84 936.151C999.09 1009.31 1045.08 1098.08 1118.2 1137.21C1144.14 1151.09 1174.3 1160.17 1192.53 1183.92C1216.72 1215.44 1206.17 1254.51 1189.07 1281.45C1171.97 1308.39 1148.91 1334.3 1152.03 1369.9C1165.17 1520.17 1365.41 1453.02 1416.84 1410.46C1453.2 1380.37 1451.71 1338.81 1447.29 1288.43C1441.06 1217.26 1461.62 1167.74 1518.23 1134.9L1518.24 1134.89Z" fill="#005B85"/>
<path d="M721.25 774.071H546.29V777.071H721.25V774.071Z" fill="white"/>
<path d="M876.67 927.83H648.06V924.83H876.67C879.05 924.83 880.98 922.9 880.98 920.52V669.96H883.98V920.52C883.98 924.55 880.7 927.83 876.67 927.83Z" fill="white"/>
<path d="M533.81 790.791C525.41 790.791 518.59 783.961 518.59 775.571C518.59 767.181 525.42 760.351 533.81 760.351C542.2 760.351 549.03 767.181 549.03 775.571C549.03 783.961 542.2 790.791 533.81 790.791ZM533.81 763.341C527.07 763.341 521.59 768.821 521.59 775.561C521.59 782.301 527.07 787.781 533.81 787.781C540.55 787.781 546.03 782.301 546.03 775.561C546.03 768.821 540.55 763.341 533.81 763.341Z" fill="white"/>
<path d="M634.34 651.34C625.94 651.34 619.12 644.51 619.12 636.12C619.12 627.73 625.95 620.9 634.34 620.9C642.73 620.9 649.56 627.73 649.56 636.12C649.56 644.51 642.73 651.34 634.34 651.34ZM634.34 623.89C627.6 623.89 622.12 629.37 622.12 636.11C622.12 642.85 627.6 648.33 634.34 648.33C641.08 648.33 646.56 642.85 646.56 636.11C646.56 629.37 641.08 623.89 634.34 623.89Z" fill="white"/>
<path d="M634.85 941.581C626.45 941.581 619.62 934.751 619.62 926.361C619.62 917.971 626.45 911.141 634.85 911.141C643.25 911.141 650.07 917.971 650.07 926.361C650.07 934.751 643.24 941.581 634.85 941.581ZM634.85 914.131C628.11 914.131 622.62 919.611 622.62 926.351C622.62 933.091 628.1 938.571 634.85 938.571C641.6 938.571 647.07 933.091 647.07 926.351C647.07 919.611 641.59 914.131 634.85 914.131Z" fill="white"/>
<path d="M721.04 585.841C710.26 585.841 701.5 577.071 701.5 566.301C701.5 555.531 710.27 546.761 721.04 546.761C731.81 546.761 740.58 555.531 740.58 566.301C740.58 577.071 731.81 585.841 721.04 585.841ZM721.04 549.761C711.92 549.761 704.5 557.181 704.5 566.301C704.5 575.421 711.92 582.841 721.04 582.841C730.16 582.841 737.58 575.421 737.58 566.301C737.58 557.181 730.16 549.761 721.04 549.761Z" fill="white"/>
<path d="M882.45 671.471C871.67 671.471 862.91 662.701 862.91 651.931C862.91 641.161 871.68 632.391 882.45 632.391C893.22 632.391 901.99 641.161 901.99 651.931C901.99 662.701 893.22 671.471 882.45 671.471ZM882.45 635.391C873.33 635.391 865.91 642.811 865.91 651.931C865.91 661.051 873.33 668.471 882.45 668.471C891.57 668.471 898.99 661.051 898.99 651.931C898.99 642.811 891.57 635.391 882.45 635.391Z" fill="white"/>
<path d="M722.54 584.341H719.54V992.421H722.54V584.341Z" fill="white"/>
<path d="M719.51 690.651H640.14C636.11 690.651 632.83 687.371 632.83 683.341V650.011H635.83V683.341C635.83 685.721 637.76 687.651 640.14 687.651H719.51V690.651Z" fill="white"/>
<path d="M796.63 798.67C788.23 798.67 781.41 791.841 781.41 783.451C781.41 775.061 788.24 768.23 796.63 768.23C805.02 768.23 811.85 775.061 811.85 783.451C811.85 791.841 805.02 798.67 796.63 798.67ZM796.63 771.22C789.89 771.22 784.41 776.7 784.41 783.44C784.41 790.18 789.89 795.66 796.63 795.66C803.37 795.66 808.85 790.18 808.85 783.44C808.85 776.7 803.37 771.22 796.63 771.22Z" fill="white"/>
<path d="M967.45 724.451C959.05 724.451 952.23 717.621 952.23 709.231C952.23 700.841 959.06 694.011 967.45 694.011C975.84 694.011 982.67 700.841 982.67 709.231C982.67 717.621 975.84 724.451 967.45 724.451ZM967.45 697.001C960.71 697.001 955.23 702.481 955.23 709.221C955.23 715.961 960.71 721.441 967.45 721.441C974.19 721.441 979.67 715.961 979.67 709.221C979.67 702.481 974.19 697.001 967.45 697.001Z" fill="white"/>
<path d="M881.81 837.981H802.44C798.41 837.981 795.13 834.701 795.13 830.671V797.341H798.13V830.671C798.13 833.051 800.06 834.981 802.44 834.981H881.81V837.981Z" fill="white"/>
<path d="M961.56 782.041H881.72V779.041H961.56C963.94 779.041 965.87 777.111 965.87 774.731V723.881H968.87V774.731C968.87 778.761 965.59 782.041 961.56 782.041Z" fill="white"/>
<path opacity="0.5" d="M1387.5 543.75C1382.74 567.02 1410.79 576.01 1427.72 583.38C1445.33 592.09 1459.51 607.53 1466.7 625.82C1492.1 690.52 1514.43 613.22 1494.15 571.75C1473.78 530.1 1398.95 502.43 1387.51 543.75H1387.5Z" fill="#D2F9FF"/>
</g>
<path d="M1052.68 284.99L1012.71 325.8L1034.83 344.75L1071.28 299.33L1052.68 284.99Z" fill="#FFC599"/>
<path d="M1053.13 244.59C1073.6 223.7 1105.69 221.93 1124.81 240.64C1140.06 255.56 1141.14 272.26 1127.91 291.73C1124.55 296.67 1120.28 301.78 1115.08 307.09C1094.61 327.98 1068.8 348.01 1062.31 322.07C1050.05 273.12 1032.67 265.5 1053.14 244.61L1053.13 244.59Z" fill="#FFC599"/>
<path d="M1124.69 286.14L1119.11 314.83C1118.64 317.23 1116.06 318.56 1113.84 317.56L1106.32 314.18L1124.7 286.14H1124.69Z" fill="#FFC599"/>
<path d="M1036.72 286.11C1037.67 275.6 1026.66 272.15 1027.14 261.6C1027.56 252.54 1034.15 253.94 1032.49 237.45C1032.01 232.62 1034.12 227.89 1037.74 224.66C1038.7 223.8 1039.4 223.18 1039.48 223.12C1045.57 218.74 1045.68 209.94 1048.25 202.89C1051.62 193.66 1060.37 186.63 1070.11 185.32C1079.71 184.04 1087.56 186.76 1096.47 190.56C1106.28 194.75 1111.33 195.49 1121.14 199.67C1127.48 202.38 1134.28 205.49 1137.59 211.54C1142.05 219.69 1138.9 231.07 1145.1 237.99C1147.89 241.11 1152.24 242.07 1155.31 245.25C1155.33 245.27 1155.35 245.29 1155.36 245.3C1171.26 261.91 1155.46 278.03 1142 276.65C1139.34 276.32 1137.06 274.82 1131.87 274.27C1104.08 271.36 1100.54 229.47 1089.74 261.28C1080.97 287.11 1047.99 301.25 1043.26 297.81C1042.04 296.93 1039.96 298.31 1039.51 298.41C1035.96 299.18 1036.45 289.01 1036.72 286.08V286.11Z" fill="#005B85"/>
<path d="M1070.03 263.75C1065.09 270.56 1069.36 281.74 1073.71 284.9C1078.06 288.06 1082.16 280.21 1085.8 275.2C1089.44 270.19 1088.85 263.57 1084.5 260.41C1080.15 257.25 1073.67 258.75 1070.03 263.76V263.75Z" fill="#FFC599"/>
<path d="M1274.54 822.17L1294.88 811.3L1287.11 748.22L1261.44 761.94L1274.54 822.17Z" fill="#DD9F76"/>
<path d="M1367.11 847.16C1364.57 843.5 1353.15 839.63 1348.04 837.43C1344.42 835.88 1340.51 833.83 1337.31 831.54C1330.2 826.44 1308.99 811.73 1308.99 811.73C1305.12 808.36 1299.98 806.81 1294.89 807.47C1292.96 807.72 1291.13 807.93 1290.04 808.01C1281.38 808.61 1277.02 805.68 1270.77 799.65C1269.17 798.1 1266.48 798.94 1266.05 801.13L1258.72 824.46C1257.42 828.6 1259.97 832.17 1264.2 833.87C1283.67 841.7 1340.25 854.69 1361.22 855.56C1366.49 855.78 1369.93 851.22 1367.11 847.16Z" fill="#005B85"/>
<path d="M1197.83 609.36C1216.07 658.31 1225.59 693.97 1239.95 747.68C1243.21 759.86 1249.82 771.91 1256.61 779.63C1267.41 791.9 1279.15 781.42 1295.16 775.8C1301.77 773.48 1316.15 766.37 1313.58 759.86C1297.36 718.84 1284.67 649.79 1259.86 584.53L1197.84 609.36H1197.83Z" fill="#E96115"/>
<path d="M1186.33 550.47C1175.14 533.82 1147.03 513.56 1128.97 503.43C1109.28 492.38 1068.52 471.49 1046.1 463.8C1039.06 461.39 1022.99 474.75 1025.98 486.13C1027.95 493.63 1078.73 508.93 1088.72 512.73C1107.7 519.95 1115.71 518.72 1130.12 526.97C1134 529.19 1137.2 532.42 1139.42 536.3L1143.98 544.26C1145.99 547.77 1149.16 550.48 1152.94 551.91L1164.26 556.22L1170.09 558.44L1186.32 550.47H1186.33Z" fill="#DD9F76"/>
<path d="M1213.82 834.5L1236.1 840.45L1245.56 781.6L1214.18 773.22L1213.82 834.5Z" fill="#FFC599"/>
<path d="M1313.77 880.431C1311.2 876.381 1299.07 871.701 1293.66 869.111C1289.83 867.271 1285.71 864.901 1282.36 862.291C1274.93 856.481 1252.73 839.701 1252.73 839.701C1248.71 835.891 1243.25 834.011 1237.73 834.481C1235.64 834.661 1233.66 834.811 1232.48 834.841C1223.13 835.101 1218.56 831.751 1212.1 824.981C1210.44 823.241 1207.51 824.031 1206.96 826.371L1198.03 851.181C1196.45 855.581 1199.04 859.541 1203.51 861.561C1224.13 870.861 1284.5 887.361 1307.05 889.231C1312.72 889.701 1316.63 884.951 1313.77 880.451V880.431Z" fill="#005B85"/>
<path d="M1261.77 601.19C1261.53 597.33 1259.58 579.69 1257.73 574.31C1252.38 558.72 1239.3 552.3 1223.2 548.75C1207.1 545.2 1177.71 559.41 1161.33 561.28C1132.38 564.58 1077.77 562.18 1048.82 565.48C1008.04 570.13 985.69 566.24 956.64 595.24C966.52 665.9 1071.28 636.5 1174.51 619.37L1191.06 615.92C1197.45 663.02 1195.61 708.12 1191.3 760.53C1190.21 773.74 1192.33 788.01 1196.09 798.07C1202.06 814.06 1226.07 803.28 1243.04 803.45C1250.05 803.52 1264.77 801.57 1265.78 794.28C1276.3 718.99 1269.83 684.01 1261.77 601.19Z" fill="#FF8F51"/>
<path d="M956.63 417.33C949.53 490.67 960.58 507.58 955.35 553.31L945.72 593.58C945.72 612.4 963.2 590.46 983.25 589.61C1025.18 587.82 1067.21 580.21 1074.64 561.93C1082.62 542.3 1061.15 543.12 1058.46 532.53C1054.25 515.94 1048.52 497.75 1048.96 485.34C1048.96 485.34 1044.41 442.65 1048.7 411.49C1052.49 384 1063.82 338.35 1029.46 325.9C1029.46 325.9 1021.37 323.26 1014.08 322.6C984.11 319.87 959.29 389.76 956.62 417.33H956.63Z" fill="#0095CA"/>
<path d="M1151.88 552.661L1141.98 527.801C1141.69 527.081 1141.22 526.451 1140.6 525.981C1124.44 513.961 1092.3 503.801 1072.38 499.881C1053.96 496.251 1017.78 486.631 993.98 486.691L995.65 479.801C998.71 468.711 1000.03 464.531 1001.8 459.201C1006.32 445.591 1018.21 411.951 1025.37 397.511C1027.5 393.221 1028.41 388.401 1027.71 383.661C1025.33 367.761 1014.1 358.551 1004.38 364.861C998.06 368.961 997.49 369.371 993.1 375.121C979.05 392.431 961.45 457.071 960.85 479.361C960.54 490.841 959.68 509.871 969.36 516.061C969.78 516.331 970.23 516.561 970.69 516.781C980.5 521.881 1027.1 520.801 1037.04 521.261C1060.03 522.331 1066.25 517.481 1087.88 523.631L1099.38 533.991C1102.39 536.701 1106.24 538.281 1110.28 538.471L1122.38 539.031L1128.62 539.321C1132.54 539.501 1136.15 541.491 1138.4 544.711L1146.22 555.891C1146.99 556.991 1148.37 557.531 1149.74 557.181C1151.7 556.681 1152.64 554.541 1151.89 552.651L1151.88 552.661ZM982.11 403.691C982.11 403.841 982.1 404.111 982.08 404.421C982.09 404.051 982.1 403.811 982.11 403.691Z" fill="#FFC599"/>
<path d="M986.3 362.531C987.87 356.911 990.02 350.851 992.99 345.311C993.68 343.701 994.39 342.101 995.21 340.551C1001.81 328.161 1014.44 317.821 1031.9 325.311C1035.04 326.661 1037.94 328.551 1040.42 330.901C1048.38 338.471 1049 346.331 1046.7 356.721C1044.28 367.651 1041.56 372.671 1034.89 388.861C1032.01 396.561 1029.13 404.271 1026.24 411.971C1025.07 415.091 1021.81 416.901 1018.55 416.231C1013.79 415.241 1008.71 413.731 1004.42 411.281C998.98 408.161 995.62 402.161 990.18 399.041C984.09 395.551 976.1 393.591 971.88 388.181C970.19 386.011 971.2 382.791 973.78 381.831C976.49 380.831 978.93 378.931 980.75 376.651C981.57 375.631 982.26 374.521 982.9 373.381C984.28 369.241 985.44 365.561 986.3 362.521V362.531Z" fill="#00C7FD"/>
<path d="M1151.52 560.36H1063.5L1064.81 557.14C1065.26 556.05 1066.11 555.37 1067.04 555.37H1151.52V560.36Z" fill="#00C7FD"/>
<path d="M1143.68 564.82L1222.31 564.77L1249.16 447.19H1175.32C1172.25 447.19 1169.6 449.32 1168.92 452.31L1143.68 564.82Z" fill="#0095CA"/>
<path d="M1249.16 447.18H1176.51L1151.62 558.12H1064.41L1062.5 562.78C1062.12 563.7 1062.62 564.83 1063.4 564.83H1160.26L1224.75 564.82C1226.82 564.82 1228.62 563.38 1229.07 561.36L1253.48 452.58C1254.1 449.81 1252 447.18 1249.16 447.18Z" fill="#005B85"/>
<path d="M1186.75 666.211V634.651C1125.33 591.801 1038.03 587.571 973.74 626.691C956.59 597.301 934.7 571.211 909.43 548.851V666.211H1186.75Z" fill="#00C7FD"/>
</g>
<defs>
<linearGradient id="paint0_linear_41803_22910" x1="1183.26" y1="1069.87" x2="1941.24" y2="956.186" gradientUnits="userSpaceOnUse">
<stop stop-color="#FF5662"/>
<stop offset="0.37" stop-color="#FF5662" stop-opacity="0.99"/>
<stop offset="0.5" stop-color="#FF5662" stop-opacity="0.97"/>
<stop offset="0.6" stop-color="#FF5662" stop-opacity="0.92"/>
<stop offset="0.68" stop-color="#FF5662" stop-opacity="0.85"/>
<stop offset="0.74" stop-color="#FF5662" stop-opacity="0.77"/>
<stop offset="0.8" stop-color="#FF5662" stop-opacity="0.66"/>
<stop offset="0.86" stop-color="#FF5662" stop-opacity="0.53"/>
<stop offset="0.91" stop-color="#FF5662" stop-opacity="0.38"/>
<stop offset="0.95" stop-color="#FF5662" stop-opacity="0.21"/>
<stop offset="0.99" stop-color="#FF5662" stop-opacity="0.03"/>
<stop offset="1" stop-color="#FF5662" stop-opacity="0"/>
</linearGradient>
<clipPath id="clip0_41803_22910">
<rect width="2000" height="1200" fill="white"/>
</clipPath>
</defs>
</svg>
