<svg width="2000" height="1200" viewBox="0 0 2000 1200" fill="none" xmlns="http://www.w3.org/2000/svg">
<g clip-path="url(#clip0_41803_22649)">
<path opacity="0.2" d="M1610.67 1003C1193.87 967.105 852.975 980.005 435.075 1012.5C420.575 1013.6 406.475 1018.7 394.775 1027.4C382.075 1036.9 374.475 1049 377.275 1061.2C381.875 1081.7 413.775 1095.2 445.075 1097.3C476.375 1099.4 507.675 1093.2 538.475 1088.4C883.975 1034.7 1261.57 1174.9 1598.17 1069.2C1616.07 1063.5 1634.17 1056.6 1645.37 1045.8C1672.77 1014.3 1637.77 1005.7 1610.67 1003Z" fill="black"/>
<path opacity="0.08" d="M921.175 829.205C1074.97 871.405 1216.77 980.305 1382.17 971.005C1598.57 980.905 1776.77 707.405 1585.27 556.305C1489.77 494.405 1359.77 547.005 1255.97 501.905C1198.77 477.005 1156.87 425.705 1112.97 380.005C1047.47 311.805 971.175 252.005 882.875 223.405C701.775 149.205 463.475 305.405 531.275 508.905C542.875 540.905 537.375 547.805 534.375 558.705C522.475 602.405 470.775 611.405 427.875 619.205C86.1749 659.005 388.575 956.805 553.875 968.305C618.475 973.505 657.575 939.005 702.575 895.105C765.975 833.005 834.175 809.905 921.175 829.205Z" fill="white"/>
<path opacity="0.05" d="M711.475 432.605C672.375 427.505 643.075 415.905 609.275 400.405C310.475 226.305 190.875 659.905 488.875 800.005C869.675 958.105 1351.48 833.905 1613.18 514.405C1649.58 470.105 1683.38 417.105 1679.48 359.405C1619.28 78.1046 1194.78 229.405 1018.18 313.405C869.975 376.805 869.275 461.805 711.475 432.605Z" fill="white"/>
<path d="M829.175 258.205C817.675 255.005 806.175 250.905 796.975 243.305C787.775 235.705 781.175 224.205 782.275 212.305C783.475 199.405 793.775 188.505 805.775 183.705C817.875 178.905 831.375 179.205 844.175 181.405C889.975 189.205 936.475 222.905 952.175 267.605C911.175 264.405 870.675 269.805 829.175 258.205Z" fill="#FF8F51"/>
<path d="M987.075 377.005C970.775 377.305 953.775 378.105 939.675 386.205C925.575 394.305 915.675 412.005 921.775 427.105C927.875 442.305 947.775 448.105 963.475 443.405C979.175 438.705 991.175 426.105 1001.27 413.205C1023.97 383.905 1023.58 376.405 987.075 377.005Z" fill="#FF8F51"/>
<path d="M945.975 180.905C930.175 171.405 912.475 158.705 912.575 140.305C912.775 120.805 932.675 108.305 950.075 99.7047C966.375 91.6047 987.975 84.1047 1000.98 96.8047C1010.18 105.705 1009.98 120.205 1009.08 133.005C1008.18 146.505 1012.28 200.705 1000.88 207.905C989.475 215.105 956.375 186.605 945.975 180.905Z" fill="#FF8F51"/>
<path d="M1102.18 220.005C1111.18 211.905 1118.78 200.505 1116.98 188.505C1114.98 174.905 1100.68 165.305 1086.88 165.805C1073.08 166.205 1060.68 174.805 1052.28 185.705C1040.08 201.705 1029.38 243.605 1046.78 260.405C1059.28 272.405 1060.98 260.405 1068.78 250.805C1078.78 238.505 1090.38 230.605 1102.18 220.005Z" fill="#FF8F51"/>
<path d="M1114.97 765.104C1114.87 765.104 1114.87 765.104 1114.77 765.104C1114.27 765.104 1113.87 764.604 1113.97 764.104C1124.67 654.004 1118.57 557.504 1095.77 477.304C1077.57 413.204 1048.78 359.404 1010.08 317.304C975.675 279.804 939.775 258.804 915.675 247.704C889.575 235.704 871.275 232.504 871.175 232.504C870.675 232.404 870.375 231.904 870.375 231.404C870.475 230.904 870.975 230.604 871.475 230.604C871.675 230.604 890.075 233.804 916.375 245.904C940.675 257.004 976.775 278.204 1011.38 315.804C1050.28 358.104 1079.17 412.204 1097.47 476.604C1120.27 557.004 1126.47 653.704 1115.77 764.204C1115.77 764.704 1115.37 765.104 1114.97 765.104Z" fill="#A0EBFF"/>
<path d="M949.975 414.505C949.475 414.605 949.075 414.205 948.975 413.705C948.875 413.205 949.275 412.705 949.775 412.705C983.775 408.105 1006.97 396.305 1018.87 377.605C1028.47 362.605 1028.07 347.105 1027.87 339.705C1027.87 338.905 1027.87 338.205 1027.87 337.605C1027.57 286.205 1011.07 236.705 997.275 204.205C981.675 167.505 965.375 142.405 962.175 138.505C961.875 138.105 961.875 137.505 962.275 137.205C962.675 136.905 963.275 136.905 963.575 137.305C966.775 141.205 983.275 166.605 998.975 203.405C1012.87 236.005 1029.47 285.805 1029.77 337.505C1029.77 338.105 1029.77 338.805 1029.77 339.505C1029.97 347.105 1030.37 362.905 1020.47 378.405C1008.17 397.705 984.475 409.805 949.975 414.505Z" fill="#A0EBFF"/>
<path d="M1031.18 301.605C1029.58 301.805 1027.98 301.705 1026.18 301.405C1025.68 301.305 1025.38 300.804 1025.48 300.304C1025.58 299.804 1026.08 299.505 1026.58 299.605C1044.18 302.905 1049.48 276.005 1054.58 250.105C1058.78 229.105 1062.68 209.305 1072.68 202.505C1073.08 202.205 1073.68 202.305 1073.98 202.705C1074.28 203.105 1074.18 203.705 1073.78 204.005C1064.38 210.405 1060.38 230.705 1056.48 250.405C1051.58 274.805 1046.58 299.905 1031.18 301.605Z" fill="#A0EBFF"/>
<path d="M363.775 244.105L345.375 225.705C344.275 224.605 344.275 222.805 345.375 221.805L363.775 203.405C364.875 202.305 366.675 202.305 367.675 203.405L386.075 221.805C387.175 222.905 387.175 224.705 386.075 225.705L367.675 244.105C366.575 245.205 364.875 245.205 363.775 244.105Z" fill="#00C7FD"/>
<path d="M1597.58 368.404L1579.18 350.004C1578.08 348.904 1578.08 347.104 1579.18 346.104L1597.58 327.704C1598.68 326.604 1600.48 326.604 1601.48 327.704L1619.88 346.104C1620.98 347.204 1620.98 349.004 1619.88 350.004L1601.48 368.404C1600.48 369.504 1598.68 369.504 1597.58 368.404Z" fill="#0095CA"/>
<path d="M322.375 176.405L311.075 165.005C310.575 164.505 310.575 163.605 311.075 163.105L322.475 151.705C322.975 151.205 323.875 151.205 324.375 151.705L335.775 163.105C336.275 163.605 336.275 164.505 335.775 165.005L324.375 176.405C323.775 176.905 322.975 176.905 322.375 176.405Z" fill="#005B85"/>
<path d="M240.775 309.005L229.375 297.605C228.875 297.105 228.875 296.205 229.375 295.705L240.775 284.305C241.275 283.805 242.175 283.805 242.675 284.305L254.075 295.705C254.575 296.205 254.575 297.105 254.075 297.605L242.675 309.005C242.075 309.605 241.275 309.605 240.775 309.005Z" fill="#6DDCFF"/>
<path d="M1550.57 284.105L1539.17 272.705C1538.67 272.205 1538.67 271.305 1539.17 270.805L1550.57 259.405C1551.07 258.905 1551.97 258.905 1552.47 259.405L1563.87 270.805C1564.37 271.305 1564.37 272.205 1563.87 272.705L1552.47 284.105C1551.97 284.605 1551.17 284.605 1550.57 284.105Z" fill="#FF5662"/>
<path d="M827.375 663.805H545.475C520.575 663.805 500.475 643.605 500.475 618.805V350.505C500.475 325.605 520.675 305.505 545.475 305.505H827.375C852.275 305.505 872.375 325.705 872.375 350.505V618.905C872.475 643.705 852.275 663.805 827.375 663.805Z" fill="#005B85"/>
<path d="M827.375 1022.2H545.475C520.575 1022.2 500.475 1002 500.475 977.205V708.905C500.475 684.005 520.675 663.905 545.475 663.905H827.375C852.275 663.905 872.375 684.105 872.375 708.905V977.305C872.475 1002.1 852.275 1022.2 827.375 1022.2Z" fill="#6DDCFF"/>
<path d="M811.075 838.805H561.875C554.475 838.805 548.375 832.805 548.375 825.305C548.375 817.905 554.375 811.805 561.875 811.805H811.075C818.475 811.805 824.575 817.805 824.575 825.305C824.575 832.805 818.475 838.805 811.075 838.805Z" fill="#00C7FD"/>
<path d="M811.075 893.805H561.875C554.475 893.805 548.375 887.805 548.375 880.305C548.375 872.905 554.375 866.805 561.875 866.805H811.075C818.475 866.805 824.575 872.805 824.575 880.305C824.575 887.705 818.475 893.805 811.075 893.805Z" fill="#00C7FD"/>
<path d="M707.675 974.105C715.352 974.105 721.575 967.881 721.575 960.205C721.575 952.528 715.352 946.305 707.675 946.305C699.998 946.305 693.775 952.528 693.775 960.205C693.775 967.881 699.998 974.105 707.675 974.105Z" fill="#D2F9FF"/>
<path d="M759.075 974.105C766.752 974.105 772.975 967.881 772.975 960.205C772.975 952.528 766.752 946.305 759.075 946.305C751.398 946.305 745.175 952.528 745.175 960.205C745.175 967.881 751.398 974.105 759.075 974.105Z" fill="#D2F9FF"/>
<path d="M810.575 974.105C818.252 974.105 824.475 967.881 824.475 960.205C824.475 952.528 818.252 946.305 810.575 946.305C802.898 946.305 796.675 952.528 796.675 960.205C796.675 967.881 802.898 974.105 810.575 974.105Z" fill="#FF5662"/>
<path d="M1494.87 756.405L1494.47 753.905C1511.07 751.205 1520.97 732.305 1522.07 715.105C1522.67 706.405 1521.77 697.505 1520.87 688.905C1519.97 680.105 1519.07 671.105 1519.67 662.105C1520.17 654.905 1523.07 644.805 1527.17 636.005C1523.47 635.805 1519.97 635.005 1517.47 633.705C1507.07 628.305 1499.97 616.605 1497.77 601.605C1494.77 580.605 1501.57 559.305 1508.77 539.405L1509.77 536.505C1516.57 517.805 1523.57 498.505 1522.77 478.705C1522.07 459.805 1511.67 436.705 1490.67 430.805L1491.37 428.405C1501.17 431.205 1509.67 437.805 1515.87 447.705C1521.47 456.605 1524.87 467.605 1525.27 478.605C1526.07 498.905 1518.97 518.505 1512.07 537.405L1511.07 540.305C1503.97 560.005 1497.27 580.905 1500.17 601.305C1503.07 621.405 1513.97 629.105 1518.57 631.505C1521.17 632.805 1524.67 633.505 1528.37 633.605C1532.27 626.105 1536.97 620.105 1541.77 618.505C1544.07 617.805 1547.47 617.705 1550.77 621.505C1552.97 624.105 1553.07 626.805 1551.17 629.205C1547.77 633.405 1538.57 635.905 1530.07 636.005C1529.87 636.405 1529.67 636.905 1529.47 637.305C1525.57 645.605 1522.77 655.305 1522.37 662.105C1521.77 670.905 1522.67 679.805 1523.57 688.505C1524.47 697.205 1525.37 706.205 1524.77 715.105C1523.37 733.505 1512.77 753.505 1494.87 756.405ZM1544.07 620.605C1543.57 620.605 1542.97 620.705 1542.37 620.905C1538.87 622.105 1534.87 626.605 1531.07 633.605C1538.67 633.305 1546.37 630.905 1548.97 627.705C1549.67 626.805 1550.47 625.305 1548.67 623.105C1547.27 621.405 1545.77 620.605 1544.07 620.605Z" fill="#FFE17A"/>
<path d="M1457.47 1022.2H1289.27C1264.37 1022.2 1244.27 1002 1244.27 977.205V350.505C1244.27 325.605 1264.47 305.505 1289.27 305.505H1457.47C1482.37 305.505 1502.47 325.705 1502.47 350.505V977.305C1502.47 1002.1 1482.37 1022.2 1457.47 1022.2Z" fill="#6DDCFF"/>
<path d="M1427.38 975.405H1319.38C1303.38 975.405 1290.48 962.505 1290.48 946.505V771.105C1290.48 755.105 1303.38 742.205 1319.38 742.205H1427.38C1443.38 742.205 1456.28 755.105 1456.28 771.105V946.505C1456.38 962.505 1443.38 975.405 1427.38 975.405Z" fill="#00C7FD"/>
<path d="M1425.38 399.705H1321.48C1314.08 399.705 1307.98 393.705 1307.98 386.205C1307.98 378.805 1313.98 372.705 1321.48 372.705H1425.38C1432.78 372.705 1438.88 378.705 1438.88 386.205C1438.77 393.605 1432.78 399.705 1425.38 399.705Z" fill="#00C7FD"/>
<path d="M1425.38 459.105H1321.48C1314.08 459.105 1307.98 453.105 1307.98 445.605C1307.98 438.205 1313.98 432.105 1321.48 432.105H1425.38C1432.78 432.105 1438.88 438.105 1438.88 445.605C1438.77 453.105 1432.78 459.105 1425.38 459.105Z" fill="#00C7FD"/>
<path d="M1321.88 518.905C1329.55 518.905 1335.78 512.682 1335.78 505.005C1335.78 497.328 1329.55 491.105 1321.88 491.105C1314.2 491.105 1307.98 497.328 1307.98 505.005C1307.98 512.682 1314.2 518.905 1321.88 518.905Z" fill="#D2F9FF"/>
<path d="M1373.38 518.905C1381.05 518.905 1387.28 512.682 1387.28 505.005C1387.28 497.328 1381.05 491.105 1373.38 491.105C1365.7 491.105 1359.48 497.328 1359.48 505.005C1359.48 512.682 1365.7 518.905 1373.38 518.905Z" fill="#D2F9FF"/>
<path d="M1424.88 518.905C1432.55 518.905 1438.78 512.682 1438.78 505.005C1438.78 497.328 1432.55 491.105 1424.88 491.105C1417.2 491.105 1410.98 497.328 1410.98 505.005C1410.98 512.682 1417.2 518.905 1424.88 518.905Z" fill="#00C7FD"/>
<path d="M1208.88 799.005L1207.48 797.005C1214.28 792.205 1221.98 787.305 1230.18 782.105C1258.58 764.005 1290.68 743.505 1293.78 721.205C1294.88 712.805 1291.88 704.705 1284.48 696.505C1265.88 675.805 1273.48 662.105 1281.68 647.505C1288.78 634.705 1296.18 621.505 1289.78 601.105C1280.58 572.105 1244.18 557.705 1213.18 553.905L1213.48 551.405C1245.28 555.305 1282.58 570.205 1292.18 600.405C1298.98 621.805 1290.98 636.105 1283.88 648.805C1275.88 663.205 1268.98 675.505 1286.38 694.905C1294.18 703.505 1297.48 712.505 1296.28 721.605C1293.08 745.005 1260.38 765.905 1231.58 784.305C1223.28 789.405 1215.58 794.205 1208.88 799.005Z" fill="#005B85"/>
<path d="M1247.48 942.405C1243.68 942.405 1240.18 941.105 1237.28 938.405L1238.98 936.605C1242.48 939.905 1247.28 940.705 1252.38 939.105C1260.28 936.605 1267.28 928.905 1268.88 920.905C1270.78 911.605 1268.88 902.405 1266.88 892.605C1265.88 887.805 1264.88 882.905 1264.38 878.005C1261.68 851.805 1274.58 824.605 1296.08 809.405C1286.08 791.505 1280.58 771.105 1275.28 751.305C1273.98 746.405 1272.58 741.305 1271.18 736.305C1256.48 684.805 1236.78 668.505 1223.18 660.605L1224.38 658.405C1253.48 675.205 1266.38 710.505 1273.58 735.505C1274.98 740.505 1276.38 745.605 1277.68 750.505C1282.98 770.105 1288.38 790.305 1298.18 807.905C1300.58 806.305 1303.08 804.905 1305.68 803.605C1313.08 800.005 1327.38 794.905 1340.38 801.005C1346.48 803.905 1351.38 809.805 1353.28 816.505C1354.78 822.105 1354.08 827.505 1351.28 831.705C1345.78 840.005 1334.38 841.705 1325.98 839.105C1318.48 836.805 1311.58 831.305 1304.78 822.505C1302.08 818.905 1299.58 815.205 1297.28 811.405C1276.68 826.105 1264.18 852.305 1266.78 877.605C1267.28 882.405 1268.28 887.205 1269.28 891.905C1271.28 901.505 1273.28 911.405 1271.28 921.205C1269.48 930.105 1261.78 938.505 1253.08 941.305C1251.18 942.105 1249.28 942.405 1247.48 942.405ZM1299.48 810.105C1301.68 813.905 1304.18 817.605 1306.88 821.105C1313.38 829.505 1319.88 834.705 1326.88 836.905C1334.38 839.205 1344.48 837.805 1349.28 830.505C1351.68 826.805 1352.28 822.205 1350.98 817.305C1349.28 811.305 1344.88 805.905 1339.38 803.305C1334.18 800.905 1323.08 797.905 1306.78 805.805C1304.28 807.205 1301.78 808.605 1299.48 810.105Z" fill="#FF5662"/>
<path d="M1199.38 1022.2H917.475C892.575 1022.2 872.475 1002 872.475 977.205V350.505C872.475 325.605 892.675 305.505 917.475 305.505H1199.38C1224.28 305.505 1244.38 325.705 1244.38 350.505V977.305C1244.38 1002.1 1224.28 1022.2 1199.38 1022.2Z" fill="#00C7FD"/>
<path d="M1025.08 850.905H939.575V853.905H1025.08V850.905Z" fill="white"/>
<path d="M1116.48 960.805H967.575V957.805H1116.48C1118.18 957.805 1119.58 956.405 1119.58 954.705V768.705H1122.58V954.705C1122.58 958.105 1119.78 960.805 1116.48 960.805Z" fill="white"/>
<path d="M928.675 864.705C921.875 864.705 916.275 859.205 916.275 852.305C916.275 845.505 921.775 839.905 928.675 839.905C935.575 839.905 941.075 845.405 941.075 852.305C941.075 859.205 935.575 864.705 928.675 864.705ZM928.675 843.005C923.475 843.005 919.275 847.205 919.275 852.405C919.275 857.605 923.475 861.805 928.675 861.805C933.875 861.805 938.075 857.605 938.075 852.405C938.075 847.205 933.875 843.005 928.675 843.005Z" fill="white"/>
<path d="M956.275 754.305C949.475 754.305 943.875 748.805 943.875 741.905C943.875 735.005 949.375 729.505 956.275 729.505C963.175 729.505 968.675 735.005 968.675 741.905C968.675 748.805 963.075 754.305 956.275 754.305ZM956.275 732.605C951.075 732.605 946.875 736.805 946.875 742.005C946.875 747.205 951.075 751.405 956.275 751.405C961.475 751.405 965.675 747.205 965.675 742.005C965.675 736.805 961.375 732.605 956.275 732.605Z" fill="white"/>
<path d="M956.675 971.705C949.875 971.705 944.275 966.205 944.275 959.305C944.275 952.405 949.775 946.905 956.675 946.905C963.575 946.905 969.075 952.405 969.075 959.305C969.075 966.205 963.475 971.705 956.675 971.705ZM956.675 949.905C951.475 949.905 947.275 954.105 947.275 959.305C947.275 964.505 951.475 968.705 956.675 968.705C961.875 968.705 966.075 964.505 966.075 959.305C966.075 954.105 961.875 949.905 956.675 949.905Z" fill="white"/>
<path d="M1024.88 702.405C1016.18 702.405 1009.08 695.305 1009.08 686.605C1009.08 677.905 1016.18 670.805 1024.88 670.805C1033.58 670.805 1040.68 677.905 1040.68 686.605C1040.68 695.305 1033.58 702.405 1024.88 702.405ZM1024.88 673.905C1017.78 673.905 1012.08 679.605 1012.08 686.705C1012.08 693.805 1017.78 699.505 1024.88 699.505C1031.98 699.505 1037.68 693.805 1037.68 686.705C1037.68 679.605 1031.98 673.905 1024.88 673.905Z" fill="white"/>
<path d="M1121.08 770.205C1112.38 770.205 1105.28 763.105 1105.28 754.405C1105.28 745.705 1112.38 738.604 1121.08 738.604C1129.78 738.604 1136.88 745.705 1136.88 754.405C1136.88 763.105 1129.78 770.205 1121.08 770.205ZM1121.08 741.705C1113.98 741.705 1108.28 747.405 1108.28 754.505C1108.28 761.605 1113.98 767.305 1121.08 767.305C1128.18 767.305 1133.88 761.605 1133.88 754.505C1133.88 747.405 1128.08 741.705 1121.08 741.705Z" fill="white"/>
<path d="M1026.38 700.905H1023.38V1022.2H1026.38V700.905Z" fill="white"/>
<path d="M1023.68 785.405H960.875C957.475 785.405 954.775 782.705 954.775 779.305V752.905H957.775V779.305C957.775 781.005 959.175 782.405 960.875 782.405H1023.68V785.405Z" fill="white"/>
<path d="M1070.78 871.005C1063.98 871.005 1058.38 865.505 1058.38 858.605C1058.38 851.705 1063.88 846.205 1070.78 846.205C1077.68 846.205 1083.18 851.705 1083.18 858.605C1083.18 865.505 1077.58 871.005 1070.78 871.005ZM1070.78 849.205C1065.58 849.205 1061.38 853.405 1061.38 858.605C1061.38 863.805 1065.58 868.005 1070.78 868.005C1075.98 868.005 1080.18 863.805 1080.18 858.605C1080.18 853.405 1075.88 849.205 1070.78 849.205Z" fill="white"/>
<path d="M1188.08 812.205C1181.28 812.205 1175.68 806.705 1175.68 799.805C1175.68 793.005 1181.18 787.405 1188.08 787.405C1194.98 787.405 1200.48 792.905 1200.48 799.805C1200.48 806.605 1194.88 812.205 1188.08 812.205ZM1188.08 790.505C1182.88 790.505 1178.68 794.705 1178.68 799.905C1178.68 805.105 1182.88 809.305 1188.08 809.305C1193.28 809.305 1197.48 805.105 1197.48 799.905C1197.48 794.705 1193.28 790.505 1188.08 790.505Z" fill="white"/>
<path d="M1120.28 902.104H1075.28C1071.88 902.104 1069.18 899.405 1069.18 896.005V869.604H1072.18V896.005C1072.18 897.705 1073.58 899.104 1075.28 899.104H1120.28V902.104Z" fill="white"/>
<path d="M1183.68 857.805H1120.48V854.805H1183.68C1185.38 854.805 1186.78 853.405 1186.78 851.705V811.405H1189.78V851.705C1189.78 855.105 1186.98 857.805 1183.68 857.805Z" fill="white"/>
<path d="M1244.98 484.605H871.775C860.075 484.605 850.675 475.105 850.675 463.505V367.905C850.675 356.205 860.175 346.805 871.775 346.805H1244.98C1256.68 346.805 1266.08 356.305 1266.08 367.905V463.505C1266.08 475.105 1256.68 484.605 1244.98 484.605Z" fill="#005B85"/>
<path d="M1239.48 472.405H875.475C868.675 472.405 863.075 466.905 863.075 460.005V371.705C863.075 364.905 868.575 359.305 875.475 359.305H1239.48C1246.28 359.305 1251.88 364.805 1251.88 371.705V460.005C1251.88 466.905 1246.28 472.405 1239.48 472.405Z" fill="#0095CA"/>
<path d="M1070.38 433.404C1079.99 433.404 1087.78 425.614 1087.78 416.004C1087.78 406.395 1079.99 398.604 1070.38 398.604C1060.77 398.604 1052.98 406.395 1052.98 416.004C1052.98 425.614 1060.77 433.404 1070.38 433.404Z" fill="#FFE17A"/>
<path d="M1125.28 433.404C1134.89 433.404 1142.68 425.614 1142.68 416.004C1142.68 406.395 1134.89 398.604 1125.28 398.604C1115.67 398.604 1107.88 406.395 1107.88 416.004C1107.88 425.614 1115.67 433.404 1125.28 433.404Z" fill="#FF5662"/>
<path d="M1015.28 429.404H911.375C903.975 429.404 897.875 423.404 897.875 415.904C897.875 408.504 903.875 402.404 911.375 402.404H1015.28C1022.68 402.404 1028.78 408.404 1028.78 415.904C1028.78 423.404 1022.78 429.404 1015.28 429.404Z" fill="#00C7FD"/>
<path d="M1244.98 647.405H871.775C860.075 647.405 850.675 637.904 850.675 626.304V530.704C850.675 519.004 860.175 509.604 871.775 509.604H1244.98C1256.68 509.604 1266.08 519.104 1266.08 530.704V626.304C1266.08 638.004 1256.68 647.405 1244.98 647.405Z" fill="#00C7FD"/>
<path d="M1239.48 635.305H875.475C868.675 635.305 863.075 629.805 863.075 622.905V534.605C863.075 527.805 868.575 522.205 875.475 522.205H1239.48C1246.28 522.205 1251.88 527.705 1251.88 534.605V622.905C1251.88 629.705 1246.28 635.305 1239.48 635.305Z" fill="#0095CA"/>
<path d="M907.775 607.305C903.475 607.305 899.875 603.805 899.875 599.405V557.505C899.875 553.205 903.375 549.604 907.775 549.604C912.075 549.604 915.675 553.105 915.675 557.505V599.405C915.575 603.805 912.075 607.305 907.775 607.305Z" fill="#005B85"/>
<path d="M941.175 607.305C936.875 607.305 933.275 603.805 933.275 599.405V557.505C933.275 553.205 936.775 549.604 941.175 549.604C945.475 549.604 949.075 553.105 949.075 557.505V599.405C949.075 603.805 945.575 607.305 941.175 607.305Z" fill="#005B85"/>
<path d="M974.675 607.305C970.375 607.305 966.775 603.805 966.775 599.405V557.505C966.775 553.205 970.275 549.604 974.675 549.604C978.975 549.604 982.575 553.105 982.575 557.505V599.405C982.575 603.805 979.075 607.305 974.675 607.305Z" fill="#005B85"/>
<path d="M1008.18 607.305C1003.88 607.305 1000.28 603.805 1000.28 599.405V557.505C1000.28 553.205 1003.78 549.604 1008.18 549.604C1012.48 549.604 1016.08 553.105 1016.08 557.505V599.405C1016.08 603.805 1012.48 607.305 1008.18 607.305Z" fill="#005B85"/>
<path d="M1041.68 607.305C1037.38 607.305 1033.78 603.805 1033.78 599.405V557.505C1033.78 553.205 1037.28 549.604 1041.68 549.604C1045.98 549.604 1049.58 553.105 1049.58 557.505V599.405C1049.48 603.805 1045.98 607.305 1041.68 607.305Z" fill="#005B85"/>
<path d="M1075.18 607.305C1070.88 607.305 1067.28 603.805 1067.28 599.405V557.505C1067.28 553.205 1070.78 549.604 1075.18 549.604C1079.48 549.604 1083.08 553.105 1083.08 557.505V599.405C1082.98 603.805 1079.48 607.305 1075.18 607.305Z" fill="#005B85"/>
<path d="M1108.68 607.305C1104.38 607.305 1100.78 603.805 1100.78 599.405V557.505C1100.78 553.205 1104.28 549.604 1108.68 549.604C1112.98 549.604 1116.58 553.105 1116.58 557.505V599.405C1116.48 603.805 1112.98 607.305 1108.68 607.305Z" fill="#005B85"/>
<path d="M1142.08 607.305C1137.78 607.305 1134.18 603.805 1134.18 599.405V557.505C1134.18 553.205 1137.68 549.604 1142.08 549.604C1146.38 549.604 1149.98 553.105 1149.98 557.505V599.405C1149.98 603.805 1146.48 607.305 1142.08 607.305Z" fill="#005B85"/>
<path d="M1175.58 607.305C1171.28 607.305 1167.68 603.805 1167.68 599.405V557.505C1167.68 553.205 1171.18 549.604 1175.58 549.604C1179.88 549.604 1183.48 553.105 1183.48 557.505V599.405C1183.48 603.805 1179.98 607.305 1175.58 607.305Z" fill="#005B85"/>
<path d="M1209.08 607.305C1204.78 607.305 1201.18 603.805 1201.18 599.405V557.505C1201.18 553.205 1204.68 549.604 1209.08 549.604C1213.38 549.604 1216.98 553.105 1216.98 557.505V599.405C1216.98 603.805 1213.38 607.305 1209.08 607.305Z" fill="#005B85"/>
<path d="M1697.97 944.905C1694.37 943.405 1690.47 942.405 1686.47 942.105C1678.47 941.405 1671.07 936.605 1668.47 928.905C1668.27 928.305 1668.07 927.805 1667.87 927.305C1661.67 913.105 1643.17 906.505 1628.57 911.605C1625.87 912.505 1623.37 913.805 1620.97 915.405C1616.17 918.505 1609.97 914.605 1610.47 908.905C1613.27 875.205 1605.07 840.605 1586.57 812.305C1582.07 805.305 1574.97 800.205 1566.77 798.705C1544.87 794.805 1533.67 819.005 1529.57 839.005C1527.67 848.405 1526.07 857.805 1524.87 867.305C1523.97 874.805 1514.47 877.405 1509.77 871.505C1504.47 864.905 1497.87 859.405 1489.97 856.205C1485.07 854.205 1479.87 853.005 1474.57 853.005C1447.57 853.005 1429.17 884.005 1431.97 910.805C1433.37 924.305 1438.47 936.805 1445.37 948.605C1444.67 948.305 1444.07 948.005 1443.37 947.705C1431.17 943.005 1415.77 944.005 1406.77 953.505C1397.87 963.005 1397.87 978.505 1404.07 990.005C1410.27 1001.5 1421.37 1009.5 1432.87 1015.6C1476.47 1038.5 1531.87 1037.2 1574.37 1012.2C1608.67 1039.9 1661.77 1041.1 1697.27 1015C1699.97 1013 1702.57 1010.9 1704.87 1008.5C1712.47 1002.1 1717.57 992.505 1718.17 980.505C1719.07 963.905 1710.37 949.505 1697.97 944.905Z" fill="#FFE17A"/>
<path d="M1638.37 1004.2C1634.37 998.905 1627.87 996.605 1621.37 996.705C1617.77 996.805 1614.57 994.305 1613.87 990.805C1613.67 989.805 1613.37 988.905 1612.97 987.905C1609.27 979.405 1598.27 975.505 1589.57 978.505C1589.47 978.505 1589.47 978.505 1589.37 978.605C1584.27 980.505 1578.97 976.805 1579.07 971.305C1579.47 953.005 1574.57 934.605 1564.47 919.205C1561.87 915.205 1557.87 912.205 1553.17 911.205C1539.77 908.405 1532.97 923.105 1530.47 935.105C1529.07 942.105 1527.97 949.105 1527.17 956.205C1526.87 959.405 1522.67 960.405 1520.87 957.605C1517.37 952.205 1512.67 947.705 1506.77 945.305C1503.87 944.105 1500.67 943.405 1497.57 943.405C1481.47 943.405 1470.47 961.905 1472.17 977.905C1473.07 986.305 1476.37 994.105 1480.77 1001.4C1475.07 999.605 1468.67 999.805 1463.87 1002.8C1458.47 1004.8 1454.57 1009.6 1456.27 1016.9C1456.37 1017.2 1456.47 1017.6 1456.57 1017.9C1456.67 1019.6 1456.87 1021.2 1457.37 1022.8C1459.17 1028.9 1463.57 1034 1468.67 1037.7C1482.27 1047.7 1500.27 1049.2 1517.07 1047.8C1533.87 1046.4 1550.57 1042.5 1567.37 1043.3C1581.07 1044 1594.67 1047.8 1608.37 1047C1617.27 1046.5 1626.57 1043.3 1633.17 1037.6H1633.37C1633.57 1037.4 1633.77 1037.2 1633.87 1037C1637.07 1034 1639.57 1030.3 1640.77 1026C1640.67 1025.9 1640.57 1025.8 1640.57 1025.7C1643.37 1018.6 1643.17 1010.6 1638.37 1004.2Z" fill="#FEC91B"/>
<path d="M1547.17 1045.4C1547.07 1045.4 1546.87 1045.4 1546.77 1045.3C1546.37 1045.1 1546.18 1044.5 1546.48 1044.1C1564.08 1012.1 1565.57 961.804 1563.77 925.304C1561.77 885.604 1555.58 853.104 1555.58 852.804C1555.48 852.304 1555.77 851.904 1556.27 851.804C1556.77 851.704 1557.17 852.004 1557.27 852.504C1557.37 852.804 1563.58 885.404 1565.58 925.204C1567.38 962.004 1565.88 1012.6 1548.08 1045C1547.78 1045.3 1547.47 1045.4 1547.17 1045.4Z" fill="#333333"/>
<path d="M1553.08 1009.9C1549.48 1009.9 1544.38 1009.5 1538.48 1007.8C1527.48 1004.7 1511.37 996.504 1496.77 975.304C1496.47 974.904 1496.58 974.404 1496.98 974.104C1497.38 973.804 1497.88 973.904 1498.18 974.304C1512.48 995.104 1528.17 1003.1 1538.87 1006.1C1550.47 1009.4 1558.67 1007.8 1558.77 1007.7C1559.27 1007.6 1559.67 1007.9 1559.77 1008.4C1559.87 1008.9 1559.58 1009.3 1559.08 1009.4C1558.88 1009.5 1556.78 1009.9 1553.08 1009.9Z" fill="#333333"/>
<path d="M1564.58 898.604C1563.98 898.604 1563.68 898.604 1563.68 898.604C1563.18 898.504 1562.88 898.104 1562.88 897.604C1562.98 897.104 1563.38 896.804 1563.88 896.804C1564.57 896.904 1580.38 898.404 1585.98 875.304C1586.08 874.804 1586.58 874.604 1586.98 874.704C1587.48 874.804 1587.68 875.304 1587.58 875.704C1582.38 897.104 1568.28 898.604 1564.58 898.604Z" fill="#333333"/>
<path d="M428.775 865.805L408.675 855.705L414.775 794.104L440.075 806.805L428.775 865.805Z" fill="#DD9F76"/>
<path d="M339.175 892.304C341.575 888.704 352.575 884.604 357.575 882.404C361.075 880.804 364.875 878.704 367.875 876.404C374.675 871.304 394.975 856.404 394.975 856.404C398.675 853.004 403.675 851.404 408.575 851.904C410.475 852.104 412.275 852.304 413.275 852.304C421.775 852.704 425.875 849.704 431.875 843.704C433.375 842.204 436.075 842.904 436.475 845.004L444.175 867.604C445.575 871.604 443.175 875.104 439.075 876.904C420.275 885.004 365.475 899.004 345.075 900.304C339.975 900.704 336.475 896.404 339.175 892.304Z" fill="#E96115"/>
<path d="M498.575 647.705C481.975 695.805 473.475 730.805 460.775 783.505C457.875 795.405 451.975 814.005 445.475 821.705C435.275 833.905 423.575 824.005 407.875 818.905C401.375 816.805 387.175 810.205 389.575 803.805C404.375 763.405 415.675 693.005 438.675 628.305L498.575 647.705Z" fill="#0095CA"/>
<path d="M628.075 322.705L667.275 365.505L644.275 384.005L608.775 336.705L628.075 322.705Z" fill="#FFBB8D"/>
<path d="M628.975 281.705C608.875 259.805 576.375 257.005 556.375 275.305C540.375 289.905 538.775 306.805 551.575 327.005C554.775 332.105 558.975 337.405 564.075 343.005C584.175 364.905 609.675 386.005 617.075 360.005C631.175 310.805 649.075 303.605 628.975 281.705Z" fill="#FFBB8D"/>
<path d="M558.375 323.105L563.075 352.405C563.475 354.805 566.075 356.305 568.375 355.305L576.075 352.105L558.375 323.105Z" fill="#FFBB8D"/>
<path d="M608.675 321.505C607.375 322.805 610.375 326.705 612.275 328.205C620.275 336.405 616.275 332.605 627.575 340.705C642.875 351.605 629.475 358.805 642.275 373.905C647.475 380.105 658.375 381.405 666.975 380.105C673.275 379.105 678.575 374.205 680.075 368.105C680.575 366.105 682.875 365.205 684.775 366.105C692.275 369.505 702.375 367.105 706.675 360.005C709.975 354.505 709.175 347.405 705.775 342.005C703.375 338.305 703.975 333.605 707.275 330.805C713.575 325.505 716.975 316.405 714.075 308.505C710.075 297.505 695.075 292.305 685.075 298.205C684.675 298.405 684.275 298.105 684.475 297.705C688.275 287.705 680.175 275.805 669.875 272.105C664.775 270.205 659.275 269.805 653.875 270.105C645.075 270.605 635.375 257.005 630.675 249.505C625.375 241.205 615.875 236.305 606.275 234.805C596.275 233.205 591.175 233.005 577.875 241.705C573.775 244.405 567.675 249.405 563.175 251.305C555.075 254.705 546.875 258.205 539.975 263.505C527.475 273.105 520.075 292.305 529.675 304.805C532.075 307.905 535.275 310.305 538.675 312.105C552.375 319.205 561.375 309.705 573.775 298.005C574.075 297.705 567.475 280.705 567.675 280.405C568.175 279.805 577.575 291.905 578.075 291.305L591.675 305.405L608.675 321.505Z" fill="#FFE17A"/>
<path d="M588.875 317.505C590.275 324.905 596.575 329.905 602.875 328.705C609.175 327.505 610.175 318.305 608.775 310.905C607.375 303.505 604.075 300.705 597.775 302.005C591.475 303.305 587.475 310.105 588.875 317.505Z" fill="#FFBB8D"/>
<path d="M517.975 578.305C528.275 561.705 527.475 550.505 547.175 546.305C573.575 540.705 619.075 510.705 640.575 502.405C647.375 499.805 663.475 512.305 660.975 523.505C659.275 530.905 610.275 542.005 600.375 545.105C578.875 551.805 567.475 552.605 549.775 565.505L538.075 582.005L517.975 578.305Z" fill="#DD9F76"/>
<path d="M488.175 876.405L466.675 882.705L456.075 825.605L486.475 816.705L488.175 876.405Z" fill="#FFC599"/>
<path d="M394.475 925.605C396.675 921.505 408.175 916.105 413.275 913.305C416.875 911.305 420.775 908.705 423.775 905.905C430.575 899.805 451.075 882.005 451.075 882.005C454.775 878.005 459.875 875.805 465.275 875.905C467.275 875.905 469.275 876.005 470.375 875.905C479.475 875.505 483.675 872.005 489.575 865.005C491.075 863.205 493.975 863.805 494.675 866.005L504.975 889.505C506.775 893.705 504.575 897.705 500.375 900.005C480.975 910.405 423.375 930.405 401.475 933.705C396.075 934.505 391.975 930.205 394.475 925.605Z" fill="#FF8F51"/>
<path d="M622.275 590.105C602.475 588.005 567.775 589.805 539.375 589.805C522.375 589.805 492.375 593.805 476.775 597.605C461.175 601.405 440.475 610.405 436.775 634.905C436.175 638.705 436.075 637.405 435.975 641.205C432.975 750.805 430.575 765.305 440.075 838.805C441.375 848.905 455.275 851.105 462.075 850.905C478.575 850.305 499.175 860.305 504.575 844.605C507.975 834.705 509.775 807.705 508.375 794.805C503.175 745.905 500.375 703.405 504.675 659.405C509.875 660.505 514.475 661.305 518.175 661.705C611.875 672.505 729.975 685.805 730.275 622.405C701.275 594.905 662.075 594.305 622.275 590.105Z" fill="#00C7FD"/>
<path d="M716.975 463.905C725.575 535.205 722.575 538.805 728.675 583.305C728.675 583.305 733.675 599.705 733.275 616.905C732.875 635.205 702.075 609.805 683.075 605.005C654.975 597.805 622.875 601.605 621.275 596.405C615.175 576.705 631.275 585.605 632.675 571.705C634.275 555.205 645.675 520.305 638.075 498.205C638.075 498.205 625.075 483.405 630.575 453.305C636.875 418.705 622.775 375.705 651.075 363.505C651.075 363.505 658.875 360.705 665.975 359.905C695.175 356.505 713.675 437.105 716.975 463.905Z" fill="#FF8F51"/>
<path d="M727.175 511.205C726.075 489.505 707.375 426.905 693.275 410.405C688.875 404.905 688.375 406.305 682.075 400.705C673.575 393.205 661.575 404.205 659.775 419.905C659.275 424.405 660.175 428.905 662.275 432.805C669.575 446.605 682.175 479.305 686.775 492.505C687.975 495.905 689.275 499.505 693.275 512.405L695.075 519.105C669.775 519.505 628.275 530.705 610.275 534.105C591.975 537.605 562.975 546.405 546.475 557.105C544.075 558.705 542.175 561.005 541.075 563.605L532.375 585.005C531.675 586.805 532.575 588.905 534.475 589.405C535.775 589.805 537.175 589.205 537.875 588.205L545.575 577.405C547.775 574.305 551.275 572.405 555.175 572.205L561.275 572.005L566.875 571.305H566.975C572.075 571.105 576.175 567.105 577.275 562.105L577.975 559.105C599.075 553.205 622.075 556.005 644.475 555.105C654.875 554.705 712.375 552.505 719.575 547.105C728.975 540.005 727.775 522.405 727.175 511.205ZM704.775 438.705C704.775 438.405 704.775 438.105 704.775 438.005C704.775 438.105 704.775 438.305 704.775 438.705Z" fill="#FFC599"/>
<path d="M694.075 398.105C692.375 392.705 690.175 386.805 687.175 381.505C686.475 379.905 685.775 378.405 684.875 376.905C678.175 365.005 665.575 355.205 648.775 362.905C645.775 364.305 642.975 366.205 640.575 368.505C632.975 376.105 632.575 383.705 635.075 393.805C637.675 404.405 640.475 409.205 647.375 424.805C650.375 432.205 653.375 439.705 656.375 447.105C657.575 450.105 660.775 451.805 663.975 451.105C668.575 450.005 673.475 448.405 677.575 445.905C682.775 442.705 685.975 436.805 691.175 433.605C697.075 430.105 704.775 428.005 708.775 422.605C710.375 420.405 709.275 417.305 706.775 416.505C704.075 415.605 701.675 413.805 699.875 411.605C699.075 410.605 698.375 409.605 697.675 408.505C696.175 404.605 694.975 401.005 694.075 398.105Z" fill="#E96115"/>
<path d="M624.675 593.405L623.375 590.205C622.975 589.105 622.075 588.505 621.175 588.505H543.575L520.775 486.905C520.075 484.005 517.475 481.905 514.475 481.905H441.675L470.075 597.905H545.675L544.675 593.505H624.675V593.405Z" fill="#0095CA"/>
<path d="M625.675 595.805L623.775 591.205H537.875L513.375 481.905H441.675C438.875 481.905 436.775 484.505 437.375 487.205L461.475 594.405C461.875 596.405 463.675 597.805 465.775 597.805H529.375H624.875C625.575 597.805 626.075 596.705 625.675 595.805Z" fill="#D2F9FF"/>
<path d="M751.675 663.805H545.175C534.875 663.805 525.375 667.305 517.775 673.105V694.405H751.675V663.805Z" fill="#6DDCFF"/>
</g>
<defs>
<clipPath id="clip0_41803_22649">
<rect width="2000" height="1200" fill="white"/>
</clipPath>
</defs>
</svg>
