<svg width="351" height="351" viewBox="0 0 351 351" fill="none" xmlns="http://www.w3.org/2000/svg">
<circle cx="175.5" cy="175.5" r="175.5" fill="#00C7FD"/>
<path d="M144.576 242C125.582 242 107.894 236.444 93 226.885C101.808 227.953 110.742 227.276 119.287 224.893C127.833 222.51 135.824 218.468 142.802 212.998C135.778 212.87 128.972 210.55 123.337 206.365C117.702 202.18 113.521 196.34 111.382 189.664C113.439 190.065 115.549 190.274 117.703 190.274C120.774 190.274 123.756 189.857 126.596 189.113C118.983 187.575 112.136 183.458 107.216 177.459C102.296 171.461 99.604 163.95 99.597 156.199V155.76C104.262 158.353 109.481 159.792 114.818 159.955C110.207 156.889 106.427 152.732 103.815 147.855C101.204 142.978 99.8415 137.532 99.8504 132.002C99.8504 125.873 101.528 120.086 104.412 115.132C112.86 125.503 123.4 133.986 135.347 140.028C147.294 146.07 160.382 149.537 173.759 150.203C172.083 143.005 172.832 135.457 175.889 128.726C178.947 121.996 184.143 116.459 190.673 112.973C197.203 109.487 204.702 108.247 212.01 109.444C219.318 110.641 226.026 114.209 231.097 119.595C238.628 118.107 245.852 115.356 252.46 111.457C249.946 119.23 244.695 125.831 237.679 130.038C244.346 129.244 250.858 127.464 257 124.757C252.471 131.49 246.788 137.374 240.213 142.14C240.273 143.576 240.317 145.026 240.317 146.477C240.31 190.824 206.46 242.007 144.576 242Z" fill="white"/>
</svg>
