<svg width="123" height="123" viewBox="0 0 123 123" fill="none" xmlns="http://www.w3.org/2000/svg">
<g clip-path="url(#clip0_3853_109696)">
<path d="M15.375 13.666H12.3V109.333H15.375V13.666Z" fill="#00C7FD"/>
<path d="M6.15 34.166H0V58.0827H6.15V34.166Z" fill="#32C9F8"/>
<path d="M78.3271 103.184V109.334H102.244V103.184H78.3271Z" fill="#32C9F8"/>
<path d="M6.15 78.584H0V88.834H6.15V78.584Z" fill="#32C9F8"/>
<path d="M19.7029 22.7441V32.9941H29.9529V22.7441H19.7029Z" fill="#32C9F8"/>
<path d="M28.2628 29.6387H21.4294V51.2491H28.2628V29.6387Z" fill="url(#paint0_linear_3853_109696)"/>
<path d="M51.1556 23.916H29.4597V30.7493H51.1556V23.916Z" fill="url(#paint1_linear_3853_109696)"/>
<path d="M116.167 23.916H51.069V30.7493H116.167V76.3641C116.167 79.0975 115.142 81.66 113.177 83.5391L109.504 87.212C108.554 88.1678 107.422 88.9242 106.175 89.4372C104.928 89.9501 103.592 90.2092 102.244 90.1993H28.2628V51.2493H21.4294V97.0327H102.244C104.498 97.0316 106.729 96.5859 108.81 95.7211C110.892 94.8564 112.782 93.5895 114.373 91.9931L118.046 88.3202C121.224 85.1191 123.005 80.7896 123 76.2787V30.7493C122.995 28.9387 122.273 27.2038 120.993 25.9234C119.712 24.6431 117.977 23.9214 116.167 23.916V23.916Z" fill="#C4C4C4"/>
<path d="M62.4304 69.2724C58.0741 69.2724 54.572 65.7703 54.572 61.4995C54.572 57.2286 58.0741 53.7266 62.4304 53.7266C66.7866 53.7266 70.2887 57.2286 70.2887 61.4995C70.2887 65.7703 66.7866 69.2724 62.4304 69.2724ZM62.4304 57.1432C59.9533 57.1432 57.9887 59.1078 57.9887 61.4995C57.9887 63.8911 59.9533 65.8557 62.4304 65.8557C64.9074 65.8557 66.872 63.8911 66.872 61.4995C66.872 59.1078 64.9074 57.1432 62.4304 57.1432Z" fill="white"/>
<path d="M62.4304 83.8794C49.9584 83.8794 39.8804 73.8003 39.8804 61.5003C39.8804 49.2003 49.9595 39.1211 62.4304 39.1211C74.9012 39.1211 84.9804 49.2003 84.9804 61.5003C84.9804 73.8003 74.8158 83.8794 62.4304 83.8794ZM62.4304 43.2211C52.2658 43.2211 43.9804 51.4211 43.9804 61.5003C43.9804 71.5794 52.2669 79.7794 62.4304 79.7794C72.5938 79.7794 80.8804 71.5794 80.8804 61.5003C80.8804 51.4211 72.595 43.2211 62.4304 43.2211Z" fill="white"/>
<path d="M54.9946 58.9945C55.3471 57.9774 55.9072 57.0447 56.6392 56.2555C56.1248 55.6686 55.6704 55.0319 55.2827 54.3547C53.6621 51.5997 53.2589 48.3459 54.1439 45.19L54.3113 44.5967L51.4105 43.7266L51.2317 44.3302C50.0849 48.2138 50.5905 52.3309 52.6565 55.9241C53.3007 57.0438 54.0865 58.0757 54.9946 58.9945V58.9945Z" fill="white"/>
<path d="M56.5047 66.6002C55.7893 65.7907 55.2515 64.8401 54.9262 63.8099C54.1625 63.9606 53.3859 64.0369 52.6075 64.0377C51.0007 64.0433 49.4095 63.7225 47.9304 63.0947C46.4513 62.4668 45.1152 61.545 44.0032 60.3852L43.5601 59.9297L41.386 62.105L41.829 62.548C43.7074 64.4477 46.0507 65.8222 48.6257 66.5343C51.2006 67.2465 53.9171 67.2716 56.5047 66.607V66.6002Z" fill="white"/>
<path d="M62.4306 53.7279C62.9934 53.728 63.5546 53.788 64.1047 53.9067C64.3524 53.2124 64.6623 52.5419 65.0307 51.9034C66.6251 49.1211 69.273 47.1326 72.5006 46.3058L73.0963 46.152L72.3811 43.1465L71.7695 43.2968C69.1836 43.9299 66.8147 45.2448 64.9096 47.1044C63.0045 48.964 61.6329 51.3004 60.9375 53.8703C61.4296 53.7759 61.9295 53.7282 62.4306 53.7279V53.7279Z" fill="white"/>
<path d="M83.0317 60.3736C80.1037 57.4467 76.2462 55.834 72.1679 55.834C70.8611 55.8332 69.5597 56.0005 68.2957 56.3317C69.0165 57.1311 69.5633 58.0716 69.9015 59.0935C70.6485 58.9512 71.4074 58.8799 72.1679 58.8805C73.7747 58.8748 75.3659 59.1957 76.8449 59.8235C78.324 60.4514 79.6601 61.3731 80.7722 62.5329L81.2027 62.9805L83.4918 60.8348L83.0317 60.3736Z" fill="white"/>
<path d="M69.8652 64.0117C69.5127 65.0291 68.9523 65.9619 68.2195 66.7507C68.7348 67.3371 69.1896 67.9739 69.577 68.6516C71.1977 71.4065 71.5997 74.6615 70.7159 77.8162L70.5485 78.4084L73.4527 79.2808L73.6281 78.6726C74.7749 74.7013 74.2681 70.5865 72.2033 67.0822C71.559 65.9625 70.7732 64.9305 69.8652 64.0117V64.0117Z" fill="white"/>
<path d="M62.4304 69.2726C61.8672 69.2724 61.3057 69.2125 60.7551 69.0938C60.5094 69.7877 60.2018 70.4582 59.836 71.0971C58.2416 73.8794 55.5937 75.8679 52.3661 76.6947L51.7693 76.8473L52.4868 79.8574L53.1006 79.7036C55.6841 79.0683 58.0502 77.7525 59.953 75.8931C61.8557 74.0336 63.2255 71.6984 63.9201 69.1302C63.4291 69.2244 62.9304 69.272 62.4304 69.2726V69.2726Z" fill="white"/>
</g>
<defs>
<linearGradient id="paint0_linear_3853_109696" x1="24.6571" y1="51.3049" x2="25.0363" y2="29.5817" gradientUnits="userSpaceOnUse">
<stop offset="0.3" stop-color="#C9CACE"/>
<stop offset="0.84" stop-color="white" stop-opacity="0"/>
</linearGradient>
<linearGradient id="paint1_linear_3853_109696" x1="51.077" y1="27.3327" x2="29.4199" y2="27.3327" gradientUnits="userSpaceOnUse">
<stop offset="0.3" stop-color="#C9CACE"/>
<stop offset="0.9" stop-color="white" stop-opacity="0"/>
</linearGradient>
<clipPath id="clip0_3853_109696">
<rect width="123" height="123" fill="white"/>
</clipPath>
</defs>
</svg>
