<svg width="50" height="50" viewBox="0 0 50 50" fill="none" xmlns="http://www.w3.org/2000/svg">
<path d="M19.6928 42.4776C19.0336 42.4776 18.3891 42.2821 17.841 41.9159C17.2929 41.5496 16.8657 41.029 16.6134 40.42C16.3611 39.8109 16.2951 39.1408 16.4237 38.4942C16.5523 37.8476 16.8698 37.2537 17.3359 36.7876C17.8021 36.3214 18.396 36.004 19.0425 35.8754C19.6891 35.7468 20.3593 35.8128 20.9683 36.0651C21.5774 36.3173 22.0979 36.7445 22.4642 37.2927C22.8304 37.8408 23.0259 38.4852 23.0259 39.1445C23.0246 40.028 22.673 40.8751 22.0482 41.4998C21.4234 42.1246 20.5764 42.4762 19.6928 42.4776ZM19.6928 37.8607C19.4404 37.8607 19.1937 37.9356 18.9838 38.0758C18.774 38.216 18.6104 38.4153 18.5138 38.6485C18.4173 38.8816 18.392 39.1382 18.4412 39.3858C18.4905 39.6333 18.612 39.8607 18.7905 40.0391C18.9689 40.2176 19.1963 40.3391 19.4438 40.3884C19.6914 40.4376 19.9479 40.4123 20.1811 40.3158C20.4143 40.2192 20.6136 40.0556 20.7538 39.8458C20.894 39.6359 20.9689 39.3892 20.9689 39.1368C20.9689 38.7984 20.8344 38.4738 20.5951 38.2345C20.3558 37.9952 20.0312 37.8607 19.6928 37.8607Z" fill="#00C7FE"/>
<path d="M36.8739 42.4776C36.2147 42.4776 35.5703 42.2821 35.0221 41.9159C34.474 41.5496 34.0468 41.029 33.7945 40.42C33.5422 39.8109 33.4762 39.1408 33.6048 38.4942C33.7335 37.8476 34.0509 37.2537 34.5171 36.7876C34.9832 36.3214 35.5771 36.004 36.2237 35.8754C36.8702 35.7468 37.5404 35.8128 38.1495 36.0651C38.7585 36.3173 39.2791 36.7445 39.6453 37.2927C40.0116 37.8408 40.207 38.4852 40.207 39.1445C40.2064 40.0283 39.855 40.8757 39.23 41.5006C38.6051 42.1255 37.7577 42.4769 36.8739 42.4776ZM36.8739 37.8607C36.6215 37.8607 36.3748 37.9356 36.165 38.0758C35.9551 38.216 35.7916 38.4153 35.695 38.6485C35.5984 38.8816 35.5731 39.1382 35.6224 39.3858C35.6716 39.6333 35.7931 39.8607 35.9716 40.0391C36.1501 40.2176 36.3774 40.3391 36.625 40.3884C36.8725 40.4376 37.1291 40.4123 37.3623 40.3158C37.5954 40.2192 37.7947 40.0556 37.9349 39.8458C38.0752 39.6359 38.15 39.3892 38.15 39.1368C38.15 38.7984 38.0156 38.4738 37.7762 38.2345C37.5369 37.9952 37.2124 37.8607 36.8739 37.8607Z" fill="#00C7FE"/>
<path d="M39.6711 34.4561H18.3759C17.9056 34.4542 17.4501 34.2914 17.0851 33.9947C16.7202 33.698 16.4678 33.2853 16.3699 32.8253L10.8342 9.04173H5V7H10.8342C11.3017 7.00091 11.755 7.16085 12.1196 7.45351C12.4841 7.74618 12.7383 8.15417 12.8402 8.61041L18.3759 32.394H39.6711V34.4561Z" fill="#B5B3B3"/>
<path d="M39.888 28.3743H15.8977V26.3326H39.888L42.4708 15.0904H31.2924V13.0486H45L41.894 26.7639C41.7921 27.2202 41.5379 27.6282 41.1734 27.9208C40.8088 28.2135 40.3555 28.3734 39.888 28.3743Z" fill="#B5B3B3"/>
<path d="M16.1019 15.5931H19.1798V12.5152H16.1019V15.5931Z" fill="#03C7FD"/>
<path d="M31.2949 13.0282H19.1798V15.0801H31.2949V13.0282Z" fill="url(#paint0_linear_3_2)"/>
<path d="M17.1534 18.1657L17.3678 19.1891H42.5142V18.1657H17.1534Z" fill="#B5B3B3"/>
<path d="M18.2049 23.3211H41.8175V22.2951H17.9905L18.2049 23.3211Z" fill="#B5B3B3"/>
<defs>
<linearGradient id="paint0_linear_3_2" x1="19.1798" y1="14.0542" x2="31.2924" y2="14.0542" gradientUnits="userSpaceOnUse">
<stop stop-color="#B5B3B3" stop-opacity="0"/>
<stop offset="1" stop-color="#B5B3B3"/>
</linearGradient>
</defs>
</svg>
