<svg width="50" height="50" viewBox="0 0 50 50" fill="none" xmlns="http://www.w3.org/2000/svg">
<path d="M42.0836 30.9782L41.2982 27.72C41.0655 26.44 39.9309 25.5091 38.6509 25.5091H36.6727V28.2436H38.6509L39.4364 31.4436" fill="#B5B3B3"/>
<path fill-rule="evenodd" clip-rule="evenodd" d="M21.72 16.1127C18.6655 16.1127 16.1636 13.6109 16.1636 10.5564C16.1636 7.50182 18.6655 5 21.72 5C24.8036 5 27.2764 7.50182 27.2764 10.5564C27.2764 13.6109 24.8036 16.1127 21.72 16.1127ZM21.72 7.03636C19.8 7.03636 18.2291 8.63636 18.2291 10.5564C18.2291 12.4764 19.8 14.0473 21.72 14.0473C23.6691 14.0473 25.24 12.4764 25.24 10.5564C25.24 8.63636 23.6691 7.03636 21.72 7.03636Z" fill="#B5B3B3"/>
<path fill-rule="evenodd" clip-rule="evenodd" d="M39.3491 19.6618C39.3685 19.7782 39.3782 19.8945 39.3782 20.0109C39.3782 21.9309 37.9236 23.5018 36.0036 23.6764C35.8873 23.6958 35.7709 23.7055 35.6545 23.7055C33.7345 23.7055 32.1345 22.2509 31.96 20.36C31.9406 20.2242 31.9309 20.0982 31.9309 19.9818C31.9309 18.0618 33.3855 16.4618 35.3055 16.2873C35.4412 16.2873 35.5576 16.2873 35.6545 16.2873C37.5455 16.2873 39.1745 17.7709 39.3491 19.6618ZM35.5091 18.3236C34.6364 18.4109 33.9964 19.1091 33.9964 19.9818C33.9964 20.04 33.9964 20.0982 33.9964 20.1564C34.0836 21 34.7818 21.6691 35.6545 21.6691C35.6739 21.6691 35.7321 21.6594 35.8291 21.64C36.6727 21.5527 37.3127 20.8836 37.3127 20.0109C37.3127 19.9527 37.3127 19.9042 37.3127 19.8655C37.2255 19.0218 36.4982 18.3236 35.6545 18.3236C35.5964 18.3236 35.5479 18.3236 35.5091 18.3236Z" fill="#B5B3B3"/>
<path fill-rule="evenodd" clip-rule="evenodd" d="M13.9527 34.9054C12.2655 34.9054 10.6655 34.2654 9.47273 33.0727C8.28 31.88 7.64 30.28 7.64 28.5927C7.64 26.9054 8.28 25.3054 9.50182 24.1127C10.6655 22.92 12.2655 22.28 13.9527 22.28C15.64 22.28 17.24 22.92 18.4327 24.1127C19.6255 25.3054 20.2655 26.9054 20.2655 28.5927C20.2655 30.28 19.6255 31.88 18.4327 33.0727C17.24 34.2654 15.64 34.9054 13.9527 34.9054ZM13.9527 24.3164C12.8182 24.3164 11.7418 24.7527 10.9273 25.5673C10.1127 26.3818 9.67636 27.4582 9.67636 28.5927C9.67636 29.7273 10.1127 30.8036 10.9273 31.6182C11.7418 32.4327 12.8182 32.8691 13.9527 32.8691C15.0873 32.8691 16.1636 32.4327 16.9782 31.6182C17.7927 30.8036 18.2291 29.7273 18.2291 28.5927C18.2291 27.4582 17.7927 26.3818 16.9782 25.5673C16.1636 24.7527 15.0873 24.3164 13.9527 24.3164Z" fill="#B5B3B3"/>
<path fill-rule="evenodd" clip-rule="evenodd" d="M11.1018 45C8.83273 45 7 43.1673 7 40.8982C7 38.6291 8.83273 36.7964 11.1018 36.7964H39.7564C42.0255 36.7964 43.8582 38.6291 43.8582 40.8982C43.8582 43.1382 42.0255 45 39.7564 45H11.1018ZM39.7564 38.8327H11.1018C9.96727 38.8327 9.06545 39.7636 9.06545 40.8982C9.06545 42.0327 9.96727 42.9345 11.1018 42.9345H39.7564C40.8909 42.9345 41.8218 42.0036 41.8218 40.8691C41.8218 39.7345 40.8909 38.8327 39.7564 38.8327Z" fill="#B5B3B3"/>
<path d="M29.2255 30.9782L30.0109 27.72C30.2436 26.44 31.3782 25.5091 32.6873 25.5091H34.6364V28.2436H32.6873L31.8727 31.4436" fill="#B5B3B3"/>
<path d="M18.9564 24.8982L13.2545 22.6L16.92 13.4945L22.6509 15.7927L18.9564 24.8982Z" fill="#B5B3B3"/>
<path d="M32.1346 20.0982L24.1346 15.1527L26.3164 11.6618L34.2873 16.6073L32.1346 20.0982Z" fill="#B5B3B3"/>
<path d="M37.5745 28.2145H33.5891V22.6582H37.5745V28.2145Z" fill="#B5B3B3"/>
<path d="M33.9091 34.7891H37.5164V31.1818H33.9091V34.7891Z" fill="#00C7FE"/>
</svg>
