<svg width="129" height="129" viewBox="0 0 129 129" fill="none" xmlns="http://www.w3.org/2000/svg">
<path d="M116 5H32V89C32 91.1217 32.8429 93.1566 34.3431 94.6569C35.8434 96.1571 37.8783 97 40 97H124V13C124 10.8783 123.157 8.84344 121.657 7.34315C120.157 5.84286 118.122 5 116 5ZM116 89H40V13H116V89Z" fill="#22C7FC"/>
<path d="M100 105H24V29H28V21H16V105C16 107.122 16.8429 109.157 18.3431 110.657C19.8434 112.157 21.8783 113 24 113H108V101H100V105Z" fill="#C4C4C4"/>
<path d="M84 121H8V45H12V37H0V121C0 123.122 0.842856 125.157 2.34315 126.657C3.84344 128.157 5.87827 129 8 129H92V117H84V121Z" fill="#C4C4C4"/>
<path d="M42 3H30V15H42V3Z" fill="white"/>
<path d="M90.5999 41.917C90.3775 41.6666 90.1065 41.4639 89.8035 41.3213C89.5005 41.1786 89.1716 41.0989 88.8369 41.087H83.1539L83.7129 40.436C83.7129 40.436 86.6029 36.458 85.4419 33.612C84.4659 31.227 81.4249 30.12 78.9679 30.086H64.3779C63.9634 30.0831 63.5532 30.1711 63.1764 30.3439C62.7996 30.5167 62.4652 30.77 62.1969 31.086L52.8419 41.859C52.2873 42.4256 51.9357 43.1597 51.8419 43.947C51.8269 44.3331 51.8921 44.718 52.0334 45.0776C52.1747 45.4372 52.3891 45.7636 52.6629 46.0361C52.9368 46.3086 53.2641 46.5214 53.6244 46.661C53.9846 46.8005 54.3699 46.8639 54.7559 46.847C55.1614 46.834 55.5592 46.7329 55.9218 46.5509C56.2844 46.369 56.6031 46.1103 56.8559 45.793L65.5399 35.671L72.4949 35.759L53.2839 57.988H40.4079C39.4276 57.9618 38.4754 58.3171 37.7519 58.979C37.4082 59.3066 37.1347 59.7007 36.9481 60.1374C36.7615 60.574 36.6657 61.0441 36.6665 61.5189C36.6674 61.9938 36.7648 62.4635 36.953 62.8995C37.1411 63.3355 37.416 63.7286 37.7609 64.055C38.102 64.3891 38.5061 64.6521 38.9497 64.8287C39.3933 65.0054 39.8675 65.0922 40.3449 65.084H55.4739C56.0333 65.089 56.5917 65.0354 57.1399 64.924C58.1353 64.835 59.0747 64.4243 59.8159 63.754L67.2469 55.482L75.9409 63.86L72.4289 79.529C72.3326 79.801 72.277 80.0858 72.2639 80.374C72.2715 81.3477 72.661 82.2795 73.3487 82.9689C74.0364 83.6583 74.9672 84.0501 75.9409 84.06C76.7908 84.1108 77.6279 83.8341 78.28 83.2867C78.9321 82.7393 79.3497 81.9629 79.4469 81.117L83.7119 62.078C84.2119 60.067 83.9979 58.586 83.0559 57.634L75.4559 50.034L78.1319 46.921H88.7779C89.4564 46.8593 90.0914 46.56 90.5709 46.076C90.8568 45.8082 91.0819 45.4821 91.231 45.1198C91.38 44.7575 91.4496 44.3675 91.4349 43.976C91.4413 43.5956 91.3705 43.2179 91.227 42.8656C91.0835 42.5133 90.8702 42.1937 90.5999 41.926" fill="white"/>
<path d="M86.2999 17.9414C87.4897 17.941 88.6529 18.2935 89.6424 18.9543C90.6318 19.6151 91.4031 20.5545 91.8586 21.6536C92.3141 22.7528 92.4334 23.9624 92.2014 25.1294C91.9694 26.2964 91.3964 27.3683 90.5551 28.2097C89.7138 29.051 88.6418 29.6239 87.4748 29.8559C86.3079 30.088 85.0983 29.9687 83.9991 29.5132C82.8999 29.0576 81.9605 28.2864 81.2997 27.2969C80.639 26.3074 80.2865 25.1442 80.2869 23.9544C80.2866 23.1647 80.442 22.3827 80.744 21.653C81.0461 20.9234 81.489 20.2604 82.0474 19.702C82.6059 19.1436 83.2688 18.7007 83.9985 18.3986C84.7281 18.0965 85.5102 17.9411 86.2999 17.9414" fill="white"/>
</svg>
