<svg width="50" height="50" viewBox="0 0 50 50" fill="none" xmlns="http://www.w3.org/2000/svg">
<path d="M11.1795 21.4359V25.5641" stroke="#B5B3B3" stroke-width="3" stroke-miterlimit="10"/>
<path d="M11.1795 27.6154V31.718" stroke="#B5B3B3" stroke-width="3" stroke-miterlimit="10"/>
<path d="M25.5385 21.4359V25.5641" stroke="#B5B3B3" stroke-width="3" stroke-miterlimit="10"/>
<path d="M25.5385 27.6154V31.718" stroke="#B5B3B3" stroke-width="3" stroke-miterlimit="10"/>
<path d="M18.359 21.4359V25.5641" stroke="#B5B3B3" stroke-width="3" stroke-miterlimit="10"/>
<path d="M18.359 27.6154V31.718" stroke="#B5B3B3" stroke-width="3" stroke-miterlimit="10"/>
<path d="M14.2051 9.1282V17.3333" stroke="#1DC4F3" stroke-width="3" stroke-miterlimit="10"/>
<path d="M18.3333 13.2308H10.1026" stroke="#1DC4F3" stroke-width="3" stroke-miterlimit="10"/>
<path d="M11.1795 44V35.7949H25.5385V44" stroke="#B5B3B3" stroke-width="3" stroke-miterlimit="10"/>
<path d="M31.6923 21.4359V44.0256H5V17.3333V14.282C5 9.17949 9.15385 5.02564 14.2564 5.05128C19.359 5.05128 23.4872 9.17949 23.4872 14.3077L23.4615 17.3333H27.5385" stroke="#B5B3B3" stroke-width="3" stroke-miterlimit="10"/>
<path d="M29.641 19.359H33.7436V15.2564H29.641V19.359Z" fill="#1DC4F3"/>
<path d="M31.6923 10.1026V13.2051C33.9744 13.2051 35.8205 15.0513 35.8205 17.3077H38.9231C38.9231 13.3333 35.6667 10.1026 31.6923 10.1026Z" fill="#1DC4F3"/>
<path d="M31.6923 8.17949V5C38.2564 5.48718 43.5128 10.7436 44 17.3077H40.8462C40.359 12.4872 36.5385 8.64103 31.6923 8.17949Z" fill="#1DC4F3"/>
</svg>
