<svg width="351" height="351" viewBox="0 0 351 351" fill="none" xmlns="http://www.w3.org/2000/svg">
<circle cx="175.5" cy="175.5" r="175.5" fill="#00ADEF"/>
<path d="M109.571 239.578H127.87C130.394 239.578 132.44 237.532 132.44 235.007V155.023C132.44 152.499 130.394 150.453 127.87 150.453H109.571C107.046 150.453 105 152.499 105 155.023V235.007C105 237.531 107.046 239.578 109.571 239.578Z" fill="white"/>
<path d="M109.571 136.391H127.87C130.394 136.391 132.44 134.345 132.44 131.82V115.571C132.44 113.046 130.394 111 127.87 111H109.571C107.046 111 105 113.046 105 115.571V131.82C105 134.345 107.046 136.391 109.571 136.391Z" fill="white"/>
<path d="M238.873 159.73C236.302 156.345 232.51 153.562 227.497 151.38C222.483 149.2 216.949 148.109 210.895 148.109C198.604 148.109 188.189 152.8 179.651 162.183C177.952 164.05 176.716 163.642 176.716 161.117V155.024C176.716 152.499 174.67 150.453 172.145 150.453H155.799C153.275 150.453 151.229 152.499 151.229 155.024V235.007C151.229 237.532 153.275 239.578 155.799 239.578H174.098C176.623 239.578 178.669 237.532 178.669 235.007V207.191C178.669 195.603 179.369 187.66 180.768 183.363C182.167 179.067 184.756 175.617 188.532 173.012C192.308 170.408 196.572 169.105 201.325 169.105C205.036 169.105 208.21 170.017 210.847 171.84C213.484 173.664 215.388 176.218 216.56 179.506C217.732 182.794 218.318 190.037 218.318 201.235V235.007C218.318 237.532 220.364 239.578 222.888 239.578H241.187C243.712 239.578 245.758 237.532 245.758 235.007V189.711C245.758 181.704 245.253 175.551 244.245 171.255C243.237 166.958 241.446 163.116 238.873 159.73Z" fill="white"/>
</svg>
