<svg width="50" height="50" viewBox="0 0 50 50" fill="none" xmlns="http://www.w3.org/2000/svg">
<path d="M41.2651 37.5688L37.5301 41.2844L41.2651 45L45 41.2844L41.2651 37.5688Z" fill="#B5B3B3"/>
<path d="M39.8718 35.8233L34.2996 30.3013C36.6529 27.0322 37.6802 23.006 37.1778 19.0213C36.6754 15.0366 34.6799 11.3847 31.5872 8.78998C28.4946 6.19528 24.5308 4.8474 20.4821 5.01375C16.4335 5.1801 12.5959 6.84852 9.73059 9.68802C6.86531 12.5275 5.18174 16.3306 5.01388 20.3428C4.84601 24.355 6.20613 28.2832 8.82439 31.348C11.4426 34.4128 15.1277 36.3903 19.1486 36.8882C23.1694 37.3862 27.2323 36.3681 30.531 34.036L36.1032 39.6914L39.8718 35.8233ZM13.4915 28.6473C12.0098 27.1457 11.0083 25.2441 10.6123 23.1808C10.2164 21.1176 10.4437 18.9844 11.2657 17.0486C12.0877 15.1127 13.4679 13.4603 15.2333 12.2984C16.9987 11.1365 19.0709 10.5167 21.1902 10.5167C23.3095 10.5167 25.3817 11.1365 27.1472 12.2984C28.9126 13.4603 30.2928 15.1127 31.1148 17.0486C31.9368 18.9844 32.1641 21.1176 31.7681 23.1808C31.3722 25.2441 30.3706 27.1457 28.889 28.6473C27.8862 29.6637 26.6886 30.4712 25.3665 31.0225C24.0445 31.5739 22.6246 31.8579 21.1902 31.8579C19.7559 31.8579 18.336 31.5739 17.0139 31.0225C15.6919 30.4712 14.4943 29.6637 13.4915 28.6473Z" fill="#00C7FE"/>
</svg>
