<svg xmlns="http://www.w3.org/2000/svg" width="351" height="351" viewBox="0 0 351 351">
  <g id="Group_162" data-name="Group 162" transform="translate(-577 -918)">
    <circle id="Ellipse_2" data-name="Ellipse 2" cx="175.5" cy="175.5" r="175.5" transform="translate(577 918)" fill="#6a6a6a"/>
    <path id="link-svgrepo-com" d="M69.139,96.877a8.165,8.165,0,0,0,0-11.547,22.939,22.939,0,0,1,0-32.441L96.634,25.4a22.939,22.939,0,0,1,32.441,32.441l-8.5,8.491a8.165,8.165,0,1,0,11.547,11.547l8.5-8.491A39.269,39.269,0,1,0,85.087,13.855l-27.5,27.487a39.268,39.268,0,0,0,0,55.535A8.166,8.166,0,0,0,69.139,96.877ZM85.08,57.843a8.165,8.165,0,0,0,0,11.547,22.939,22.939,0,0,1,0,32.441L57.864,129.046A22.937,22.937,0,1,1,25.43,96.6L33.4,88.635A8.165,8.165,0,1,0,21.855,77.088l-7.962,7.97a39.269,39.269,0,0,0,55.535,55.535l27.215-27.215a39.268,39.268,0,0,0,0-55.535,8.165,8.165,0,0,0-11.547,0Z" transform="translate(675.243 1016.276)" fill="#fff" fill-rule="evenodd"/>
  </g>
</svg>
