<svg width="42" height="33" viewBox="0 0 42 33" fill="none" xmlns="http://www.w3.org/2000/svg">
<path d="M37.7021 0.925293L41.064 3.8916C38.9106 5.78125 37.1528 7.60498 35.7905 9.36279C34.4722 11.0767 33.6372 12.373 33.2856 13.252C32.9341 14.1309 32.6045 15.1855 32.2969 16.416L32.5605 16.8115C35.5049 16.8115 37.6582 17.4487 39.0205 18.7231C40.3828 19.9976 41.064 21.9751 41.064 24.6558C41.064 26.7212 40.3169 28.5889 38.8228 30.2588C37.3726 31.9287 35.5488 32.7637 33.3516 32.7637C30.8467 32.7637 28.7593 32.0605 27.0894 30.6543C25.4194 29.248 24.5845 26.9849 24.5845 23.8647C24.5845 19.7339 25.8589 15.4712 28.4077 11.0767C31.0005 6.63818 34.0986 3.25439 37.7021 0.925293ZM13.2466 0.925293L16.6084 3.8916C14.4551 5.78125 12.7192 7.58301 11.4009 9.29688C10.0825 11.0107 9.22559 12.3291 8.83008 13.252C8.47852 14.1748 8.14893 15.2295 7.84131 16.416L8.10498 16.8115C11.0493 16.8115 13.2026 17.4487 14.5649 18.7231C15.9272 19.9976 16.6084 21.9751 16.6084 24.6558C16.6084 26.7212 15.8613 28.5889 14.3672 30.2588C12.917 31.9287 11.0933 32.7637 8.896 32.7637C6.39111 32.7637 4.30371 32.0605 2.63379 30.6543C0.963867 29.248 0.128906 26.9849 0.128906 23.8647C0.128906 19.7339 1.40332 15.4712 3.95215 11.0767C6.54492 6.63818 9.64307 3.25439 13.2466 0.925293Z" fill="white"/>
</svg>
