<svg width="116" height="106" viewBox="0 0 116 106" fill="none" xmlns="http://www.w3.org/2000/svg">
<g clip-path="url(#clip0_3853_109968)">
<path d="M116 53.9999L98.0483 30.5186L97.6298 30.6459L68.602 24.1445V31.8179L83.0948 35.1693L57.6213 43.1237L32.4974 35.2754L47.4615 31.8179V24.1445L17.9729 30.7573L0 54.2386L10.8325 58.0302V81.4478C10.8398 83.6083 11.502 85.7155 12.7316 87.491C13.9612 89.2664 15.7002 90.6263 17.7186 91.3908L56.9168 106L98.2072 91.3802C100.272 90.6478 102.059 89.2929 103.322 87.5018C104.586 85.7107 105.264 83.5716 105.263 81.3789V57.7544L116 53.9999ZM70.9751 58.5127L65.6304 51.7144L94.1179 42.8426L98.6946 48.8243L70.9751 58.5127ZM21.8662 43.0812L50.3749 51.9689L45.009 58.7514L17.3107 49.0629L21.8662 43.0812ZM21.4054 61.7369L48.6163 71.2503L52.7374 66.0323V93.1302L21.4054 81.4638V61.7369ZM94.6635 81.3577L63.3527 92.4779V65.9633L67.3625 71.0382L94.6847 61.493L94.6635 81.3577Z" fill="#C4C4C4" fill-opacity="0.8" stroke="#2E2F32" stroke-width="4"/>
<path d="M63.0243 21.2109H52.4302V31.8168H63.0243V21.2109Z" fill="#00C7FE"/>
<path d="M73.6341 10.6055H63.04V21.2113H73.6341V10.6055Z" fill="#00C7FE"/>
<path d="M52.4142 0H41.9473V10.6058H52.4142V0Z" fill="#00C7FE"/>
</g>
<defs>
<clipPath id="clip0_3853_109968">
<rect width="116" height="106" fill="white"/>
</clipPath>
</defs>
</svg>
