<svg width="351" height="351" viewBox="0 0 351 351" fill="none" xmlns="http://www.w3.org/2000/svg">
<circle cx="175.5" cy="175.5" r="175.5" fill="#0054AE"/>
<path d="M182.935 136.598C182.935 138.131 182.935 143.128 182.935 150.227H207.343L204.696 171.985H182.935C182.935 205.539 182.935 250.504 182.935 250.504H154.051C154.051 250.504 154.051 206.134 154.051 171.985H139V150.227H154.051C154.051 141.599 154.051 135.463 154.051 133.755C154.051 125.616 153.438 121.754 156.896 115.446C160.356 109.139 170.116 100.803 186.997 101.004C203.883 101.212 211 102.836 211 102.836L207.343 126.024C207.343 126.024 196.56 123.177 191.268 124.192C185.983 125.207 182.935 128.463 182.935 136.598Z" fill="white"/>
</svg>
