<?xml version="1.0" standalone="no"?>
<!DOCTYPE svg PUBLIC "-//W3C//DTD SVG 20010904//EN"
 "http://www.w3.org/TR/2001/REC-SVG-20010904/DTD/svg10.dtd">
<svg version="1.0" xmlns="http://www.w3.org/2000/svg"
 width="3200.000000pt" height="2520.000000pt" viewBox="0 0 3200.000000 2520.000000"
 preserveAspectRatio="xMidYMid meet">

<g transform="translate(0.000000,2520.000000) scale(0.100000,-0.100000)"
fill="#ffffff" stroke="none">
<path d="M9560 25169 c-643 -167 -1324 -406 -1955 -684 -238 -106 -784 -377
-1015 -506 -855 -475 -1625 -1026 -2380 -1703 -210 -188 -769 -750 -964 -970
-683 -770 -1244 -1568 -1718 -2446 -1168 -2161 -1682 -4610 -1488 -7085 195
-2472 1105 -4810 2646 -6796 529 -682 1177 -1360 1839 -1925 1275 -1088 2755
-1917 4355 -2439 1893 -617 3984 -773 5990 -444 2480 406 4801 1549 6642 3272
167 156 572 564 682 686 184 206 220 441 103 680 -43 89 -168 214 -257 258
-124 62 -160 66 -495 59 -456 -11 -1027 13 -1531 64 -4420 449 -8313 3195
-10234 7220 -699 1465 -1091 2962 -1216 4640 -33 447 -30 1329 7 1820 138
1854 676 3637 1594 5280 135 242 156 295 162 420 18 342 -249 631 -582 629
-45 0 -112 -11 -185 -30z"/>
<path d="M15869 24847 c-60 -22 -105 -55 -133 -95 -16 -24 -152 -398 -352
-973 -179 -514 -327 -935 -327 -935 -1 -1 -445 -11 -987 -23 -1114 -25 -1060
-20 -1140 -101 -101 -100 -104 -263 -7 -361 14 -14 377 -292 806 -617 767
-583 780 -593 771 -620 -39 -115 -562 -1863 -566 -1892 -15 -92 55 -212 150
-256 64 -30 153 -32 211 -5 22 10 398 267 835 571 437 304 801 554 807 557 7
3 371 -244 810 -549 439 -304 818 -563 842 -575 50 -26 129 -30 193 -11 100
30 186 158 175 258 -4 35 -495 1685 -562 1887 l-14 42 785 596 c431 328 794
606 805 618 93 99 89 258 -11 357 -81 82 -20 76 -1135 101 -544 11 -991 22
-991 23 -1 0 -147 419 -325 931 -222 638 -333 944 -354 974 -58 86 -195 132
-286 98z"/>
<path d="M27513 23142 c-115 -41 -172 -101 -221 -231 -16 -42 -229 -650 -472
-1351 -244 -701 -445 -1276 -446 -1278 -1 -2 -618 -16 -1370 -32 -753 -16
-1403 -31 -1445 -33 -115 -7 -195 -49 -261 -136 -32 -42 -68 -147 -68 -199 0
-57 29 -143 64 -192 24 -33 337 -276 1169 -908 626 -475 1137 -869 1137 -875
0 -6 -184 -624 -410 -1372 -332 -1102 -410 -1372 -410 -1417 0 -119 77 -241
186 -294 73 -35 172 -43 246 -19 38 12 372 239 1225 831 645 448 1175 814
1178 814 3 0 528 -363 1168 -807 658 -457 1186 -817 1217 -830 159 -66 351 15
425 178 52 118 67 58 -389 1567 -223 739 -406 1347 -406 1352 0 4 503 390
1117 856 615 467 1135 864 1155 882 21 19 50 59 65 90 24 49 28 69 28 142 0
76 -4 93 -33 152 -57 117 -153 177 -295 185 -45 2 -694 17 -1441 33 -747 16
-1362 32 -1366 37 -4 4 -215 607 -470 1338 -254 732 -473 1348 -486 1371 -30
54 -94 111 -152 136 -68 29 -174 33 -239 10z"/>
</g>
</svg>
