<svg width="568" height="568" xmlns="http://www.w3.org/2000/svg" xmlns:xlink="http://www.w3.org/1999/xlink" overflow="hidden"><defs><clipPath id="clip0"><rect x="356" y="76" width="568" height="568"/></clipPath></defs><g clip-path="url(#clip0)" transform="translate(-356 -76)"><path d="M543.6 329.056 535.234 320.684 460.222 395.701C460.199 395.724 460.162 395.724 460.139 395.701 460.129 395.692 460.123 395.679 460.121 395.666 440.352 296.315 504.865 199.749 604.215 179.98 687.104 163.486 770.533 205.764 806.246 282.361L816.968 277.35C771.528 179.583 655.437 137.163 557.67 182.602 479.21 219.067 434.115 302.827 446.868 388.4 446.878 388.428 446.864 388.458 446.837 388.469 446.813 388.477 446.787 388.468 446.773 388.447L379.022 320.684 370.656 329.056 457.128 415.528Z"/><path d="M736.4 402.979 744.766 411.345 821.446 334.665C821.469 334.642 821.507 334.642 821.53 334.665 821.539 334.674 821.546 334.687 821.547 334.7 835.949 434.537 766.689 527.146 666.853 541.547 657.96 542.83 648.985 543.455 640 543.417 572.096 543.479 509.726 505.98 477.937 445.975L467.488 451.525C517.991 546.801 636.168 583.096 731.444 532.593 795.338 498.725 835.28 432.315 835.25 360 835.25 355.048 835.019 350.09 834.658 345.149 834.658 345.117 834.685 345.09 834.718 345.09 834.73 345.09 834.743 345.094 834.753 345.102L900.99 411.368 909.356 403.002 822.872 316.501Z"/></g></svg>