<svg xmlns="http://www.w3.org/2000/svg" width="52" height="39" viewBox="0 0 52 39">
    <path fill="#FFF" fill-rule="evenodd" d="M46.597 36.457H5.404a2.88 2.88 0 0 1-2.871-2.881V6.864l19.534 17.178A5.578 5.578 0 0 0 26 25.657a5.576 5.576 0 0 0 3.933-1.615L49.467 6.865v26.71a2.88 2.88 0 0 1-2.87 2.882M5.404 2.543h41.193c1.017 0 1.906.537 2.417 1.34L28.235 22.155l-.06.058a3.071 3.071 0 0 1-4.35 0l-.06-.058L2.987 3.883c.51-.803 1.4-1.34 2.417-1.34M46.597 0H5.404C2.424 0 0 2.433 0 5.425v28.15C0 36.568 2.424 39 5.404 39h41.193C49.576 39 52 36.567 52 33.576V5.425C52 2.433 49.576 0 46.597 0"/>
</svg>
