<svg width="100" height="39" viewBox="0 0 100 39" fill="none" xmlns="http://www.w3.org/2000/svg">
<g clip-path="url(#clip0)">
<path d="M7.26577 0.509766H0V7.77554H7.26577V0.509766Z" fill="#00C7FD"/>
<path d="M7.07453 38.2409V12.1734H0.191162V38.2409H7.07453ZM52.5812 38.4959V32.1224C51.5615 32.1224 50.7329 32.0586 50.0956 31.9312C49.3945 31.8037 48.8209 31.5488 48.5022 31.2301C48.1198 30.8477 47.9286 30.3378 47.8011 29.7004C47.6736 29.0631 47.6099 28.2345 47.6099 27.1511V18.037H52.5812V12.1734H47.6099V2.03952H40.7265V27.2785C40.7265 29.3818 40.9177 31.2301 41.3002 32.6323C41.6826 34.0344 42.2562 35.2454 43.1485 36.0739C43.977 36.9662 45.1242 37.6036 46.5264 37.986C47.9286 38.3684 49.6494 38.5596 51.7527 38.5596H52.5812V38.4959ZM91.9694 38.2409V0H85.086V38.2409H91.9694ZM34.0981 14.7228C32.1861 12.6832 29.5092 11.5997 26.1313 11.5997C24.4741 11.5997 22.9445 11.9184 21.6061 12.6195C20.2676 13.2569 19.1204 14.2129 18.1644 15.4238L17.8457 15.9337V15.4876V12.1734H11.0898V38.2409H17.9095V24.3467V25.3027C17.9095 25.1753 17.9095 24.9841 17.9095 24.8566C17.9732 22.4347 18.6105 20.5864 19.694 19.4391C20.905 18.2282 22.3709 17.5908 24.028 17.5908C26.0038 17.5908 27.5334 18.2282 28.5532 19.3754C29.5092 20.5226 30.0191 22.2435 30.0191 24.3467V24.4105V38.1772H36.9662V23.4544C37.0299 19.7578 36.0102 16.826 34.0981 14.7228ZM81.5168 25.1753C81.5168 23.327 81.1982 21.5424 80.4971 19.8853C79.8597 18.2282 78.9037 16.826 77.7565 15.5513C76.6093 14.3403 75.1434 13.3206 73.4863 12.6832C71.8292 11.9822 69.9808 11.6635 68.0051 11.6635C66.1567 11.6635 64.3722 12.0459 62.7151 12.747C61.058 13.4481 59.5921 14.4041 58.3811 15.615C57.1701 16.826 56.2141 18.2919 55.513 19.949C54.8119 21.6061 54.4295 23.3907 54.4295 25.239C54.4295 27.0873 54.7482 28.8719 55.4493 30.529C56.1504 32.1861 57.0427 33.652 58.2536 34.863C59.4646 36.0739 60.9305 37.03 62.5876 37.731C64.3084 38.4321 66.1567 38.8145 68.1963 38.8145C73.9961 38.8145 77.629 36.2014 79.796 33.7157L74.8247 29.9554C73.8049 31.1663 71.3193 32.8872 68.1963 32.8872C66.2842 32.8872 64.6908 32.441 63.4799 31.5488C62.2689 30.6565 61.4404 29.4455 60.9942 27.9159L60.9305 27.6609H81.3894V25.1753H81.5168ZM61.1217 22.7533C61.1217 20.8413 63.2887 17.5271 68.0688 17.5271C72.7852 17.5271 75.0159 20.8413 75.0159 22.7533H61.1217Z" fill="#0068B5"/>
<path d="M99.8087 34.9906C99.6813 34.6719 99.49 34.417 99.2351 34.162C98.9802 33.9071 98.7252 33.7796 98.4066 33.5884C98.0879 33.461 97.7692 33.3972 97.3868 33.3972C97.0044 33.3972 96.6857 33.461 96.4308 33.5884C96.1121 33.7159 95.8572 33.9071 95.6022 34.162C95.3473 34.417 95.2198 34.6719 95.0286 34.9906C94.9011 35.3093 94.8374 35.6279 94.8374 35.9466C94.8374 36.329 94.9011 36.6477 95.0286 36.9664C95.1561 37.285 95.3473 37.54 95.6022 37.7949C95.8572 38.0499 96.1121 38.1773 96.4308 38.3685C96.7494 38.496 97.0681 38.5597 97.3868 38.5597C97.7692 38.5597 98.0879 38.496 98.4066 38.3685C98.7252 38.2411 98.9802 38.0499 99.2351 37.7949C99.49 37.54 99.6175 37.285 99.8087 36.9664C99.9362 36.6477 99.9999 36.329 99.9999 35.9466C99.9999 35.6279 99.9362 35.2455 99.8087 34.9906ZM99.3626 36.7752C99.2351 37.0301 99.1076 37.2213 98.9164 37.4125C98.7252 37.6037 98.534 37.7312 98.2791 37.8587C98.0241 37.9861 97.7692 38.0499 97.4505 38.0499C97.1319 38.0499 96.8769 37.9861 96.622 37.8587C96.367 37.7312 96.1758 37.6037 95.9846 37.4125C95.7934 37.2213 95.666 37.0301 95.5385 36.7752C95.411 36.5202 95.3473 36.2653 95.3473 35.9466C95.3473 35.6279 95.411 35.373 95.5385 35.1181C95.666 34.8631 95.7934 34.6719 95.9846 34.4807C96.1758 34.2895 96.367 34.162 96.622 34.0346C96.8769 33.9071 97.1319 33.8434 97.4505 33.8434C97.7692 33.8434 98.0241 33.9071 98.2791 34.0346C98.534 34.162 98.7252 34.2895 98.9164 34.4807C99.1076 34.6719 99.2351 34.8631 99.3626 35.1181C99.49 35.373 99.5538 35.6279 99.5538 35.9466C99.5538 36.2653 99.49 36.5202 99.3626 36.7752ZM97.9604 36.1378C98.1516 36.1378 98.3428 36.0103 98.4703 35.8829C98.5978 35.7554 98.6615 35.5642 98.6615 35.3093C98.6615 35.0543 98.5978 34.7994 98.4066 34.6719C98.2153 34.5444 97.9604 34.417 97.6417 34.417H96.4945V37.3488H97.0044V36.1378H97.3868L98.0879 37.3488H98.6615L97.9604 36.1378ZM97.6417 35.7554C97.578 35.7554 97.4505 35.7554 97.3868 35.7554H97.0044V34.9269H97.3868C97.4505 34.9269 97.578 34.9269 97.6417 34.9269C97.7055 34.9269 97.7692 34.9269 97.8329 34.9906C97.8967 34.9906 97.9604 35.0543 98.0241 35.1181C98.0879 35.1818 98.0879 35.2455 98.0879 35.373C98.0879 35.5005 98.0879 35.5642 98.0241 35.6279C97.9604 35.6917 97.9604 35.7554 97.8329 35.7554C97.8329 35.6917 97.7055 35.7554 97.6417 35.7554Z" fill="#0068B5"/>
</g>
<defs>
<clipPath id="clip0">
<rect width="100" height="38.7508" fill="white"/>
</clipPath>
</defs>
</svg>
