<svg width="464" height="464" xmlns="http://www.w3.org/2000/svg" xmlns:xlink="http://www.w3.org/1999/xlink" overflow="hidden"><defs><clipPath id="clip0"><rect x="408" y="128" width="464" height="464"/></clipPath></defs><g clip-path="url(#clip0)" transform="translate(-408 -128)"><path d="M780.167 427.638 780.167 253.667 499.833 253.667 499.833 427.715ZM509.5 263.333 770.5 263.333 770.5 417.966 509.5 418.048Z"/><path d="M485.333 248.833C485.333 243.494 489.661 239.167 495 239.167L785 239.167C790.339 239.167 794.667 243.494 794.667 248.833L794.667 447.063 804.333 447.063 804.333 248.833C804.333 238.156 795.677 229.5 785 229.5L495 229.5C484.323 229.5 475.667 238.156 475.667 248.833L475.667 447.063 485.333 447.063Z"/><path d="M664.167 461.471 664.167 471.138 615.833 471.138 615.833 461.471 417.667 461.471 417.667 471.138C417.683 484.478 428.493 495.288 441.833 495.304L838.167 495.304C851.507 495.288 862.317 484.478 862.333 471.138L862.333 461.471ZM838.167 485.638 441.833 485.638C433.825 485.638 427.333 479.146 427.333 471.138L606.167 471.138C605.99 476.3 610.032 480.628 615.194 480.804 615.407 480.812 615.62 480.812 615.833 480.804L664.167 480.804C669.329 480.981 673.657 476.939 673.833 471.777 673.841 471.564 673.841 471.351 673.833 471.138L852.667 471.138C852.667 479.146 846.175 485.638 838.167 485.638Z"/></g></svg>