<svg width="560" height="560" xmlns="http://www.w3.org/2000/svg" xmlns:xlink="http://www.w3.org/1999/xlink" overflow="hidden"><defs><clipPath id="clip0"><rect x="360" y="80" width="560" height="560"/></clipPath></defs><g clip-path="url(#clip0)" transform="translate(-360 -80)"><path d="M865.75 491.95 785.25 411.45C775.432 401.463 759.377 401.326 749.39 411.143 749.287 411.245 749.185 411.347 749.083 411.45L705.917 456.367C701.017 461.033 693.317 461.033 688.417 456.367L543.75 312.231C539.08 307.332 539.08 299.63 543.75 294.731L588.667 250.398C598.654 240.571 598.784 224.509 588.957 214.521 588.861 214.424 588.764 214.327 588.667 214.231L508.167 134.25C503.548 129.533 497.267 126.812 490.667 126.667 483.894 126.804 477.428 129.516 472.583 134.25L426.5 180.333C414.886 191.07 407.97 205.95 407.25 221.75 406.433 247.683 411.001 273.505 420.667 297.583 430.264 319.115 441.988 339.634 455.667 358.833 503.201 430.513 563.509 492.842 633.583 542.712 645.252 551.37 657.534 559.168 670.333 566.045 699.317 581.286 731.044 590.607 763.667 593.462 765.537 593.606 767.406 593.679 769.273 593.683 789.724 593.614 809.235 585.083 823.172 570.117L865.172 528.117C869.999 523.333 872.727 516.829 872.756 510.033 872.94 503.31 870.416 496.795 865.75 491.95ZM480.814 142.533C483.474 139.976 486.979 138.482 490.667 138.333 494.182 138.5 497.502 140.002 499.948 142.533L580.448 222.45C585.881 227.718 586.014 236.393 580.746 241.826 580.665 241.909 580.583 241.992 580.5 242.073L564.05 258.302 464.551 158.808ZM814.942 561.886 814.784 562.043 814.638 562.201C802.923 574.81 786.501 581.992 769.29 582.034 767.727 582.034 766.152 581.97 764.501 581.842 733.475 579.115 703.305 570.23 675.753 555.708 663.507 549.122 651.753 541.66 640.583 533.378L640.461 533.285 640.327 533.192C571.333 484.158 511.979 422.814 465.245 352.242 452.074 333.786 440.779 314.061 431.528 293.36 424.692 274.168 417.167 248.852 418.917 222.567L418.917 222.392 418.917 222.223C419.54 209.469 425.152 197.472 434.544 188.821L434.655 188.716 434.76 188.611 456.308 167.057 555.749 266.497 535.508 286.5C526.272 295.959 526.272 311.061 535.508 320.52L680.174 464.603C689.696 473.889 704.907 473.817 714.34 464.44L733.619 444.373 833.037 543.785ZM856.942 519.886 841.285 535.548 741.704 435.962 757.355 419.675C762.612 414.245 771.276 414.105 776.706 419.362 776.812 419.464 776.917 419.569 777.019 419.675L857.519 500.175C862.516 505.871 862.262 514.461 856.936 519.851Z"/></g></svg>