<?xml version="1.0" standalone="no"?>
<!DOCTYPE svg PUBLIC "-//W3C//DTD SVG 20010904//EN"
 "http://www.w3.org/TR/2001/REC-SVG-20010904/DTD/svg10.dtd">
<svg version="1.0" xmlns="http://www.w3.org/2000/svg"
 width="3200.000000pt" height="3200.000000pt" viewBox="0 0 3200.000000 3200.000000"
 preserveAspectRatio="xMidYMid meet">

<g transform="translate(0.000000,3200.000000) scale(0.100000,-0.100000)"
fill="#000000" stroke="none">
<path d="M16252 31984 c-145 -39 -266 -137 -327 -265 -19 -41 -39 -98 -45
-128 -7 -35 -10 -899 -10 -2540 0 -2701 -3 -2547 54 -2659 87 -173 253 -274
446 -274 232 0 426 149 485 373 22 83 22 5047 0 5132 -45 171 -186 315 -354
359 -80 21 -178 22 -249 2z"/>
<path d="M7831 29729 c-183 -36 -354 -204 -391 -386 -15 -72 -8 -203 15 -268
10 -27 578 -1021 1264 -2209 1042 -1806 1254 -2167 1298 -2211 193 -193 513
-193 707 1 132 132 180 341 119 514 -20 55 -2415 4215 -2501 4344 -113 169
-315 254 -511 215z"/>
<path d="M23956 29724 c-32 -8 -86 -29 -120 -47 -134 -71 -57 54 -1417 -2303
-686 -1187 -1254 -2181 -1264 -2209 -23 -68 -30 -187 -16 -258 18 -85 74 -188
136 -249 161 -162 411 -195 608 -81 119 70 62 -23 1392 2278 861 1490 1248
2170 1267 2223 46 128 35 276 -30 396 -42 80 -138 171 -224 211 -117 55 -216
67 -332 39z"/>
<path d="M2273 23915 c-237 -66 -396 -282 -380 -515 9 -137 66 -252 168 -344
72 -64 4302 -2508 4404 -2544 62 -22 81 -24 175 -20 126 6 186 27 281 97 73
54 134 136 170 229 33 83 33 240 1 332 -29 85 -85 164 -153 218 -73 59 -4297
2498 -4379 2529 -82 32 -211 40 -287 18z"/>
<path d="M29498 23914 c-32 -7 -79 -24 -105 -38 -125 -63 -4301 -2480 -4338
-2511 -91 -74 -163 -216 -172 -340 -17 -229 118 -434 336 -511 92 -33 229 -33
321 -1 68 24 4297 2460 4381 2524 230 174 252 529 45 737 -128 129 -302 181
-468 140z"/>
<path d="M15505 23509 c-2154 -148 -4107 -1191 -5436 -2901 -833 -1071 -1364
-2375 -1518 -3723 -62 -536 -67 -1089 -15 -1610 207 -2090 1268 -3984 2944
-5255 1913 -1450 4404 -1891 6715 -1190 1155 351 2238 1003 3105 1870 1207
1207 1964 2782 2154 4480 34 300 41 444 41 835 -1 406 -8 546 -46 875 -161
1385 -707 2701 -1573 3790 -265 333 -673 759 -971 1014 -1276 1092 -2772 1705
-4433 1816 -177 12 -791 11 -967 -1z m1090 -1014 c1376 -135 2595 -655 3650
-1557 167 -142 536 -514 690 -693 805 -942 1330 -2101 1499 -3310 47 -338 60
-524 60 -910 1 -364 -7 -502 -44 -811 -259 -2141 -1595 -4038 -3530 -5013
-698 -353 -1413 -566 -2195 -655 -266 -31 -463 -38 -834 -33 -379 5 -563 19
-876 67 -2584 394 -4694 2326 -5325 4875 -228 919 -249 1891 -64 2835 331
1682 1353 3199 2799 4155 914 604 1985 975 3045 1054 80 6 165 13 190 15 114
10 785 -4 935 -19z"/>
<path d="M380 16114 c-91 -24 -161 -65 -231 -134 -273 -270 -152 -726 221
-834 50 -15 294 -16 2590 -14 l2535 3 58 22 c191 72 315 239 325 439 8 160
-29 262 -134 374 -72 76 -150 122 -245 145 -95 22 -5034 22 -5119 -1z"/>
<path d="M26502 16116 c-173 -42 -314 -179 -366 -355 -18 -62 -21 -184 -5
-251 29 -125 139 -268 250 -323 122 -61 -63 -57 2674 -57 2223 0 2518 2 2570
15 257 67 418 327 364 587 -39 187 -200 348 -387 387 -82 17 -5028 14 -5100
-3z"/>
<path d="M6870 10855 c-25 -7 -57 -17 -72 -23 -48 -20 -4292 -2474 -4344
-2512 -98 -74 -167 -194 -186 -328 -22 -148 26 -292 134 -408 68 -72 161 -125
255 -144 72 -15 203 -8 268 15 28 9 1021 578 2208 1263 2344 1354 2227 1282
2296 1412 109 204 70 445 -96 600 -71 67 -134 103 -220 125 -69 18 -181 18
-243 0z"/>
<path d="M24883 10855 c-84 -23 -153 -63 -219 -127 -164 -157 -201 -396 -93
-598 69 -129 -41 -62 2269 -1396 1169 -675 2147 -1238 2174 -1252 142 -71 322
-69 459 6 187 102 294 318 257 522 -22 123 -92 241 -184 310 -68 51 -4302
2495 -4369 2522 -68 27 -220 34 -294 13z"/>
<path d="M10887 7105 c-125 -34 -231 -115 -301 -228 -138 -225 -2472 -4281
-2489 -4327 -29 -79 -29 -241 2 -324 86 -237 330 -376 573 -325 117 24 241
107 307 203 32 47 2446 4227 2481 4296 67 133 67 307 -1 446 -32 67 -138 175
-207 212 -111 59 -254 78 -365 47z"/>
<path d="M20861 7105 c-165 -46 -297 -172 -351 -335 -19 -55 -21 -81 -17 -170
3 -68 10 -121 22 -150 10 -25 577 -1012 1259 -2195 1370 -2372 1289 -2243
1430 -2309 204 -97 415 -64 572 89 141 138 189 345 121 526 -30 80 -2470 4304
-2529 4378 -51 65 -135 124 -215 153 -76 28 -217 34 -292 13z"/>
<path d="M16239 5866 c-175 -49 -325 -212 -359 -391 -8 -44 -10 -734 -8 -2570
l3 -2510 23 -59 c110 -290 432 -418 704 -280 119 60 230 206 257 336 8 38 11
788 9 2578 l-3 2525 -22 58 c-55 144 -171 256 -320 306 -72 24 -208 27 -284 7z"/>
</g>
</svg>
